<svg width="18" height="18" viewBox="0 0 18 18" fill="none" xmlns="http://www.w3.org/2000/svg">
<path d="M1.6875 1.125C1.53832 1.125 1.39524 1.18426 1.28975 1.28975C1.18426 1.39524 1.125 1.53832 1.125 1.6875V5.0625C1.125 5.21168 1.06574 5.35476 0.960248 5.46025C0.854758 5.56574 0.711684 5.625 0.5625 5.625C0.413316 5.625 0.270242 5.56574 0.164752 5.46025C0.0592632 5.35476 0 5.21168 0 5.0625V1.6875C0 1.23995 0.17779 0.810725 0.494257 0.494257C0.810725 0.17779 1.23995 0 1.6875 0L5.0625 0C5.21168 0 5.35476 0.0592632 5.46025 0.164752C5.56574 0.270242 5.625 0.413316 5.625 0.5625C5.625 0.711684 5.56574 0.854758 5.46025 0.960248C5.35476 1.06574 5.21168 1.125 5.0625 1.125H1.6875ZM12.375 0.5625C12.375 0.413316 12.4343 0.270242 12.5398 0.164752C12.6452 0.0592632 12.7883 0 12.9375 0L16.3125 0C16.7601 0 17.1893 0.17779 17.5057 0.494257C17.8222 0.810725 18 1.23995 18 1.6875V5.0625C18 5.21168 17.9407 5.35476 17.8352 5.46025C17.7298 5.56574 17.5867 5.625 17.4375 5.625C17.2883 5.625 17.1452 5.56574 17.0398 5.46025C16.9343 5.35476 16.875 5.21168 16.875 5.0625V1.6875C16.875 1.53832 16.8157 1.39524 16.7102 1.28975C16.6048 1.18426 16.4617 1.125 16.3125 1.125H12.9375C12.7883 1.125 12.6452 1.06574 12.5398 0.960248C12.4343 0.854758 12.375 0.711684 12.375 0.5625V0.5625ZM0.5625 12.375C0.711684 12.375 0.854758 12.4343 0.960248 12.5398C1.06574 12.6452 1.125 12.7883 1.125 12.9375V16.3125C1.125 16.4617 1.18426 16.6048 1.28975 16.7102C1.39524 16.8157 1.53832 16.875 1.6875 16.875H5.0625C5.21168 16.875 5.35476 16.9343 5.46025 17.0398C5.56574 17.1452 5.625 17.2883 5.625 17.4375C5.625 17.5867 5.56574 17.7298 5.46025 17.8352C5.35476 17.9407 5.21168 18 5.0625 18H1.6875C1.23995 18 0.810725 17.8222 0.494257 17.5057C0.17779 17.1893 0 16.7601 0 16.3125L0 12.9375C0 12.7883 0.0592632 12.6452 0.164752 12.5398C0.270242 12.4343 0.413316 12.375 0.5625 12.375V12.375ZM17.4375 12.375C17.5867 12.375 17.7298 12.4343 17.8352 12.5398C17.9407 12.6452 18 12.7883 18 12.9375V16.3125C18 16.7601 17.8222 17.1893 17.5057 17.5057C17.1893 17.8222 16.7601 18 16.3125 18H12.9375C12.7883 18 12.6452 17.9407 12.5398 17.8352C12.4343 17.7298 12.375 17.5867 12.375 17.4375C12.375 17.2883 12.4343 17.1452 12.5398 17.0398C12.6452 16.9343 12.7883 16.875 12.9375 16.875H16.3125C16.4617 16.875 16.6048 16.8157 16.7102 16.7102C16.8157 16.6048 16.875 16.4617 16.875 16.3125V12.9375C16.875 12.7883 16.9343 12.6452 17.0398 12.5398C17.1452 12.4343 17.2883 12.375 17.4375 12.375ZM3.375 5.0625C3.375 4.91332 3.43426 4.77024 3.53975 4.66475C3.64524 4.55926 3.78832 4.5 3.9375 4.5C4.08668 4.5 4.22976 4.55926 4.33525 4.66475C4.44074 4.77024 4.5 4.91332 4.5 5.0625V12.9375C4.5 13.0867 4.44074 13.2298 4.33525 13.3352C4.22976 13.4407 4.08668 13.5 3.9375 13.5C3.78832 13.5 3.64524 13.4407 3.53975 13.3352C3.43426 13.2298 3.375 13.0867 3.375 12.9375V5.0625ZM5.625 5.0625C5.625 4.91332 5.68426 4.77024 5.78975 4.66475C5.89524 4.55926 6.03832 4.5 6.1875 4.5C6.33668 4.5 6.47976 4.55926 6.58525 4.66475C6.69074 4.77024 6.75 4.91332 6.75 5.0625V12.9375C6.75 13.0867 6.69074 13.2298 6.58525 13.3352C6.47976 13.4407 6.33668 13.5 6.1875 13.5C6.03832 13.5 5.89524 13.4407 5.78975 13.3352C5.68426 13.2298 5.625 13.0867 5.625 12.9375V5.0625ZM7.875 5.0625C7.875 4.91332 7.93426 4.77024 8.03975 4.66475C8.14524 4.55926 8.28832 4.5 8.4375 4.5C8.58668 4.5 8.72976 4.55926 8.83525 4.66475C8.94074 4.77024 9 4.91332 9 5.0625V12.9375C9 13.0867 8.94074 13.2298 8.83525 13.3352C8.72976 13.4407 8.58668 13.5 8.4375 13.5C8.28832 13.5 8.14524 13.4407 8.03975 13.3352C7.93426 13.2298 7.875 13.0867 7.875 12.9375V5.0625ZM10.125 5.0625C10.125 4.91332 10.1843 4.77024 10.2898 4.66475C10.3952 4.55926 10.5383 4.5 10.6875 4.5H11.8125C11.9617 4.5 12.1048 4.55926 12.2102 4.66475C12.3157 4.77024 12.375 4.91332 12.375 5.0625V12.9375C12.375 13.0867 12.3157 13.2298 12.2102 13.3352C12.1048 13.4407 11.9617 13.5 11.8125 13.5H10.6875C10.5383 13.5 10.3952 13.4407 10.2898 13.3352C10.1843 13.2298 10.125 13.0867 10.125 12.9375V5.0625ZM13.5 5.0625C13.5 4.91332 13.5593 4.77024 13.6648 4.66475C13.7702 4.55926 13.9133 4.5 14.0625 4.5C14.2117 4.5 14.3548 4.55926 14.4602 4.66475C14.5657 4.77024 14.625 4.91332 14.625 5.0625V12.9375C14.625 13.0867 14.5657 13.2298 14.4602 13.3352C14.3548 13.4407 14.2117 13.5 14.0625 13.5C13.9133 13.5 13.7702 13.4407 13.6648 13.3352C13.5593 13.2298 13.5 13.0867 13.5 12.9375V5.0625Z" fill="#3767CD"/>
</svg>
