<svg width="437" height="17" viewBox="0 0 437 17" fill="none" xmlns="http://www.w3.org/2000/svg">
<circle cx="8.5" cy="8.5" r="8.5" fill="#1E40AF"/>
<circle cx="29.5" cy="8.5" r="8.5" fill="#1E40AF"/>
<circle cx="50.5" cy="8.5" r="8.5" fill="#1E40AF"/>
<circle cx="71.5" cy="8.5" r="8.5" fill="#1E40AF"/>
<circle cx="92.5" cy="8.5" r="8.5" fill="#1E40AF"/>
<circle cx="113.5" cy="8.5" r="8.5" fill="#1E40AF"/>
<circle cx="134.5" cy="8.5" r="8.5" fill="#1E40AF"/>
<circle cx="155.5" cy="8.5" r="8.5" fill="#1E40AF"/>
<circle cx="176.5" cy="8.5" r="8.5" fill="#1E40AF"/>
<circle cx="197.5" cy="8.5" r="8.5" fill="#1E40AF"/>
<circle cx="218.5" cy="8.5" r="8.5" fill="#1E40AF"/>
<circle cx="239.5" cy="8.5" r="8.5" fill="#1E40AF"/>
<circle cx="260.5" cy="8.5" r="8.5" fill="#1E40AF"/>
<circle cx="281.5" cy="8.5" r="8.5" fill="#1E40AF"/>
<circle cx="302.5" cy="8.5" r="8.5" fill="#1E40AF"/>
<circle cx="323.5" cy="8.5" r="8.5" fill="#1E40AF"/>
<circle cx="344.5" cy="8.5" r="8.5" fill="#1E40AF"/>
<circle cx="365.5" cy="8.5" r="8.5" fill="#1E40AF"/>
<circle cx="386.5" cy="8.5" r="8.5" fill="#1E40AF"/>
<circle cx="407.5" cy="8.5" r="8.5" fill="#1E40AF"/>
<circle cx="428.5" cy="8.5" r="8.5" fill="#1E40AF"/>
</svg>
