<svg width="97" height="14" viewBox="0 0 97 14" fill="none" xmlns="http://www.w3.org/2000/svg">
<path d="M0.107134 5.84551C0.593694 5.79103 1.04283 5.76661 1.5328 5.73996C2.02276 5.71332 2.46848 5.66107 2.95504 5.60658C4.00982 5.49318 5.02036 5.35416 6.07513 5.24075C8.0622 5.02061 10.0901 4.79825 12.0874 4.66162C13.9179 4.50603 15.7927 4.37606 17.6301 4.27615C18.1201 4.24951 18.61 4.22287 19.0592 4.19845C20.8999 4.12637 22.7373 4.02646 24.5781 3.95439C28.8755 3.80478 33.2137 3.65295 37.518 3.55902C41.7406 3.46953 45.9631 3.38004 50.1483 3.32061C52.2 3.29311 54.2926 3.2634 56.3444 3.2359C58.6037 3.22514 60.8187 3.18877 63.0781 3.17801C67.7226 3.17767 72.3229 3.15171 76.9674 3.15138C80.996 3.1565 84.9941 3.24736 89.0023 3.42174C91.6053 3.53241 94.1743 3.70098 96.7467 3.89739C93.8648 4.19422 90.9318 4.40975 87.9954 4.59744C86.0764 4.70179 84.154 4.7783 82.2723 4.8526C81.044 4.89136 79.8123 4.90229 78.5397 4.91544C77.7605 4.92979 77.0188 4.91408 76.277 4.89836C74.2593 4.86796 72.2041 4.86762 70.1864 4.83722C67.842 4.82458 65.5351 4.78188 63.1907 4.76924C60.8055 4.75882 58.3794 4.75062 55.9942 4.7402C53.8574 4.7443 51.6798 4.75062 49.5021 4.75694C47.4061 4.75882 45.2727 4.79075 43.1802 4.82047C41.0467 4.8524 38.9542 4.88212 36.8208 4.91406C34.6465 4.94822 32.5199 5.03583 30.3491 5.09782C26.4157 5.19961 22.4926 5.38491 18.5286 5.57243C16.3238 5.69233 14.1529 5.75432 11.9413 5.81854C9.77046 5.88053 7.59963 5.94252 5.46622 5.97446C4.60538 5.99325 3.70371 6.01425 2.83945 6.0052C2.42774 5.99957 1.97518 5.99615 1.56006 5.96268C1.18577 5.92698 0.80807 5.86345 0.437185 5.85559C0.314693 5.86225 0.1888 5.84107 0.107134 5.84551C0.0663081 5.84773 0.0663081 5.84773 0.107134 5.84551Z" fill="#161616"/>
<path d="M96.4155 4.2686C95.9222 4.2701 95.473 4.29698 94.983 4.3263C94.493 4.35563 94.0405 4.35469 93.5471 4.35619C92.4787 4.36408 91.4478 4.3417 90.3795 4.34959C88.3652 4.35804 86.3102 4.36894 84.306 4.46085C82.4618 4.51517 80.5801 4.59976 78.7426 4.70972C78.2526 4.73904 77.7626 4.76836 77.3134 4.79524C75.4793 4.93302 73.6418 5.04298 71.8076 5.18076C67.5302 5.5208 63.2119 5.86328 58.9412 6.25896C54.7521 6.64975 50.5631 7.04055 46.4182 7.45672C44.3866 7.66236 42.3141 7.87044 40.2825 8.07608C38.0501 8.32177 35.8552 8.53718 33.6228 8.78286C29.0388 9.30938 24.4923 9.80563 19.9083 10.3321C15.9335 10.7942 12.0096 11.3372 8.09569 11.9638C5.55337 12.3681 3.05859 12.8256 0.567175 13.311C3.48311 13.2766 6.42981 13.1563 9.37316 13.0082C11.2923 12.8933 13.2081 12.7507 15.0831 12.6104C16.3048 12.5093 17.5231 12.3804 18.7822 12.249C19.5547 12.1747 20.2829 12.0751 21.0112 11.9755C22.9953 11.7166 25.0236 11.4832 27.0076 11.2243C29.3184 10.9459 31.5849 10.6422 33.8956 10.3638C36.2472 10.0829 38.6396 9.79967 40.9911 9.51884C43.1011 9.28049 45.2518 9.0397 47.4026 8.79891C49.4716 8.563 51.5849 8.35247 53.6573 8.14439C55.7706 7.93386 57.843 7.72577 59.9563 7.51525C62.1104 7.30227 64.2304 7.14738 66.3879 6.96223C70.2944 6.61637 74.2111 6.35396 78.1686 6.08912C80.3736 5.95716 82.531 5.77201 84.7293 5.58442C86.8868 5.39927 89.0442 5.21411 91.1575 5.00358C92.0116 4.92445 92.9066 4.84287 93.7574 4.73591C94.1624 4.68366 94.6082 4.62896 95.0098 4.54888C95.3706 4.47124 95.7281 4.36579 96.0922 4.31597C96.2147 4.30864 96.3338 4.27349 96.4155 4.2686C96.4563 4.26616 96.4563 4.26616 96.4155 4.2686Z" fill="#161616"/>
</svg>
