<svg width="188" height="188" viewBox="0 0 188 188" fill="none" xmlns="http://www.w3.org/2000/svg">
<circle cx="93.7891" cy="93.8687" r="88.5" stroke="#ECEFF5" stroke-width="2"/>
<circle cx="93.7891" cy="93.8687" r="71.5" stroke="#ECEFF5" stroke-width="2"/>
<path d="M21.8693 145.591C19.559 147.255 16.3239 146.738 14.7893 144.34C5.33218 129.561 0.191125 112.392 0.00522348 94.7786C-0.198853 75.4432 5.57841 56.5172 16.546 40.592C27.5137 24.6668 43.1355 12.5208 61.2728 5.81694C79.41 -0.886916 99.176 -1.82092 117.865 3.14282C136.553 8.10655 153.251 18.7254 165.671 33.5454C178.092 48.3655 185.628 66.6623 187.248 85.9309C188.868 105.199 184.493 124.498 174.721 141.184C165.82 156.384 152.837 168.739 137.293 176.877C134.771 178.198 131.706 177.041 130.526 174.45C129.345 171.859 130.498 168.816 133.012 167.478C146.625 160.233 157.997 149.338 165.824 135.973C174.521 121.122 178.415 103.945 176.973 86.7947C175.531 69.6445 168.824 53.3592 157.769 40.1684C146.714 26.9776 131.852 17.5262 115.218 13.1081C98.5838 8.69009 80.9908 9.52141 64.8475 15.4883C48.7042 21.4551 34.7997 32.2658 25.0378 46.4403C15.276 60.6147 10.1338 77.46 10.3155 94.6698C10.4789 110.157 14.9467 125.259 23.1703 138.304C24.6887 140.713 24.1796 143.927 21.8693 145.591Z" fill="#1E40AF"/>
<path d="M35.8939 135.569C34.034 136.909 31.4299 136.493 30.1945 134.562C23.1393 123.537 19.0584 110.844 18.3876 97.7242C17.7167 84.6044 20.4816 71.5613 26.3754 59.8738C27.4074 57.8273 29.9555 57.1479 31.9423 58.2908C33.9291 59.4337 34.6006 61.9658 33.5825 64.0193C28.477 74.317 26.0876 85.7754 26.677 97.3003C27.2663 108.825 30.8119 119.98 36.9412 129.703C38.1634 131.642 37.7537 134.23 35.8939 135.569Z" fill="#BF1B80"/>
<path d="M57.624 110V84.516L52.334 85.758V81.25L60.108 77.8H63.742V110H57.624ZM81.5314 110.552C79.1701 110.552 77.1308 110.138 75.4134 109.31C73.7268 108.482 72.3928 107.347 71.4114 105.906C70.4608 104.434 69.9088 102.778 69.7554 100.938H75.5054C75.7814 102.257 76.4561 103.361 77.5294 104.25C78.6028 105.109 79.9368 105.538 81.5314 105.538C83.2488 105.538 84.6441 104.909 85.7174 103.652C86.8214 102.395 87.3734 100.831 87.3734 98.96C87.3734 97.028 86.8214 95.4947 85.7174 94.36C84.6441 93.2253 83.2794 92.658 81.6234 92.658C80.2434 92.658 79.0474 92.9953 78.0354 93.67C77.0234 94.3447 76.3028 95.188 75.8734 96.2H70.2154L72.9754 77.8H90.8234V82.952H77.3914L75.9194 90.404C76.5941 89.668 77.5141 89.07 78.6794 88.61C79.8448 88.1193 81.1481 87.874 82.5894 87.874C84.8894 87.874 86.8061 88.3953 88.3394 89.438C89.8728 90.45 91.0381 91.7993 91.8354 93.486C92.6328 95.142 93.0314 96.9513 93.0314 98.914C93.0314 101.153 92.5408 103.146 91.5594 104.894C90.6088 106.642 89.2594 108.022 87.5114 109.034C85.7941 110.046 83.8008 110.552 81.5314 110.552ZM105.135 93.624C103.663 93.624 102.329 93.302 101.133 92.658C99.9368 91.9833 98.9861 91.0327 98.2808 89.806C97.5755 88.5793 97.2228 87.1227 97.2228 85.436C97.2228 83.7493 97.5755 82.2927 98.2808 81.066C98.9861 79.8393 99.9368 78.904 101.133 78.26C102.329 77.5853 103.678 77.248 105.181 77.248C106.653 77.248 107.971 77.5853 109.137 78.26C110.333 78.904 111.283 79.8393 111.989 81.066C112.694 82.2927 113.047 83.7493 113.047 85.436C113.047 87.1227 112.694 88.5793 111.989 89.806C111.283 91.0327 110.333 91.9833 109.137 92.658C107.941 93.302 106.607 93.624 105.135 93.624ZM103.387 110L121.557 77.8H127.307L109.137 110H103.387ZM105.135 89.53C106.024 89.53 106.791 89.1927 107.435 88.518C108.079 87.8127 108.401 86.7853 108.401 85.436C108.401 84.0867 108.079 83.0593 107.435 82.354C106.821 81.6487 106.055 81.296 105.135 81.296C104.215 81.296 103.433 81.6487 102.789 82.354C102.175 83.0593 101.869 84.0867 101.869 85.436C101.869 86.7853 102.175 87.8127 102.789 88.518C103.433 89.1927 104.215 89.53 105.135 89.53ZM125.743 110.552C124.271 110.552 122.937 110.23 121.741 109.586C120.545 108.911 119.594 107.961 118.889 106.734C118.183 105.507 117.831 104.051 117.831 102.364C117.831 100.677 118.183 99.236 118.889 98.04C119.594 96.8133 120.545 95.878 121.741 95.234C122.937 94.5593 124.286 94.222 125.789 94.222C127.261 94.222 128.579 94.5593 129.745 95.234C130.941 95.878 131.891 96.8133 132.597 98.04C133.302 99.236 133.655 100.677 133.655 102.364C133.655 104.051 133.302 105.507 132.597 106.734C131.891 107.961 130.941 108.911 129.745 109.586C128.579 110.23 127.245 110.552 125.743 110.552ZM125.743 106.458C126.663 106.458 127.429 106.121 128.043 105.446C128.687 104.741 129.009 103.713 129.009 102.364C129.009 101.015 128.687 99.9873 128.043 99.282C127.429 98.5767 126.663 98.224 125.743 98.224C124.823 98.224 124.041 98.5767 123.397 99.282C122.783 99.9873 122.477 101.015 122.477 102.364C122.477 103.713 122.783 104.741 123.397 105.446C124.041 106.121 124.823 106.458 125.743 106.458Z" fill="#1E40AF"/>
</svg>
