<svg width="96" height="96" viewBox="0 0 96 96" fill="none" xmlns="http://www.w3.org/2000/svg">
<path d="M0.167969 14.5537V28.9411H2.59701H5.02604V31.2767V33.6123H2.59701H0.167969V36.0413V38.4704H2.59701H5.02604V40.806V43.1416L9.75332 43.179L14.4619 43.235L14.518 45.608L14.574 47.9997H7.36166H0.167969V50.4287V52.8577H7.36166H14.5553V55.1934V57.529H16.891H19.2079L19.2639 59.9019L19.32 62.2936L21.7117 62.3497L24.0846 62.4057V59.958V57.529H26.5137H28.9427V55.1934V52.8577H33.7074H38.472V55.1934V57.529H36.043H33.6139V59.958V62.387H31.2783H28.9427V64.7227V67.0583H21.749H14.5553V64.7227V62.387H9.79069H5.04473L4.98867 59.9954L4.93262 57.6224L2.55964 57.5663L0.167969 57.5103V59.958V62.387H2.59701H5.02604V64.7227V67.0583H2.59701H0.167969V81.4456V95.833H19.32H38.4907L38.4346 93.4413L38.3786 91.0684L33.67 91.0123L28.9427 90.9749V81.4456V71.9163H31.2783H33.5953L33.6513 74.308L33.7074 76.681L36.099 76.737L38.472 76.7931V79.11V81.4456H36.043H33.6139V83.8747V86.3037H38.3786H43.1246L43.1806 83.912L43.2367 81.5391L45.6283 81.483L48.0013 81.427V83.8747V86.3224L50.393 86.2663L52.766 86.2103V83.8747V81.5391L50.393 81.483L48.0013 81.427V79.11V76.7931L50.393 76.737L52.766 76.681L52.822 74.2893L52.8781 71.9163H55.195H57.5306V76.681V81.4456H59.9596H62.3887V83.8747V86.3037H64.7243H67.0599V88.6393V90.9749L71.8806 91.0123L76.6826 91.0684L76.7387 93.4413L76.7947 95.833H79.1117H81.4286L81.4846 93.4413L81.5407 91.0684L86.268 91.0123L90.9766 90.9749V93.404V95.833H93.4056H95.8347V91.0684V86.3037H91.07H86.3054V83.8747V81.4456H83.8763H81.4473V76.681V71.9163H83.8763H86.3054V74.3454V76.7744H91.07H95.8347V71.9163V67.0396L93.4617 67.0956L91.07 67.1517L91.0139 69.5247L90.9579 71.9163H88.641H86.324L86.268 69.5247L86.2119 67.1517L83.839 67.0956L81.4473 67.0396V62.2936V57.529H83.8763H86.3054V55.1934V52.8577H88.641H90.9766V50.4287V47.9997H93.4056H95.8347V43.235V38.4704H93.4056H90.9766V40.806V43.1416H86.2119H81.4473V40.806V38.4704H83.8763H86.3054V36.0413V33.6123H83.8763H81.4473V36.0413V38.4704H79.1117H76.7761V33.7057V28.9411H83.8763H90.9766V31.2767V33.6123H93.4056H95.8347V16.8893V0.166321H81.4473H67.0599V2.59536V5.0244H64.7243H62.3887V7.36001V9.69562H64.7243H67.0599L67.0973 19.2623L67.1533 28.8476L69.545 28.9037L71.918 28.9598V31.2767V33.6123H69.4889H67.0599V31.2767V28.9411H62.2953H57.5306V26.512V24.083H55.195H52.8781L52.822 21.6913L52.766 19.3183L50.393 19.2623L48.0013 19.2062V21.654V24.083H43.2367H38.4907L38.4346 21.6913L38.3786 19.3183L36.0056 19.2623L33.6139 19.2062V16.8893V14.5537H31.2783H28.9427V9.78905V5.0244H33.7074H38.472V7.36001V9.69562H40.8076H43.1246L43.1806 12.0686L43.2367 14.4603L50.393 14.5163L57.5306 14.5537V16.8893V19.2249H59.9596H62.3887V16.8893V14.5537H59.9596H57.5306V9.78905V5.0244H55.195H52.8594V7.36001V9.69562H48.0013H43.1432V7.36001V5.0244H40.8076H38.472V2.59536V0.166321H19.32H0.167969V14.5537ZM24.0846 14.5537V24.083H14.5553H5.02604V14.5537V5.0244H14.5553H24.0846V14.5537ZM90.9766 14.5537V24.083H81.4473H71.918V14.5537V5.0244H81.4473H90.9766V14.5537ZM33.6139 24.083V28.9411H36.043H38.472V33.7057V38.4704H31.2783H24.0846V36.0413V33.6123H21.6556H19.2266V36.0413V38.4704H12.1263H5.02604V36.0413V33.6123H7.36166H9.69727V31.2767V28.9411H12.1263H14.5553V31.2767V33.6123H16.891H19.2266V31.2767V28.9411L24.0473 28.9037L28.8493 28.8476L28.9053 24.0269L28.9427 19.2249H31.2783H33.6139V24.083ZM57.5306 31.2767V33.6123H55.195H52.8594V38.3769V43.1416H55.195H57.5306V40.806V38.4704H59.9596H62.3887V36.0413V33.6123H64.7243H67.0412L67.0973 35.9853L67.1533 38.3769L71.974 38.433L76.7761 38.4704V40.806V43.1416H79.1117H81.4473V45.5706V47.9997H74.2536H67.0599V45.5706V43.1416H64.7243H62.3887V45.5706V47.9997H57.624H52.8594V50.4287V52.8577H59.9596H67.0599V55.1934V57.529H59.9596H52.8594V55.1934V52.8577H50.4303H48.0013V55.1934V57.529H45.5723H43.1432V55.1934V52.8577H40.8076H38.472V50.4287V47.9997H36.043H33.5953L33.6513 45.608L33.7074 43.235L38.4346 43.179L43.1432 43.1416V45.5706V47.9997H48.0013H52.8781L52.822 45.608L52.766 43.235L50.393 43.179L48.0013 43.1229V40.806V38.4891L45.6283 38.433L43.2367 38.3769L43.1806 33.6497L43.1432 28.9411H50.3369H57.5306V31.2767ZM28.9053 45.608L28.9614 47.9997H24.0846H19.2266V45.7014C19.2266 44.4309 19.2826 43.3284 19.3574 43.2537C19.4321 43.1976 21.5809 43.1603 24.1594 43.179L28.8493 43.235L28.9053 45.608ZM24.0846 55.1934V57.529H21.6556H19.2266V55.1934V52.8577H21.6556H24.0846V55.1934ZM81.4473 55.1934V57.529H76.6826H71.918V55.1934V52.8577H76.6826H81.4473V55.1934ZM43.1432 64.7227V67.0583H45.5723H48.0013V64.7227V62.387H52.766H57.5306V64.7227V67.0583H55.195H52.8594V69.4873V71.9163H50.4303H48.0013V74.3454V76.7931L45.6283 76.737L43.2367 76.681L43.1806 71.8603L43.1432 67.0583H40.8076H38.472V69.4873V71.9163H36.043H33.6139V67.1517V62.387H38.3786H43.1432V64.7227ZM76.7387 69.5247L76.6826 76.681L69.545 76.737L62.3887 76.7744V69.5807V62.387H69.5824H76.7761L76.7387 69.5247ZM24.0846 81.4456V90.9749H14.5553H5.02604V81.4456V71.9163H14.5553H24.0846V81.4456ZM81.4473 83.8747V86.3037H74.2536H67.0599V84.0055C67.0599 82.7349 67.116 81.6325 67.1907 81.5764C67.2468 81.5017 70.4979 81.4456 74.3844 81.4456H81.4473V83.8747Z" fill="#DCE5F1"/>
<path d="M9.69922 14.4604V19.2251H14.4639H19.2285V14.4604V9.6958H14.4639H9.69922V14.4604Z" fill="#DCE5F1"/>
<path d="M76.7773 14.4604V19.2251H81.542H86.3066V14.4604V9.6958H81.542H76.7773V14.4604Z" fill="#DCE5F1"/>
<path d="M28.9414 31.2767V33.6123H31.277H33.6126V31.2767V28.9411H31.277H28.9414V31.2767Z" fill="#DCE5F1"/>
<path d="M67.1894 67.1892C67.1146 67.2453 67.0586 68.3477 67.0586 69.6183V71.9165H69.4876H71.9167V69.4875V67.0584H69.6184C68.3479 67.0584 67.2454 67.1145 67.1894 67.1892Z" fill="#DCE5F1"/>
<path d="M9.69922 81.5391V86.3037H14.4639H19.2285V81.5391V76.7744H14.4639H9.69922V81.5391Z" fill="#DCE5F1"/>
<path d="M48 2.59574V5.04346L50.3917 4.9874L52.7646 4.93135L52.8207 2.53968L52.8768 0.166698H50.429H48V2.59574Z" fill="#DCE5F1"/>
<path d="M91.0525 57.7724C91.0151 57.9032 90.9965 58.9869 91.0151 60.1641L91.0712 62.2941L93.4629 62.3502L95.8358 62.4062V59.9585V57.5295H93.5002C91.7439 57.5295 91.1273 57.5855 91.0525 57.7724Z" fill="#DCE5F1"/>
<path d="M43.2753 91.1057C43.2006 91.1618 43.1445 92.2642 43.1445 93.5348V95.833H45.5736H48.0026V93.404V90.9749H45.7044C44.4338 90.9749 43.3314 91.031 43.2753 91.1057Z" fill="#DCE5F1"/>
<path d="M52.8594 93.404V95.833H57.624H62.4074L62.3513 93.4413L62.2952 91.0684L57.5867 91.0123L52.8594 90.9749V93.404Z" fill="#DCE5F1"/>
</svg>
