<svg width="288" height="172" viewBox="0 0 288 172" fill="none" xmlns="http://www.w3.org/2000/svg">
<g clip-path="url(#clip0_4698_48186)">
<path d="M-14.9234 85.8218C-14.9234 92.3285 -9.70348 97.603 -3.26442 97.603C3.17464 97.603 8.39453 92.3285 8.39453 85.8218" stroke="#FFB017" stroke-width="9" stroke-linecap="round" stroke-linejoin="round"/>
<path d="M43.6322 131.618C47.9599 147.83 38.5972 164.434 22.7201 168.704C6.8431 172.973 -9.53875 163.292 -13.8671 147.079C-18.1949 130.867 -8.83216 114.264 7.04489 109.994" stroke="#44AB96" stroke-width="9" stroke-linecap="round" stroke-linejoin="round"/>
<path d="M13.0603 59.6187C13.0603 66.4617 7.61142 72.0093 0.892057 72.0093C-5.8273 72.0093 -11.2736 66.4617 -11.2736 59.6187C-11.2736 52.7756 -5.8273 47.228 0.892057 47.228H41.6475" stroke="#44AB96" stroke-width="9" stroke-linecap="round" stroke-linejoin="round"/>
<path d="M146.31 175.44C146.31 168.598 151.759 163.05 158.478 163.05C165.198 163.05 170.644 168.598 170.644 175.44C170.644 182.283 165.198 187.831 158.478 187.831H117.724" stroke="#44AB96" stroke-width="9" stroke-linecap="round" stroke-linejoin="round"/>
<path d="M123.985 157.931C123.985 151.425 118.761 146.15 112.318 146.15C105.874 146.15 100.651 151.425 100.651 157.931C100.651 164.438 105.874 169.712 112.318 169.712H130.863" stroke="#FFB017" stroke-width="9" stroke-linecap="round" stroke-linejoin="round"/>
<path d="M15.592 128.04C9.15296 128.04 3.93307 133.231 3.93307 139.634C3.93307 146.036 9.15296 151.228 15.592 151.228C22.0311 151.228 27.251 146.036 27.251 139.634V64.0874" stroke="#E53855" stroke-width="9" stroke-linecap="round" stroke-linejoin="round"/>
<path d="M102.881 135.587C102.881 123.696 93.3825 114.056 81.6652 114.056H44.2831" stroke="#44AB96" stroke-width="9" stroke-linecap="round" stroke-linejoin="round"/>
<path d="M41.6474 64.4937V75.4127C41.6474 86.4339 50.5689 95.3687 61.5758 95.3687H77.1304" stroke="#4484AB" stroke-width="9" stroke-linecap="round" stroke-linejoin="round"/>
<path d="M120.015 118.931C120.015 119.569 120.015 127.592 120.015 131.525" stroke="#FFB017" stroke-width="9" stroke-linecap="round" stroke-linejoin="round"/>
<path d="M55.2726 2.13418C55.2726 -0.199255 57.1614 -2.09082 59.4901 -2.09082C61.8194 -2.09082 63.7075 -0.199255 63.7075 2.13418H55.2726ZM82.6905 73.4931C85.0199 73.4931 86.908 75.3846 86.908 77.7181C86.908 80.0514 85.0199 81.9431 82.6905 81.9431V73.4931ZM116.061 100.487C118.39 100.487 120.278 102.379 120.278 104.712C120.278 107.046 118.39 108.937 116.061 108.937V100.487ZM86.1008 84.3873C86.1008 82.0539 87.9889 80.1623 90.3183 80.1623C92.6476 80.1623 94.5357 82.0539 94.5357 84.3873H86.1008ZM63.7075 2.13418V31.0451H55.2726V2.13418H63.7075ZM63.7075 31.0451C63.7075 33.228 65.4964 35.0539 67.7764 35.0539V43.5039C60.9032 43.5039 55.2726 37.9601 55.2726 31.0451H63.7075ZM67.7764 35.0539C74.6508 35.0539 80.2795 40.6025 80.2795 47.5158H71.8446C71.8446 45.3306 70.0538 43.5039 67.7764 43.5039V35.0539ZM80.2795 47.5158V49.2242H71.8446V47.5158H80.2795ZM80.2795 49.2242C80.2795 56.1372 74.6508 61.6862 67.7764 61.6862V53.2362C70.0538 53.2362 71.8446 51.4093 71.8446 49.2242H80.2795ZM67.7764 61.6862C65.4983 61.6862 63.7075 63.513 63.7075 65.6982H55.2726C55.2726 58.7849 60.9013 53.2362 67.7764 53.2362V61.6862ZM63.7075 65.6982V67.5896H55.2726V65.6982H63.7075ZM63.7075 67.5896C63.7075 70.8194 66.3502 73.4931 69.6788 73.4931V81.9431C61.7532 81.9431 55.2726 75.5475 55.2726 67.5896H63.7075ZM69.6788 73.4931H74.957V81.9431H69.6788V73.4931ZM74.957 73.4931H82.6905V81.9431H74.957V73.4931ZM116.061 108.937H110.631V100.487H116.061V108.937ZM110.631 108.937C97.0882 108.937 86.1008 97.9509 86.1008 84.3873H94.5357C94.5357 93.2743 101.737 100.487 110.631 100.487V108.937Z" fill="#E53855"/>
<path fill-rule="evenodd" clip-rule="evenodd" d="M88.6885 144.112C88.6885 135.928 82.0613 129.291 73.8866 129.291C65.7125 129.291 59.0846 135.928 59.0846 144.112V154.891C59.0846 163.076 65.7125 169.713 73.8866 169.713C82.0613 169.713 88.6885 163.076 88.6885 154.891V144.112Z" stroke="#4484AB" stroke-width="9" stroke-linecap="round" stroke-linejoin="round"/>
</g>
<g clip-path="url(#clip1_4698_48186)">
<g clip-path="url(#clip2_4698_48186)">
<path fill-rule="evenodd" clip-rule="evenodd" d="M267.173 36.1286C270.364 32.3813 272.525 27.789 272.164 22.6432C271.124 7.81669 250.488 11.0784 246.474 18.5615C242.46 26.0446 242.937 45.0263 248.125 46.3637C250.194 46.8971 254.601 45.5905 259.087 42.8864L256.271 62.8087H272.896L267.173 36.1286Z" fill="white"/>
<path fill-rule="evenodd" clip-rule="evenodd" d="M239.109 8.18765C239.453 6.97735 240.379 5.94108 241.627 5.63365C241.93 5.55908 242.242 5.52896 242.554 5.54152C242.665 5.54598 242.697 5.57819 242.749 5.50007C242.788 5.44215 242.788 5.30065 242.804 5.23258C242.854 5.02093 242.916 4.81191 242.992 4.6083C243.254 3.91386 243.692 3.29927 244.221 2.78154C245.211 1.81298 246.548 1.14452 247.937 1.02358C248.697 0.957427 249.451 1.08095 250.17 1.32828C250.542 1.45631 250.903 1.61574 251.254 1.792C251.36 1.84505 251.703 2.10489 251.809 2.08806C251.927 2.0695 252.162 1.77803 252.258 1.70487C253.436 0.800502 254.892 0.444934 256.36 0.455808C258.017 0.468047 259.612 0.550853 260.994 1.5611C261.286 1.77498 261.565 2.00917 261.83 2.25572C261.97 2.38553 262.105 2.5202 262.234 2.66047C262.312 2.7451 262.388 2.83164 262.461 2.9205C262.585 3.07132 262.565 3.12087 262.738 3.01563C263.403 2.61152 264.174 2.42252 264.95 2.51793C265.411 2.57462 265.86 2.71302 266.285 2.8952C266.43 2.95721 266.766 3.20459 266.921 3.207C267.074 3.20937 267.405 2.98005 267.563 2.92177C268.416 2.60688 269.335 2.52926 270.231 2.67476C271.156 2.8249 272.064 3.1939 272.848 3.70379C273.225 3.94908 273.553 4.22084 273.817 4.58555C273.931 4.74302 274.035 4.90959 274.164 5.05559C274.24 5.14109 274.389 5.22881 274.43 5.337C274.406 5.27221 275.441 4.87292 275.539 4.84739C276.06 4.7114 276.59 4.73897 277.1 4.90677C278.058 5.2223 278.883 5.92989 279.56 6.65536C279.908 7.02799 280.213 7.43989 280.471 7.87872C280.595 8.08892 280.708 8.30513 280.812 8.52593C280.862 8.6329 280.896 8.76671 280.962 8.86307C281.047 8.98724 281.104 8.9896 281.259 9.04375C282.043 9.31865 282.759 9.78396 283.303 10.4127C283.854 11.0488 284.212 11.8322 284.361 12.6571C284.37 12.7057 284.376 12.9071 284.404 12.9334C284.443 12.9696 284.601 12.9536 284.66 12.9606C284.867 12.9848 285.072 13.0209 285.275 13.0688C285.648 13.1572 286.011 13.2872 286.355 13.4573C287.695 14.1203 288.653 15.3631 289.122 16.7617C289.614 18.2294 289.605 19.9108 289.017 21.3511C288.922 21.5838 288.809 21.8096 288.676 22.0232C288.595 22.1543 288.568 22.1546 288.621 22.2922C288.68 22.4453 288.788 22.594 288.858 22.7436C289.087 23.2316 289.246 23.7493 289.347 24.2779C289.513 25.1452 289.595 26.0566 289.432 26.9304C289.356 27.3362 289.224 27.7328 289.022 28.0942C288.919 28.2785 288.799 28.4532 288.663 28.6149C288.593 28.6988 288.518 28.779 288.439 28.8558C288.395 28.8997 288.336 28.9381 288.298 28.9871C288.205 29.1065 288.185 29.0083 288.233 29.1838C288.3 29.429 288.452 29.671 288.545 29.9097C288.641 30.1557 288.728 30.405 288.807 30.6568C288.968 31.1667 289.103 31.6857 289.188 32.2138C289.351 33.2275 289.323 34.3077 288.843 35.2381C288.638 35.636 288.344 35.9852 287.988 36.2567C287.813 36.3896 287.624 36.5041 287.426 36.5982C287.324 36.6466 287.193 36.6673 287.147 36.7659C287.097 36.8719 287.171 37.0824 287.188 37.201C287.336 38.232 287.41 39.3146 287.103 40.3251C286.821 41.2557 286.199 42.0774 285.393 42.6214C283.827 43.6768 281.717 43.6173 280.073 42.7724C279.644 42.5522 279.243 42.2787 278.885 41.9562C277.974 43.1828 276.099 43.144 274.768 42.7945C273.109 42.3591 271.778 41.2054 271.011 39.6895C269.962 40.9664 267.761 40.5521 267.034 39.1669C266.856 38.8279 266.75 38.4543 266.699 38.0762C266.671 37.8774 266.689 37.6768 266.668 37.4796C266.642 37.2283 266.474 36.984 266.378 36.7409C266.19 36.2677 266.073 35.7789 266.068 35.2685C266.065 35.002 266.099 34.7423 266.124 34.478C266.147 34.24 266.081 34.0183 266.044 33.7834C266.469 33.8535 266.987 33.7388 267.388 33.6154C267.782 33.4943 268.15 33.1754 268.428 32.8842C269.072 32.2079 269.466 31.3214 269.736 30.439C270.327 28.5024 270.084 26.179 268.137 25.1161C267.23 24.621 264.512 24.6226 263.431 24.8673C262.295 25.1246 261.007 27.6321 260.943 27.8678C260.904 28.0136 260.924 28.1942 260.79 28.2913C260.495 28.5051 260.01 28.1342 259.793 27.9512C259.418 27.6353 259.151 27.2149 258.919 26.7889C258.415 25.8607 258.008 24.8654 257.721 23.8493C257.499 23.0659 257.358 22.258 257.068 21.4946C256.78 20.735 256.326 20.056 255.62 19.6257C254.852 19.1576 253.972 18.911 253.128 18.6168C252.293 18.3253 251.471 17.9689 250.824 17.3503C250.681 17.2142 250.543 17.0697 250.428 16.9095C250.338 16.7831 250.248 16.541 250.11 16.4609C249.896 16.3362 249.583 16.6605 249.398 16.7782C248.483 17.3592 247.72 18.1696 247.104 19.0548C246.492 19.9352 245.99 20.7823 245.582 21.7654C245.279 22.4945 245.09 23.4283 244.558 24.0258C244.32 24.2926 242.554 24.454 241.981 24.2211C241.409 23.9881 240.768 23.3833 240.576 23.0043C240.379 22.6163 240.332 22.1901 240.416 21.7654C240.465 21.5155 240.566 21.2821 240.622 21.0367C240.668 20.8305 240.71 20.6357 240.811 20.4468C241.001 20.0889 241.326 19.8317 241.717 19.7241C241.31 19.3482 240.972 18.8984 240.738 18.3956C240.495 17.8733 240.289 17.2381 240.231 16.6649C240.183 16.1992 240.257 15.7168 240.512 15.3166C240.779 14.8969 241.253 14.623 241.662 14.3612C241.036 13.8713 240.501 13.2756 240.06 12.6161C239.204 11.3335 238.674 9.71676 239.109 8.18765Z" fill="#FFB017"/>
<path fill-rule="evenodd" clip-rule="evenodd" d="M278.43 120.328L245.124 208.472L221.779 273.439H208.468L240.558 120.328H278.43Z" fill="#1F28CF"/>
<path fill-rule="evenodd" clip-rule="evenodd" d="M286.662 120.328C287.024 150.572 286.762 191.291 287.605 193.176C288.168 194.433 305.659 208.753 340.08 236.136L333.219 247.805C292.354 221.448 270.876 206.513 268.787 203.002C265.653 197.734 249.909 149.262 241.717 120.328H286.662Z" fill="#2B44FF"/>
<path fill-rule="evenodd" clip-rule="evenodd" d="M218.86 92.8219L191.511 89.0907C186.04 86.0471 181.007 83.9866 176.411 82.9093C175.118 82.8715 173.061 83.3417 176.126 85.8968C179.19 88.452 182.3 91.2786 181.754 92.6423C181.208 94.0059 178.358 93.4986 177.886 95.596C177.571 96.9943 182.196 97.2215 191.761 96.2776L213.953 105.077L218.86 92.8219ZM304.775 99.1534L289.607 99.2104C306.239 136.646 314.912 156.246 315.624 158.012C317.227 161.985 313.835 168.036 312.385 171.287C317.109 173.402 316.605 165.571 322.565 168.344C328.004 170.876 332.142 175.462 338.427 171.583C339.199 171.106 340.046 169.311 338 167.908C332.904 164.413 325.559 158.295 324.567 156.282C323.214 153.536 316.616 134.493 304.775 99.1534Z" fill="white"/>
<path fill-rule="evenodd" clip-rule="evenodd" d="M263.228 51.0376L251.352 51.8289C248.427 78.2951 232.495 95.0123 196.825 89.3529L192.086 123.436C225.425 127.745 254.664 114.395 260.656 78.2502C262.207 68.8934 263.432 59.1558 263.228 51.0376Z" fill="#D53C4D"/>
<path fill-rule="evenodd" clip-rule="evenodd" d="M269.087 47.5848L251.093 51.7065C251.093 82.6608 241.234 102.41 236.178 125.169H284.774C285.459 133.033 285.879 141.116 286.098 149.417H322.486C314.24 105.537 296.837 71.5893 270.275 47.5737H269.096L269.087 47.5848Z" fill="#F64E60"/>
<path fill-rule="evenodd" clip-rule="evenodd" d="M277.107 81.0083C278.36 100.297 277.623 115.017 274.898 125.169H284.775C283.418 109.59 281.026 94.8699 277.107 81.0083Z" fill="black" fill-opacity="0.1"/>
</g>
</g>
<defs>
<clipPath id="clip0_4698_48186">
<rect width="279" height="117" rx="12" transform="matrix(-1 0 0 1 279 54.5)" fill="white"/>
</clipPath>
<clipPath id="clip1_4698_48186">
<path d="M174 0H288V160C288 166.627 282.627 172 276 172H174V0Z" fill="white"/>
</clipPath>
<clipPath id="clip2_4698_48186">
<rect width="130" height="172" fill="white" transform="translate(174)"/>
</clipPath>
</defs>
</svg>
