<svg width="43" height="33" viewBox="0 0 43 33" fill="none" xmlns="http://www.w3.org/2000/svg">
<path fill-rule="evenodd" clip-rule="evenodd" d="M14.0409 7.66738C5.63268 12.5281 1.14029 15.1627 1.07623 15.2828C0.860021 15.6832 1.02818 15.8434 2.5817 16.7402C3.39049 17.2047 4.04713 17.5971 4.04713 17.6211C4.04713 17.6451 3.43854 18.0055 2.70182 18.4219C1.2524 19.2467 1.00416 19.4389 1.00416 19.7271C1.00416 19.9994 1.22037 20.1676 2.64576 20.9844C3.35045 21.3848 3.95904 21.7451 3.99108 21.7771C4.03112 21.8172 3.41451 22.2176 2.62975 22.666C1.84498 23.1225 1.16432 23.5469 1.10826 23.6189C0.964122 23.8031 0.980138 24.0674 1.1483 24.2516C1.32447 24.4678 15.7706 32.7559 15.9628 32.7559C16.0909 32.7559 17.6364 31.875 23.346 28.5758C23.7324 28.355 24.4452 27.9428 25.2661 27.4682L25.2665 27.468L25.2671 27.4676C25.994 27.0473 26.8056 26.5781 27.5501 26.1494L28.666 25.5048L28.6823 25.4954C33.0532 22.9704 38.1218 20.0425 39.9622 18.9824C40.9712 18.3979 41.844 17.8613 41.9001 17.7893C42.0522 17.5891 42.0202 17.3088 41.82 17.1166C41.7239 17.0205 41.0432 16.5961 40.3065 16.1797C39.5698 15.7633 38.9612 15.4029 38.9612 15.3789C38.9612 15.3549 39.5698 14.9945 40.3065 14.5781C41.7559 13.7533 42.0042 13.5611 42.0042 13.2729C42.0042 13.0006 41.788 12.8324 40.3626 12.0156L40.3281 11.9957L40.3275 11.9953C39.6378 11.5956 39.0488 11.2542 39.0173 11.2148C38.9772 11.1828 39.6018 10.7824 40.3946 10.326C40.4597 10.2884 40.523 10.2519 40.5843 10.2166C41.4911 9.69407 41.9802 9.41223 41.9907 9.11356C42.003 8.7638 41.359 8.39095 39.9607 7.58147C39.8834 7.53672 39.8039 7.49064 39.7219 7.44316C32.4028 3.21504 27.1817 0.244137 27.0536 0.244137C26.9735 0.244137 21.1198 3.5834 14.0409 7.66738ZM33.6921 5.25703C37.2715 7.30703 40.2264 9.01269 40.2585 9.04472C40.2985 9.08476 31.4579 14.2498 30.8733 14.5301C30.7612 14.5781 30.537 14.49 29.9764 14.1777L29.9493 14.1622L29.9492 14.1622C29.1353 13.6971 29.1208 13.6888 29.2317 13.6492C29.2798 13.6332 30.521 12.9205 31.9944 12.0637C34.9092 10.382 35.0053 10.31 34.7971 9.8375C34.7331 9.68535 34.685 9.30898 34.677 8.95664C34.677 8.62031 34.645 8.30801 34.5969 8.25996C34.4928 8.15586 28.8153 4.88867 28.519 4.76855C28.3348 4.68847 28.2067 4.68847 27.8784 4.77656C27.2858 4.93672 26.5331 4.91269 25.8044 4.7205C25.3399 4.59238 25.1317 4.56836 25.0036 4.62441C24.8995 4.67246 23.5702 5.4332 22.0327 6.32207C20.5032 7.20293 19.2139 7.93164 19.1819 7.93164C19.1419 7.93164 18.7495 7.71543 18.293 7.45918L17.4762 6.97871L17.7885 6.79453C20.4071 5.23301 27.0135 1.46933 27.0856 1.49336C27.1417 1.50937 30.1126 3.19902 33.6921 5.25703ZM25.9485 5.88965C26.5171 6.02578 27.2698 6.04179 27.8223 5.92168L28.2147 5.8416L30.8493 7.35508L33.4758 8.86855L33.5239 9.34101C33.5479 9.59726 33.5479 9.8375 33.5159 9.87754C33.4919 9.90957 32.2426 10.6383 30.7532 11.4951L28.0465 13.0566L27.6381 12.8244C26.5571 12.2158 20.343 8.63633 20.319 8.62031C20.311 8.60429 21.2079 8.07578 22.321 7.43515C23.434 6.79453 24.5311 6.16191 24.7473 6.02578C25.2118 5.7455 25.2999 5.7375 25.9485 5.88965ZM23.1458 11.5191C26.7173 13.5611 29.7682 15.3228 29.9364 15.427L30.2327 15.6191L30.2167 19.4789L30.1926 23.3387L28.7913 24.1555C28.0225 24.6119 27.3419 24.9803 27.2938 24.9803C27.2137 24.9883 27.1897 24.1795 27.1897 21.2006C27.1897 18.2937 27.1657 17.3809 27.0936 17.2848C27.0376 17.2127 25.6362 16.3879 23.9866 15.435C15.5303 10.5902 13.4964 9.40508 13.4883 9.34101C13.4883 9.30097 14.129 8.90058 14.9137 8.44414C16.1149 7.75547 16.3631 7.64336 16.4993 7.71543C16.5874 7.75547 19.5823 9.46914 23.1458 11.5191ZM13.0239 10.4221C13.4163 10.6543 13.7526 10.8625 13.7686 10.8865C13.7926 10.9105 12.5594 11.6553 11.046 12.5281C9.52447 13.409 8.24323 14.1937 8.20319 14.2818C8.10709 14.45 8.13112 14.6021 8.3153 15.0906C8.40338 15.3228 8.41139 15.475 8.34733 15.7152C8.29928 15.9234 8.29928 16.0836 8.34733 16.2037C8.40338 16.3158 9.52447 17.0045 11.5505 18.1656L14.6655 19.9514L15.138 19.8232C15.7786 19.6631 16.3872 19.6711 17.1399 19.8633C17.4842 19.9514 17.8046 20.0234 17.8606 20.0234C17.9087 20.0234 18.7415 19.567 19.7104 19.0145C20.0352 18.8277 20.4021 18.6171 20.7706 18.4057L20.771 18.4055C21.4925 17.9914 22.22 17.5739 22.6493 17.3248L23.8424 16.6361L24.1708 16.8283C24.31 16.901 24.5636 17.0468 24.8002 17.1829C24.8766 17.2268 24.9512 17.2697 25.0196 17.3088L25.5321 17.6051L25.3399 17.7252C25.2557 17.7835 23.8286 18.6076 21.9503 19.6924L20.5592 20.4959L15.9628 23.1465L9.38834 19.3748C5.76881 17.3008 2.7819 15.5791 2.74986 15.5471C2.71783 15.523 3.25436 15.1707 3.95104 14.7783C4.26616 14.5951 4.8831 14.2392 5.6438 13.8003C6.54551 13.2801 7.64921 12.6434 8.69166 12.0396C10.6055 10.9266 12.2071 10.0137 12.2471 10.0137C12.2872 10.0137 12.6395 10.1978 13.0239 10.4221ZM21.8503 15.4969L21.8518 15.4978L21.8546 15.4994C22.3706 15.7965 22.6825 15.9761 22.6893 15.9795C22.7053 15.9955 21.6083 16.6441 20.2549 17.4209L17.7885 18.8463L17.1079 18.7102C16.3151 18.558 15.8667 18.55 15.2421 18.6621L14.7936 18.7502L12.2391 17.2928C10.8378 16.492 9.6526 15.7953 9.59655 15.7473C9.5485 15.6992 9.49244 15.451 9.47643 15.1947L9.4524 14.7303L12.2071 13.1367C13.7286 12.2639 14.9858 11.5592 15.0098 11.5672C15.0205 11.5743 15.3707 11.775 15.9404 12.1015L15.9428 12.1028C16.653 12.5098 17.7031 13.1116 18.8616 13.7773C20.0651 14.469 21.1464 15.0916 21.8503 15.4969ZM39.0893 12.5521C39.762 12.9445 40.2905 13.2809 40.2585 13.3129C40.1383 13.425 31.4339 18.4219 31.3538 18.4219C31.3057 18.4219 31.2737 17.9014 31.2737 17.0205V15.6191L31.578 15.427C31.7381 15.3228 33.0835 14.5381 34.5569 13.6973L34.8263 13.5421L34.8273 13.5415C36.1887 12.7573 37.3595 12.0828 37.4797 12.0076C37.6159 11.9275 37.752 11.8555 37.7921 11.8555C37.8321 11.8555 38.4087 12.1678 39.0893 12.5521ZM39.1053 16.7803C39.778 17.1646 40.3225 17.485 40.3065 17.501C40.3027 17.5029 40.1933 17.5664 39.9977 17.6798L39.9963 17.6806L39.9953 17.6812C39.3639 18.0475 37.8421 18.9303 36.0784 19.9434C33.7641 21.2727 31.7542 22.4338 31.618 22.5219L31.3538 22.682V21.2086V19.7432L32.0585 19.3428C32.4428 19.1266 33.8923 18.2857 35.2696 17.485C36.6549 16.6842 37.8081 16.0436 37.8321 16.0516C37.8494 16.0602 38.0241 16.1605 38.2875 16.3116L38.2881 16.312C38.5109 16.4399 38.7972 16.6042 39.1053 16.7803ZM10.5255 21.3047C13.4403 22.9783 15.8827 24.3477 15.9628 24.3477C16.0428 24.3477 17.6684 23.4428 19.5823 22.3377C20.1192 22.0277 20.682 21.7031 21.2319 21.386L21.2348 21.3844L21.2358 21.3838C22.6445 20.5715 23.968 19.8082 24.5551 19.4629L26.0526 18.6061L26.0846 20.0154C26.1087 20.7922 26.1006 21.4568 26.0686 21.4889C25.9805 21.585 16.0508 27.3105 15.9708 27.3105C15.9227 27.3105 13.3122 25.8291 10.1491 24.0113C6.99401 22.2016 4.03112 20.5039 3.56666 20.2396C3.26867 20.0701 3.00364 19.917 2.84772 19.827L2.84759 19.8269L2.84737 19.8268C2.76047 19.7766 2.70755 19.746 2.70182 19.7432C2.6858 19.7271 5.16822 18.2617 5.21627 18.2617C5.22428 18.2617 7.61061 19.6311 10.5255 21.3047ZM10.5255 25.5088C13.8567 27.4227 15.8346 28.5117 15.9708 28.5117C16.0989 28.5117 16.8356 28.1354 17.8206 27.5668C24.1467 23.9072 25.8844 22.9062 26.0126 22.8582C26.1407 22.8102 26.1487 22.9143 26.1487 24.2436V25.677L21.0557 28.6158L15.9628 31.5547L9.31627 27.743C3.77486 24.5559 2.69381 23.9072 2.82194 23.8432C2.88047 23.808 3.19145 23.6274 3.58597 23.3983L3.58758 23.3974L4.04713 23.1305C4.63971 22.7861 5.16822 22.5059 5.20826 22.5059C5.25631 22.5059 7.64264 23.8592 10.5255 25.5088ZM27.2215 8.51621C25.8682 9.30098 25.8281 9.33301 25.8281 9.60527C25.8281 9.93359 26.0363 10.1738 26.3246 10.1738C26.5889 10.1738 28.735 8.99668 28.9352 8.74844C29.1033 8.53223 29.0473 8.1959 28.823 8.01973C28.7029 7.92363 28.5508 7.85156 28.4787 7.85156C28.4066 7.85156 27.8461 8.15586 27.2215 8.51621ZM14.4007 15.9956C14.4487 15.9235 15.0893 15.5151 15.8181 15.0987C16.5468 14.6823 17.2034 14.338 17.2835 14.338C17.4757 14.338 17.82 14.6903 17.82 14.8905C17.82 14.9786 17.7399 15.1388 17.6438 15.2509C17.3796 15.5312 15.0573 16.8364 14.8171 16.8364C14.3927 16.8364 14.1444 16.3319 14.4007 15.9956Z" fill="#1E3EA3"/>
<path d="M1.07623 15.2828L1.17959 15.3379L1.17931 15.3385L1.07623 15.2828ZM14.0409 7.66738L13.9823 7.56597L13.9823 7.56591L14.0409 7.66738ZM2.5817 16.7402L2.52336 16.8418L2.52313 16.8417L2.5817 16.7402ZM2.70182 18.4219L2.64388 18.3201L2.64418 18.3199L2.70182 18.4219ZM2.64576 20.9844L2.58789 21.0862L2.58752 21.086L2.64576 20.9844ZM3.99108 21.7771L3.90824 21.86H3.90824L3.99108 21.7771ZM2.62975 22.666L2.57085 22.5648L2.57163 22.5643L2.62975 22.666ZM1.10826 23.6189L1.20073 23.6909L1.20051 23.6911L1.10826 23.6189ZM1.1483 24.2516L1.23495 24.1725L1.23912 24.1776L1.1483 24.2516ZM23.346 28.5758L23.2874 28.4744L23.2878 28.4741L23.346 28.5758ZM25.2661 27.4682L25.2074 27.3668L25.2076 27.3667L25.2661 27.4682ZM25.2665 27.468L25.325 27.5695L25.3249 27.5695L25.2665 27.468ZM25.2671 27.4676L25.3257 27.569L25.3256 27.5691L25.2671 27.4676ZM27.5501 26.1494L27.6087 26.2508L27.6085 26.2509L27.5501 26.1494ZM28.666 25.5048L28.7246 25.6062L28.7246 25.6062L28.666 25.5048ZM28.6823 25.4954L28.6237 25.3939L28.6237 25.3939L28.6823 25.4954ZM39.9622 18.9824L40.0209 19.0838L40.0206 19.0839L39.9622 18.9824ZM41.9001 17.7893L41.9933 17.8601L41.9925 17.8612L41.9001 17.7893ZM41.82 17.1166L41.7388 17.2011L41.7372 17.1994L41.82 17.1166ZM40.3065 16.1797L40.2489 16.2817L40.3065 16.1797ZM40.3065 14.5781L40.3644 14.6799L40.3641 14.6801L40.3065 14.5781ZM40.3626 12.0156L40.3043 12.1173L40.3038 12.117L40.3626 12.0156ZM40.3281 11.9957L40.2694 12.097L40.2689 12.0967L40.3281 11.9957ZM40.3275 11.9953L40.3863 11.894L40.3868 11.8943L40.3275 11.9953ZM39.0173 11.2148L39.0904 11.1234L39.1006 11.1315L39.1087 11.1417L39.0173 11.2148ZM40.3946 10.326L40.4532 10.4274L40.453 10.4275L40.3946 10.326ZM40.5843 10.2166L40.6428 10.3181L40.5843 10.2166ZM41.9907 9.11356L42.1077 9.11768L41.9907 9.11356ZM39.9607 7.58147L40.0194 7.48009H40.0194L39.9607 7.58147ZM39.7219 7.44316L39.7805 7.34173L39.7807 7.34181L39.7219 7.44316ZM40.2585 9.04472L40.3413 8.96189L40.3413 8.96189L40.2585 9.04472ZM33.6921 5.25703L33.6338 5.35868L33.6337 5.35858L33.6921 5.25703ZM30.8733 14.5301L30.924 14.6358L30.9195 14.6377L30.8733 14.5301ZM29.9764 14.1777L29.9194 14.2801L29.9183 14.2794L29.9764 14.1777ZM29.9493 14.1622L30.0048 14.059L30.0074 14.0605L29.9493 14.1622ZM29.9492 14.1622L29.8937 14.2654L29.8911 14.2639L29.9492 14.1622ZM29.2317 13.6492L29.1923 13.5389L29.1947 13.5381L29.2317 13.6492ZM31.9944 12.0637L31.9355 11.9624L31.9359 11.9622L31.9944 12.0637ZM34.7971 9.8375L34.6899 9.88474L34.6892 9.88295L34.7971 9.8375ZM34.677 8.95664L34.5599 8.9593V8.95664H34.677ZM34.5969 8.25996L34.5141 8.34279V8.34279L34.5969 8.25996ZM28.519 4.76855L28.475 4.87715L28.4723 4.87598L28.519 4.76855ZM27.8784 4.77656L27.8478 4.66348L27.848 4.66342L27.8784 4.77656ZM25.8044 4.7205L25.7745 4.83378L25.7732 4.83343L25.8044 4.7205ZM25.0036 4.62441L24.9545 4.51803L24.9566 4.51709L25.0036 4.62441ZM22.0327 6.32207L22.0913 6.42348L22.0911 6.42358L22.0327 6.32207ZM18.293 7.45918L18.2357 7.56134L18.2336 7.56015L18.293 7.45918ZM17.4762 6.97871L17.4168 7.07968L17.2454 6.97884L17.4167 6.87781L17.4762 6.97871ZM17.7885 6.79453L17.8485 6.89514L17.848 6.89543L17.7885 6.79453ZM27.0856 1.49336L27.0534 1.6061L27.0486 1.60449L27.0856 1.49336ZM27.8223 5.92168L27.7974 5.8072L27.7989 5.8069L27.8223 5.92168ZM25.9485 5.88965L25.9753 5.7756L25.9758 5.77572L25.9485 5.88965ZM28.2147 5.8416L28.1913 5.72682L28.2347 5.71797L28.2731 5.74002L28.2147 5.8416ZM30.8493 7.35508L30.9076 7.2535L30.9078 7.25358L30.8493 7.35508ZM33.4758 8.86855L33.5343 8.76706L33.5863 8.79701L33.5924 8.8567L33.4758 8.86855ZM33.5239 9.34101L33.6404 9.32916L33.6405 9.33008L33.5239 9.34101ZM33.5159 9.87754L33.4221 9.80721L33.4244 9.80436L33.5159 9.87754ZM30.7532 11.4951L30.6947 11.3936L30.6948 11.3936L30.7532 11.4951ZM28.0465 13.0566L28.1051 13.1581L28.047 13.1916L27.9886 13.1585L28.0465 13.0566ZM27.6381 12.8244L27.6956 12.7223L27.6961 12.7226L27.6381 12.8244ZM20.319 8.62031L20.254 8.71778L20.2281 8.70052L20.2142 8.67269L20.319 8.62031ZM24.7473 6.02578L24.6849 5.92663L24.6868 5.92548L24.7473 6.02578ZM29.9364 15.427L29.9981 15.3273L30.0001 15.3287L29.9364 15.427ZM23.1458 11.5191L23.0876 11.6208L23.0874 11.6207L23.1458 11.5191ZM30.2327 15.6191L30.2964 15.5209L30.3501 15.5557L30.3498 15.6196L30.2327 15.6191ZM30.2167 19.4789L30.3338 19.4794L30.3338 19.4796L30.2167 19.4789ZM30.1926 23.3387L30.3098 23.3394L30.3094 23.4062L30.2516 23.4399L30.1926 23.3387ZM28.7913 24.1555L28.7315 24.0547L28.7323 24.0543L28.7913 24.1555ZM27.2938 24.9803L27.2821 24.8631H27.2938V24.9803ZM27.0936 17.2848L27.1861 17.2128L27.1873 17.2145L27.0936 17.2848ZM23.9866 15.435L24.0448 15.3333L24.0452 15.3335L23.9866 15.435ZM13.4883 9.34101L13.3721 9.35554L13.3712 9.34831V9.34101H13.4883ZM14.9137 8.44414L14.8548 8.34287L14.8555 8.34251L14.9137 8.44414ZM16.4993 7.71543L16.4507 7.82226L16.4445 7.81896L16.4993 7.71543ZM13.7686 10.8865L13.6858 10.9694L13.6776 10.9612L13.6711 10.9515L13.7686 10.8865ZM13.0239 10.4221L13.0829 10.3209L13.0836 10.3213L13.0239 10.4221ZM11.046 12.5281L10.9873 12.4267L10.9874 12.4266L11.046 12.5281ZM8.20319 14.2818L8.31029 14.3305L8.30489 14.34L8.20319 14.2818ZM8.3153 15.0906L8.20577 15.1322L8.20569 15.132L8.3153 15.0906ZM8.34733 15.7152L8.23312 15.6889L8.23414 15.685L8.34733 15.7152ZM8.34733 16.2037L8.24219 16.2563L8.23856 16.2472L8.34733 16.2037ZM11.5505 18.1656L11.6087 18.064L11.6087 18.064L11.5505 18.1656ZM14.6655 19.9514L14.6962 20.0644L14.6493 20.0771L14.6072 20.053L14.6655 19.9514ZM15.138 19.8232L15.1073 19.7102L15.1095 19.7096L15.138 19.8232ZM17.1399 19.8633L17.1689 19.7498L17.1689 19.7498L17.1399 19.8633ZM19.7104 19.0145L19.7688 19.116L19.7684 19.1162L19.7104 19.0145ZM20.7706 18.4057L20.7123 18.3041L20.7123 18.3041L20.7706 18.4057ZM20.771 18.4055L20.8293 18.5071L20.8292 18.5071L20.771 18.4055ZM22.6493 17.3248L22.5905 17.2235L22.5907 17.2233L22.6493 17.3248ZM23.8424 16.6361L23.7839 16.5347L23.8429 16.5006L23.9016 16.535L23.8424 16.6361ZM24.1708 16.8283L24.1165 16.9323L24.1116 16.9294L24.1708 16.8283ZM24.8002 17.1829L24.7418 17.2844L24.8002 17.1829ZM25.0196 17.3088L25.0777 17.2071L25.0782 17.2074L25.0196 17.3088ZM25.5321 17.6051L25.5907 17.5037L25.7594 17.6012L25.5942 17.7044L25.5321 17.6051ZM25.3399 17.7252L25.2732 17.6288L25.2778 17.6259L25.3399 17.7252ZM21.9503 19.6924L21.8917 19.591L21.8917 19.591L21.9503 19.6924ZM20.5592 20.4959L20.6178 20.5973L20.6178 20.5974L20.5592 20.4959ZM15.9628 23.1465L16.0213 23.248L15.9629 23.2816L15.9045 23.2481L15.9628 23.1465ZM9.38834 19.3748L9.44658 19.2732L9.44663 19.2732L9.38834 19.3748ZM2.74986 15.5471L2.82015 15.4534L2.82681 15.4584L2.8327 15.4642L2.74986 15.5471ZM3.95104 14.7783L4.00992 14.8796L4.00852 14.8804L3.95104 14.7783ZM5.6438 13.8003L5.70234 13.9018L5.6438 13.8003ZM8.69166 12.0396L8.75056 12.1409L8.75037 12.141L8.69166 12.0396ZM21.8518 15.4978L21.9103 15.3963L21.9103 15.3963L21.8518 15.4978ZM21.8503 15.4969L21.7919 15.5985L21.7919 15.5984L21.8503 15.4969ZM21.8546 15.4994L21.7962 15.6009L21.7962 15.6009L21.8546 15.4994ZM22.6893 15.9795L22.7417 15.8747L22.7587 15.8832L22.7722 15.8967L22.6893 15.9795ZM20.2549 17.4209L20.1963 17.3195L20.1966 17.3193L20.2549 17.4209ZM17.7885 18.8463L17.8472 18.9477L17.8089 18.9698L17.7656 18.9612L17.7885 18.8463ZM17.1079 18.7102L17.13 18.5951L17.1308 18.5953L17.1079 18.7102ZM15.2421 18.6621L15.2195 18.5471L15.2214 18.5468L15.2421 18.6621ZM14.7936 18.7502L14.8162 18.8651L14.7734 18.8735L14.7356 18.8519L14.7936 18.7502ZM12.2391 17.2928L12.1811 17.3945L12.181 17.3945L12.2391 17.2928ZM9.59655 15.7473L9.52008 15.8365L9.51371 15.8301L9.59655 15.7473ZM9.47643 15.1947L9.35951 15.202L9.35944 15.2008L9.47643 15.1947ZM9.4524 14.7303L9.33542 14.7363L9.33172 14.6648L9.39375 14.6289L9.4524 14.7303ZM12.2071 13.1367L12.1484 13.0353L12.1488 13.0351L12.2071 13.1367ZM15.0098 11.5672L15.0469 11.4561L15.0618 11.461L15.0748 11.4697L15.0098 11.5672ZM15.9404 12.1015L15.9987 11.9998L15.9987 11.9998L15.9404 12.1015ZM15.9428 12.1028L15.8846 12.2045L15.8845 12.2044L15.9428 12.1028ZM18.8616 13.7773L18.92 13.6758L18.8616 13.7773ZM40.2585 13.3129L40.3413 13.3958L40.3384 13.3985L40.2585 13.3129ZM39.0893 12.5521L39.1469 12.4501L39.1483 12.451L39.0893 12.5521ZM31.2737 15.6191H31.1566V15.5546L31.2111 15.5201L31.2737 15.6191ZM31.578 15.427L31.6418 15.5252L31.6405 15.526L31.578 15.427ZM34.5569 13.6973L34.6154 13.7988L34.615 13.799L34.5569 13.6973ZM34.8263 13.5421L34.8849 13.6435L34.8848 13.6436L34.8263 13.5421ZM34.8273 13.5415L34.7687 13.44L34.7689 13.44L34.8273 13.5415ZM37.4797 12.0076L37.4176 11.9082L37.4204 11.9066L37.4797 12.0076ZM40.3065 17.501L40.3893 17.5838L40.3759 17.5973L40.3589 17.6058L40.3065 17.501ZM39.1053 16.7803L39.0472 16.882L39.1053 16.7803ZM39.9977 17.6798L40.0564 17.7812L40.0563 17.7812L39.9977 17.6798ZM39.9963 17.6806L39.9375 17.5793L39.9376 17.5792L39.9963 17.6806ZM39.9953 17.6812L40.0541 17.7825L40.0541 17.7825L39.9953 17.6812ZM36.0784 19.9434L36.02 19.8418L36.0784 19.9434ZM31.618 22.5219L31.6817 22.6203L31.6787 22.6221L31.618 22.5219ZM31.3538 22.682L31.4145 22.7822L31.2366 22.89V22.682H31.3538ZM31.3538 19.7432H31.2366V19.675L31.2959 19.6413L31.3538 19.7432ZM32.0585 19.3428L32.0006 19.2409L32.001 19.2407L32.0585 19.3428ZM35.2696 17.485L35.2107 17.3837L35.211 17.3835L35.2696 17.485ZM37.8321 16.0516L37.8691 15.9404L37.877 15.9431L37.8845 15.9468L37.8321 16.0516ZM38.2875 16.3116L38.3458 16.21L38.346 16.2102L38.2875 16.3116ZM38.2881 16.312L38.2298 16.4136L38.2295 16.4134L38.2881 16.312ZM10.5255 21.3047L10.5838 21.2031L10.5255 21.3047ZM19.5823 22.3377L19.5237 22.2362L19.5823 22.3377ZM21.2319 21.386L21.1734 21.2845L21.1735 21.2845L21.2319 21.386ZM21.2348 21.3844L21.1764 21.2828L21.1765 21.2828L21.2348 21.3844ZM21.2358 21.3838L21.2943 21.4853L21.2941 21.4854L21.2358 21.3838ZM24.5551 19.4629L24.4957 19.3619L24.497 19.3612L24.5551 19.4629ZM26.0526 18.6061L25.9944 18.5044L26.1652 18.4066L26.1697 18.6034L26.0526 18.6061ZM26.0846 20.0154L25.9675 20.019L25.9675 20.0181L26.0846 20.0154ZM26.0686 21.4889L25.9822 21.4096L25.9858 21.406L26.0686 21.4889ZM10.1491 24.0113L10.2074 23.9097L10.2075 23.9098L10.1491 24.0113ZM3.56666 20.2396L3.62459 20.1378L3.56666 20.2396ZM2.84772 19.827L2.90559 19.7251L2.9063 19.7255L2.84772 19.827ZM2.84759 19.8269L2.78972 19.9288L2.78938 19.9286L2.84759 19.8269ZM2.84737 19.8268L2.78916 19.9284L2.78878 19.9282L2.84737 19.8268ZM2.70182 19.7432L2.64944 19.8479L2.63243 19.8394L2.61898 19.826L2.70182 19.7432ZM10.5255 25.5088L10.5836 25.4071L10.5838 25.4072L10.5255 25.5088ZM17.8206 27.5668L17.8792 27.6682L17.8791 27.6683L17.8206 27.5668ZM26.0126 22.8582L26.0537 22.9679L26.0126 22.8582ZM26.1487 25.677H26.2658V25.7446L26.2072 25.7784L26.1487 25.677ZM21.0557 28.6158L21.1143 28.7173L21.0557 28.6158ZM15.9628 31.5547L16.0213 31.6561L15.9629 31.6898L15.9045 31.6563L15.9628 31.5547ZM9.31627 27.743L9.25799 27.8446L9.25787 27.8445L9.31627 27.743ZM2.82194 23.8432L2.88238 23.9439L2.87432 23.9479L2.82194 23.8432ZM3.58597 23.3983L3.52715 23.297L3.52716 23.297L3.58597 23.3983ZM3.58758 23.3974L3.64641 23.4987L3.64639 23.4987L3.58758 23.3974ZM4.04713 23.1305L4.10599 23.2318L4.10597 23.2318L4.04713 23.1305ZM27.2215 8.51621L27.1627 8.41487L27.1629 8.41474L27.2215 8.51621ZM28.9352 8.74844L29.0276 8.82037L29.0263 8.82197L28.9352 8.74844ZM28.823 8.01973L28.7507 8.11184L28.7499 8.1112L28.823 8.01973ZM14.4007 15.9956L14.4983 16.0607L14.4939 16.0666L14.4007 15.9956ZM17.6438 15.2509L17.7329 15.3272L17.7291 15.3312L17.6438 15.2509ZM0.972871 15.2277C0.982785 15.2091 0.99589 15.1962 1.00041 15.1917C1.00716 15.1851 1.01446 15.1789 1.02125 15.1733C1.03497 15.1622 1.05246 15.1493 1.07259 15.1351C1.11318 15.1065 1.17054 15.0686 1.2437 15.0218C1.39035 14.928 1.60493 14.7956 1.88593 14.6255C2.44816 14.2853 3.27902 13.7925 4.37019 13.1518C6.55267 11.8704 9.7781 9.99636 13.9823 7.56597L14.0995 7.7688C9.89546 10.1991 6.67059 12.0728 4.48882 13.3538C3.39786 13.9944 2.56809 14.4866 2.00723 14.826C1.72668 14.9958 1.5141 15.1269 1.36997 15.2191C1.29774 15.2654 1.24379 15.3011 1.20744 15.3267C1.18909 15.3396 1.17669 15.3489 1.16914 15.355C1.16529 15.3582 1.16411 15.3594 1.16454 15.3589C1.16479 15.3587 1.1663 15.3572 1.16842 15.3547C1.17016 15.3526 1.17487 15.3468 1.17959 15.3379L0.972871 15.2277ZM2.52313 16.8417C2.13469 16.6174 1.8309 16.4381 1.59764 16.2892C1.36552 16.141 1.19735 16.0192 1.08391 15.9096C0.970256 15.7997 0.899383 15.6905 0.885381 15.5665C0.871594 15.4444 0.916182 15.3327 0.973157 15.2271L1.17931 15.3385C1.12818 15.4332 1.11271 15.4916 1.11819 15.5402C1.12345 15.5868 1.15118 15.6488 1.24673 15.7411C1.34249 15.8337 1.49413 15.9451 1.72372 16.0917C1.95216 16.2376 2.25195 16.4146 2.64027 16.6388L2.52313 16.8417ZM3.92999 17.6211C3.92999 17.651 3.94159 17.672 3.94511 17.6781C3.94994 17.6865 3.95469 17.6922 3.95672 17.6945C3.96093 17.6994 3.96397 17.7018 3.96317 17.7011C3.96222 17.7003 3.95818 17.6971 3.94931 17.6908C3.93225 17.6786 3.90544 17.6608 3.86881 17.6373C3.79602 17.5908 3.68978 17.5257 3.55744 17.4463C3.29305 17.2876 2.92738 17.0738 2.52337 16.8418L2.64004 16.6386C3.04481 16.8711 3.41186 17.0857 3.67798 17.2454C3.8109 17.3251 3.91938 17.3916 3.99498 17.4399C4.03254 17.4639 4.06336 17.4843 4.08537 17.5C4.09602 17.5076 4.10689 17.5157 4.11595 17.5235C4.12016 17.5272 4.12698 17.5333 4.13372 17.541C4.13702 17.5448 4.14273 17.5518 4.1482 17.5613C4.15235 17.5685 4.16427 17.5904 4.16427 17.6211H3.92999ZM2.64418 18.3199C3.01208 18.1119 3.34762 17.9182 3.5909 17.7736C3.71269 17.7013 3.81056 17.6417 3.8776 17.599C3.91137 17.5775 3.93586 17.5612 3.95127 17.5501C3.95501 17.5474 3.95788 17.5453 3.96001 17.5437C3.96223 17.542 3.96307 17.5412 3.96295 17.5413C3.96285 17.5414 3.96218 17.542 3.96113 17.543C3.96017 17.544 3.95814 17.546 3.95563 17.549C3.95345 17.5516 3.9487 17.5575 3.94398 17.5661C3.94024 17.573 3.92999 17.5929 3.92999 17.6211H4.16427C4.16427 17.65 4.15373 17.6709 4.1494 17.6788C4.14408 17.6885 4.13845 17.6956 4.1351 17.6996C4.12831 17.7077 4.12144 17.714 4.11729 17.7176C4.10835 17.7254 4.09782 17.7333 4.08781 17.7405C4.06706 17.7554 4.03825 17.7744 4.00345 17.7966C3.93335 17.8412 3.83304 17.9023 3.71059 17.975C3.46539 18.1208 3.12828 18.3154 2.75946 18.5239L2.64418 18.3199ZM0.887019 19.7271C0.887019 19.6348 0.907838 19.5464 0.967053 19.4542C1.02358 19.3663 1.11207 19.2798 1.23802 19.1829C1.48902 18.9897 1.92126 18.7313 2.64388 18.3201L2.75976 18.5237C2.03297 18.9373 1.61637 19.1873 1.3809 19.3685C1.26361 19.4588 1.19945 19.526 1.16414 19.5809C1.13152 19.6317 1.1213 19.6753 1.1213 19.7271H0.887019ZM2.58752 21.086C1.87708 20.6789 1.45894 20.4285 1.21913 20.2445C1.09881 20.1522 1.01474 20.0703 0.961403 19.9865C0.905194 19.8982 0.887019 19.8141 0.887019 19.7271H1.1213C1.1213 19.7763 1.13016 19.8153 1.15903 19.8607C1.19078 19.9105 1.24984 19.9728 1.36175 20.0586C1.58639 20.231 1.98905 20.473 2.70401 20.8827L2.58752 21.086ZM3.90824 21.86C3.91447 21.8662 3.91842 21.8684 3.91101 21.8632C3.90631 21.8598 3.89913 21.855 3.88914 21.8485C3.8693 21.8356 3.84113 21.818 3.80518 21.7959C3.73343 21.7519 3.63299 21.6917 3.51113 21.6198C3.26752 21.476 2.93977 21.2862 2.58789 21.0862L2.70363 20.8825C3.05645 21.083 3.38533 21.2735 3.6302 21.418C3.75258 21.4902 3.85433 21.5512 3.92773 21.5962C3.96435 21.6187 3.99449 21.6376 4.01681 21.6521C4.0279 21.6593 4.03778 21.6659 4.04585 21.6716C4.05121 21.6753 4.06368 21.6841 4.07391 21.6943L3.90824 21.86ZM2.57163 22.5643C2.96275 22.3408 3.31101 22.1298 3.55575 21.9703C3.67856 21.8902 3.77314 21.8246 3.83365 21.7774C3.86474 21.7532 3.88254 21.7372 3.89049 21.7287C3.89548 21.7233 3.89064 21.7272 3.88534 21.7382C3.88287 21.7434 3.85469 21.8064 3.90824 21.86L4.07391 21.6943C4.13247 21.7529 4.10416 21.8237 4.09667 21.8394C4.08636 21.8609 4.07161 21.8779 4.06204 21.8882C4.04087 21.911 4.01094 21.9363 3.97759 21.9623C3.90922 22.0155 3.80811 22.0855 3.68368 22.1666C3.43394 22.3294 3.08151 22.5428 2.68787 22.7677L2.57163 22.5643ZM1.0158 23.547C1.03372 23.524 1.06307 23.5007 1.08665 23.4828C1.11452 23.4616 1.15069 23.436 1.19344 23.4069C1.27916 23.3487 1.39544 23.2737 1.53362 23.1873C1.81022 23.0143 2.17769 22.7934 2.57085 22.5648L2.68864 22.7673C2.29704 22.995 1.9318 23.2146 1.65786 23.3859C1.52077 23.4717 1.40732 23.5449 1.32513 23.6007C1.28393 23.6287 1.25159 23.6517 1.22844 23.6693C1.201 23.6901 1.19682 23.6959 1.20073 23.6909L1.0158 23.547ZM1.06179 24.3305C0.858488 24.1079 0.833586 23.7798 1.01601 23.5467L1.20051 23.6911C1.09466 23.8264 1.10179 24.0269 1.23481 24.1726L1.06179 24.3305ZM15.9628 32.873C15.942 32.873 15.9248 32.8674 15.9209 32.8662C15.9133 32.8639 15.9059 32.861 15.8995 32.8585C15.8865 32.8532 15.8708 32.8461 15.8535 32.8379C15.8186 32.8212 15.771 32.7972 15.7124 32.7666C15.5949 32.7052 15.429 32.6156 15.2219 32.502C14.8075 32.2746 14.2263 31.9498 13.5342 31.5595C12.1497 30.7789 10.3201 29.736 8.49122 28.6864C6.66228 27.6368 4.83372 26.5803 3.45127 25.7727C2.7601 25.3689 2.18013 25.0272 1.76729 24.7795C1.56096 24.6557 1.39584 24.5551 1.27928 24.4819C1.22111 24.4453 1.17422 24.4151 1.14005 24.392C1.12306 24.3805 1.10822 24.37 1.09632 24.361C1.08809 24.3548 1.07052 24.3415 1.05749 24.3256L1.23912 24.1776C1.23159 24.1683 1.22649 24.1658 1.23749 24.1741C1.24481 24.1796 1.25594 24.1875 1.27146 24.198C1.3023 24.2189 1.34655 24.2475 1.40391 24.2835C1.51841 24.3554 1.68191 24.4551 1.88782 24.5786C2.29948 24.8256 2.87852 25.1668 3.56945 25.5704C4.95119 26.3776 6.77919 27.4338 8.60783 28.4832C10.4365 29.5326 12.2655 30.5752 13.6492 31.3554C14.3412 31.7456 14.9214 32.0699 15.3346 32.2966C15.5413 32.41 15.7055 32.4987 15.8208 32.5589C15.8787 32.589 15.9232 32.6115 15.9542 32.6263C15.9699 32.6338 15.9807 32.6386 15.9873 32.6413C15.9908 32.6426 15.9915 32.6428 15.9904 32.6425C15.9899 32.6423 15.9876 32.6416 15.9842 32.6409C15.9817 32.6404 15.9736 32.6387 15.9628 32.6387V32.873ZM23.4046 28.6772C20.5499 30.3267 18.7357 31.372 17.6191 32.0049C17.0609 32.3213 16.6762 32.5352 16.4225 32.6701C16.2959 32.7374 16.2006 32.7859 16.132 32.8178C16.0979 32.8337 16.0686 32.8463 16.0445 32.8551C16.0255 32.8621 15.994 32.873 15.9628 32.873V32.6387C15.9475 32.6387 15.9431 32.6428 15.9637 32.6352C15.979 32.6296 16.0017 32.62 16.0332 32.6053C16.096 32.5762 16.187 32.53 16.3125 32.4633C16.5631 32.3299 16.9456 32.1174 17.5036 31.8011C18.6191 31.1688 20.4324 30.124 23.2874 28.4744L23.4046 28.6772ZM25.3247 27.5696C24.504 28.0441 23.7908 28.4565 23.4041 28.6775L23.2878 28.4741C23.6739 28.2535 24.3864 27.8415 25.2074 27.3668L25.3247 27.5696ZM25.3249 27.5695L25.3245 27.5697L25.2076 27.3667L25.208 27.3665L25.3249 27.5695ZM25.3256 27.5691L25.325 27.5695L25.208 27.3665L25.2086 27.3661L25.3256 27.5691ZM27.6085 26.2509C26.8641 26.6795 26.0527 27.1487 25.3257 27.569L25.2084 27.3662C25.9354 26.9459 26.747 26.4766 27.4916 26.0479L27.6085 26.2509ZM28.7246 25.6062L27.6087 26.2508L27.4915 26.048L28.6074 25.4033L28.7246 25.6062ZM28.7409 25.5968L28.7246 25.6062L28.6074 25.4034L28.6237 25.3939L28.7409 25.5968ZM40.0206 19.0839C38.1803 20.144 33.1119 23.0718 28.7409 25.5968L28.6237 25.3939C32.9946 22.869 38.0632 19.941 39.9037 18.8809L40.0206 19.0839ZM41.9925 17.8612C41.9805 17.8767 41.9649 17.89 41.9548 17.8984C41.9425 17.9086 41.9276 17.9199 41.911 17.932C41.8777 17.9562 41.8334 17.9865 41.78 18.0217C41.673 18.0922 41.526 18.185 41.3499 18.2934C40.9974 18.5103 40.5261 18.7911 40.0209 19.0838L39.9035 18.8811C40.4073 18.5892 40.8768 18.3094 41.2271 18.0939C41.4023 17.986 41.547 17.8947 41.651 17.8261C41.7031 17.7917 41.7441 17.7637 41.7732 17.7425C41.7878 17.7319 41.7984 17.7237 41.8055 17.7178C41.8148 17.7102 41.8127 17.7108 41.8076 17.7173L41.9925 17.8612ZM41.9011 17.0321C42.1382 17.2597 42.1863 17.6062 41.9933 17.8601L41.8068 17.7184C41.9181 17.5719 41.9022 17.3579 41.7389 17.2011L41.9011 17.0321ZM40.3641 16.0777C40.7338 16.2866 41.0895 16.4976 41.3652 16.6687C41.503 16.7542 41.6215 16.8301 41.712 16.8911C41.7984 16.9492 41.8692 17.0002 41.9028 17.0338L41.7372 17.1994C41.7227 17.185 41.6724 17.1468 41.5811 17.0854C41.494 17.0267 41.3782 16.9525 41.2417 16.8678C40.9689 16.6986 40.616 16.4892 40.2489 16.2817L40.3641 16.0777ZM39.0783 15.3789C39.0783 15.3507 39.0681 15.3308 39.0644 15.3239C39.0596 15.3153 39.0549 15.3094 39.0527 15.3068C39.0502 15.3038 39.0482 15.3018 39.0472 15.3008C39.0461 15.2998 39.0455 15.2992 39.0454 15.2992C39.0453 15.299 39.0461 15.2998 39.0483 15.3015C39.0504 15.3031 39.0533 15.3053 39.0571 15.3079C39.0725 15.319 39.097 15.3353 39.1307 15.3568C39.1978 15.3995 39.2956 15.4591 39.4174 15.5314C39.6607 15.676 39.9962 15.8698 40.3641 16.0777L40.2489 16.2817C39.8801 16.0732 39.5429 15.8786 39.2977 15.7329C39.1753 15.6601 39.075 15.5991 39.0049 15.5544C38.9701 15.5323 38.9413 15.5132 38.9205 15.4983C38.9105 15.4911 38.9 15.4832 38.891 15.4754C38.8869 15.4718 38.88 15.4655 38.8732 15.4574C38.8699 15.4534 38.8643 15.4463 38.8589 15.4366C38.8546 15.4287 38.8441 15.4078 38.8441 15.3789H39.0783ZM40.3641 14.6801C39.9962 14.888 39.6607 15.0818 39.4174 15.2264C39.2956 15.2987 39.1978 15.3583 39.1307 15.401C39.097 15.4225 39.0725 15.4388 39.0571 15.4499C39.0533 15.4526 39.0504 15.4547 39.0483 15.4563C39.0461 15.458 39.0453 15.4588 39.0454 15.4587C39.0455 15.4586 39.0461 15.458 39.0472 15.457C39.0482 15.456 39.0502 15.454 39.0527 15.451C39.0549 15.4484 39.0596 15.4425 39.0644 15.4339C39.0681 15.427 39.0783 15.4071 39.0783 15.3789H38.8441C38.8441 15.35 38.8546 15.3291 38.8589 15.3212C38.8643 15.3115 38.8699 15.3044 38.8732 15.3004C38.88 15.2923 38.8869 15.286 38.891 15.2824C38.9 15.2746 38.9105 15.2667 38.9205 15.2595C38.9413 15.2446 38.9701 15.2256 39.0049 15.2034C39.075 15.1588 39.1753 15.0977 39.2977 15.025C39.5429 14.8792 39.8801 14.6846 40.2489 14.4761L40.3641 14.6801ZM42.1213 13.2729C42.1213 13.3652 42.1005 13.4536 42.0413 13.5458C41.9847 13.6337 41.8963 13.7202 41.7703 13.8171C41.5193 14.0103 41.0871 14.2687 40.3644 14.6799L40.2486 14.4763C40.9754 14.0627 41.3919 13.8127 41.6274 13.6315C41.7447 13.5412 41.8089 13.474 41.8442 13.4191C41.8768 13.3683 41.887 13.3247 41.887 13.2729H42.1213ZM40.4208 11.914C41.1312 12.3211 41.5494 12.5715 41.7892 12.7555C41.9095 12.8478 41.9936 12.9297 42.0469 13.0135C42.1031 13.1018 42.1213 13.1859 42.1213 13.2729H41.887C41.887 13.2237 41.8782 13.1847 41.8493 13.1393C41.8175 13.0895 41.7585 13.0272 41.6466 12.9414C41.4219 12.769 41.0193 12.527 40.3043 12.1173L40.4208 11.914ZM40.3869 11.8943L40.4213 11.9143L40.3038 12.117L40.2694 12.097L40.3869 11.8943ZM40.3868 11.8943L40.3874 11.8946L40.2689 12.0967L40.2683 12.0964L40.3868 11.8943ZM39.1087 11.1417C39.1007 11.1316 39.0941 11.1275 39.1008 11.1327C39.1045 11.1355 39.1107 11.14 39.1201 11.1463C39.1386 11.1589 39.1654 11.1761 39.2001 11.1977C39.2694 11.2408 39.3666 11.2991 39.4851 11.3691C39.722 11.509 40.0413 11.694 40.3863 11.894L40.2688 12.0967C39.9241 11.8969 39.6039 11.7114 39.366 11.5708C39.2471 11.5006 39.148 11.4412 39.0764 11.3967C39.0408 11.3745 39.0109 11.3554 38.9886 11.3402C38.9774 11.3327 38.9671 11.3254 38.9583 11.3187C38.9527 11.3144 38.9377 11.303 38.9258 11.288L39.1087 11.1417ZM40.453 10.4275C40.0577 10.6551 39.7051 10.8683 39.457 11.028C39.3326 11.1082 39.2364 11.1737 39.1745 11.2202C39.1428 11.2441 39.1242 11.26 39.1156 11.2687C39.11 11.2743 39.1149 11.2706 39.1207 11.2598C39.1234 11.2548 39.1321 11.2377 39.1325 11.2129C39.1331 11.1817 39.1201 11.1471 39.0904 11.1234L38.9441 11.3063C38.9119 11.2806 38.8977 11.2433 38.8983 11.2086C38.8988 11.1804 38.9088 11.1592 38.9141 11.1494C38.925 11.129 38.9401 11.1129 38.9493 11.1036C38.9703 11.0825 39 11.0583 39.0336 11.033C39.1024 10.9813 39.2044 10.9121 39.3302 10.8311C39.5826 10.6685 39.9387 10.4533 40.3361 10.2245L40.453 10.4275ZM40.6428 10.3181C40.5814 10.3534 40.5183 10.3898 40.4532 10.4274L40.336 10.2245C40.4012 10.1869 40.4645 10.1504 40.5258 10.1151L40.6428 10.3181ZM42.1077 9.11768C42.104 9.22556 42.0568 9.32278 41.9854 9.41178C41.9145 9.5 41.8146 9.58662 41.6927 9.67572C41.4494 9.85349 41.0937 10.0583 40.6428 10.3181L40.5258 10.1151C40.9817 9.85237 41.3239 9.65498 41.5545 9.48654C41.6695 9.40253 41.7505 9.33003 41.8027 9.26509C41.8542 9.20091 41.8722 9.15089 41.8736 9.10944L42.1077 9.11768ZM40.0194 7.48009C40.7161 7.88345 41.2327 8.18236 41.5726 8.4245C41.7425 8.54555 41.8752 8.65716 41.9654 8.76554C42.056 8.87445 42.1122 8.99068 42.1077 9.11768L41.8736 9.10944C41.8753 9.06156 41.8557 9.00002 41.7853 8.91535C41.7144 8.83016 41.601 8.73238 41.4367 8.61532C41.1081 8.38122 40.6035 8.08897 39.902 7.68285L40.0194 7.48009ZM39.7807 7.34181C39.8626 7.38928 39.9421 7.43534 40.0194 7.48009L39.902 7.68285C39.8248 7.63811 39.7451 7.59201 39.6632 7.54451L39.7807 7.34181ZM27.0536 0.126995C27.0758 0.126995 27.0947 0.133335 27.0993 0.134819C27.108 0.137638 27.117 0.141125 27.1253 0.144588C27.1422 0.151611 27.1633 0.161339 27.1876 0.173103C27.2365 0.1968 27.3042 0.231541 27.3892 0.276485C27.5596 0.366528 27.8035 0.499542 28.1146 0.67194C28.737 1.01684 29.6308 1.52058 30.749 2.15627C32.9855 3.42769 36.1208 5.2276 39.7805 7.34173L39.6633 7.5446C36.0039 5.4306 32.8691 3.63099 30.6332 2.35994C29.5153 1.72438 28.6223 1.22114 28.001 0.876867C27.6903 0.704678 27.448 0.572559 27.2798 0.483616C27.1955 0.439068 27.1307 0.405849 27.0855 0.383965C27.0627 0.372936 27.0463 0.365467 27.0355 0.360989C27.0329 0.359917 27.0309 0.359123 27.0295 0.358559C27.0279 0.357979 27.0273 0.357769 27.0273 0.357792C27.0274 0.357815 27.0278 0.357944 27.0285 0.358135C27.0292 0.358326 27.0304 0.358646 27.032 0.359009C27.034 0.359463 27.0422 0.361279 27.0536 0.361279V0.126995ZM13.9823 7.56591C17.5219 5.52386 20.7552 3.66795 23.1137 2.32251C24.293 1.64981 25.2537 1.10464 25.9246 0.727585C26.2601 0.539093 26.5234 0.392433 26.7056 0.29282C26.7966 0.243069 26.8679 0.204723 26.918 0.17868C26.9429 0.165741 26.9636 0.155312 26.9793 0.147919C26.9869 0.144302 26.9948 0.140717 27.0021 0.137802C27.0057 0.136383 27.0107 0.134468 27.0164 0.132729C27.0186 0.132046 27.0341 0.126995 27.0536 0.126995V0.361279C27.0646 0.361279 27.073 0.359661 27.0763 0.358974C27.0803 0.358124 27.0834 0.357235 27.0849 0.356766C27.0879 0.355839 27.0896 0.355141 27.0891 0.355343C27.0883 0.355667 27.0853 0.356934 27.0793 0.35976C27.0677 0.365253 27.0501 0.374077 27.026 0.386589C26.9781 0.411457 26.9086 0.448841 26.818 0.498375C26.6371 0.597328 26.3746 0.743458 26.0394 0.931831C25.3691 1.30852 24.4089 1.8534 23.2298 2.52601C20.8717 3.87121 17.6388 5.72692 14.0994 7.76885L13.9823 7.56591ZM40.1756 9.12756C40.1843 9.13622 40.1928 9.14149 40.1887 9.13869C40.1883 9.13843 40.1869 9.13749 40.184 9.13566C40.1784 9.13209 40.1698 9.12677 40.1579 9.11954C40.1343 9.10516 40.0996 9.08448 40.0543 9.0577C39.9638 9.00419 39.832 8.92709 39.6634 8.8289C39.3261 8.63257 38.842 8.35239 38.247 8.00908C37.057 7.32249 35.4235 6.38363 33.6338 5.35868L33.7503 5.15538C35.5401 6.18042 37.1738 7.1194 38.3641 7.80615C38.9592 8.14951 39.4436 8.42987 39.7812 8.62643C39.95 8.72468 40.0823 8.8021 40.1735 8.85602C40.2191 8.88294 40.2547 8.90419 40.2796 8.91932C40.292 8.92684 40.3022 8.93316 40.3099 8.93806C40.3137 8.94045 40.3175 8.94295 40.321 8.94531C40.3227 8.94647 40.3249 8.94807 40.3274 8.94991C40.3286 8.95082 40.3348 8.95535 40.3413 8.96189L40.1756 9.12756ZM30.8227 14.4244C31.1093 14.287 33.4589 12.9297 35.741 11.5962C36.88 10.9306 37.9993 10.2726 38.8313 9.77856C39.2474 9.53151 39.5913 9.32564 39.8297 9.18038C39.9491 9.10767 40.0414 9.05054 40.103 9.01116C40.134 8.99131 40.1559 8.97679 40.1693 8.96738C40.1765 8.96232 40.1787 8.96049 40.1782 8.96096C40.1778 8.96124 40.1767 8.96217 40.1752 8.96363C40.1739 8.96487 40.1708 8.96794 40.1671 8.97246C40.1648 8.97525 40.1551 8.98704 40.1484 9.00537C40.1419 9.02334 40.1285 9.08046 40.1756 9.12756L40.3413 8.96189C40.3887 9.0093 40.3754 9.06689 40.3686 9.08548C40.3617 9.10444 40.3515 9.11701 40.3485 9.12073C40.3407 9.13026 40.3327 9.13712 40.3296 9.13968C40.3218 9.14632 40.3125 9.15309 40.3041 9.15899C40.2864 9.17149 40.2609 9.18828 40.2292 9.20853C40.1654 9.24934 40.0713 9.30756 39.9516 9.38047C39.712 9.52643 39.3672 9.73284 38.9509 9.98001C38.1183 10.4744 36.9985 11.1327 35.8592 11.7985C33.5849 13.1275 31.2219 14.4928 30.924 14.6357L30.8227 14.4244ZM30.0334 14.0754C30.3136 14.2315 30.5038 14.3281 30.6359 14.38C30.7761 14.4351 30.8188 14.426 30.8272 14.4224L30.9195 14.6377C30.8157 14.6822 30.6903 14.6531 30.5502 14.5981C30.402 14.5399 30.1998 14.4363 29.9194 14.2801L30.0334 14.0754ZM30.0074 14.0605L30.0346 14.076L29.9183 14.2794L29.8912 14.2639L30.0074 14.0605ZM30.0047 14.059L30.0048 14.0591L29.8937 14.2654L29.8937 14.2653L30.0047 14.059ZM29.2711 13.7595C29.2553 13.7652 29.2535 13.7664 29.2554 13.7653C29.257 13.7644 29.2653 13.7596 29.2744 13.7494C29.2846 13.7379 29.2962 13.7191 29.299 13.6937C29.3017 13.6692 29.2951 13.6503 29.2902 13.6404C29.2877 13.6354 29.2854 13.6319 29.284 13.63C29.2826 13.628 29.2816 13.627 29.2816 13.627C29.2816 13.627 29.2821 13.6275 29.2834 13.6288C29.2847 13.63 29.2866 13.6316 29.2892 13.6338C29.2944 13.6381 29.3017 13.6437 29.3116 13.6507C29.3969 13.7115 29.5963 13.8256 30.0073 14.0605L29.8911 14.2639C29.4882 14.0337 29.2734 13.9111 29.1757 13.8416C29.151 13.824 29.1273 13.8053 29.1092 13.7856C29.0953 13.7705 29.0594 13.7284 29.0662 13.6677C29.0735 13.6018 29.1236 13.5707 29.1392 13.5618C29.1584 13.5509 29.1804 13.5432 29.1923 13.5389L29.2711 13.7595ZM32.0533 12.1649C31.3164 12.5934 30.6376 12.9859 30.1368 13.2733C29.8865 13.417 29.6805 13.5346 29.534 13.6172C29.4608 13.6585 29.4021 13.6913 29.3601 13.7144C29.3391 13.7259 29.3218 13.7352 29.3087 13.742C29.3002 13.7464 29.2828 13.7557 29.2687 13.7603L29.1947 13.5381C29.1866 13.5408 29.1845 13.5426 29.2003 13.5343C29.2113 13.5286 29.227 13.5201 29.2475 13.5089C29.2883 13.4866 29.3459 13.4543 29.4189 13.4132C29.5646 13.3309 29.7701 13.2137 30.0202 13.0702C30.5205 12.783 31.1989 12.3907 31.9355 11.9624L32.0533 12.1649ZM34.9043 9.79026C34.9555 9.90632 35.0068 10.0341 34.9705 10.177C34.9351 10.3164 34.824 10.4428 34.6397 10.5889C34.2686 10.8831 33.5053 11.3272 32.0529 12.1651L31.9359 11.9622C33.3984 11.1184 34.1405 10.6857 34.4941 10.4053C34.6722 10.2642 34.7283 10.1789 34.7434 10.1193C34.7576 10.0633 34.7429 10.0049 34.6899 9.88474L34.9043 9.79026ZM34.7941 8.95398C34.798 9.12615 34.8118 9.30402 34.8322 9.45661C34.853 9.61271 34.8796 9.73142 34.9051 9.79204L34.6892 9.88295C34.6506 9.79142 34.6211 9.64588 34.5999 9.48767C34.5783 9.32595 34.564 9.13947 34.5599 8.9593L34.7941 8.95398ZM34.6798 8.17712C34.7029 8.20026 34.7158 8.22835 34.7231 8.24669C34.7314 8.26765 34.7381 8.29106 34.7437 8.31484C34.755 8.3626 34.7642 8.42185 34.7714 8.48726C34.786 8.61867 34.7942 8.78529 34.7942 8.95664H34.5599C34.5599 8.79166 34.552 8.63396 34.5386 8.51313C34.5318 8.45241 34.5239 8.40356 34.5157 8.36873C34.5116 8.35123 34.5079 8.33973 34.5053 8.3331C34.5016 8.32385 34.503 8.33167 34.5141 8.34279L34.6798 8.17712ZM28.563 4.65999C28.6082 4.67831 28.7373 4.74716 28.9174 4.84614C29.1018 4.94748 29.3487 5.08561 29.6366 5.2481C30.2125 5.57313 30.9536 5.9962 31.6884 6.41871C32.4233 6.84121 33.1523 7.26328 33.7042 7.5863C33.9801 7.74778 34.212 7.88467 34.3783 7.98454C34.4614 8.03443 34.5287 8.07537 34.577 8.10564C34.601 8.12072 34.6211 8.13357 34.6363 8.14377C34.647 8.15092 34.6666 8.16401 34.6798 8.17713L34.5141 8.34279C34.5207 8.3494 34.523 8.34981 34.506 8.33848C34.4937 8.3302 34.4759 8.31878 34.4526 8.30418C34.4062 8.2751 34.3404 8.23505 34.2577 8.18541C34.0925 8.08621 33.8615 7.94983 33.5858 7.7885C33.0346 7.46589 32.3062 7.04414 31.5717 6.62182C30.8371 6.1995 30.0967 5.77675 29.5215 5.45214C29.2338 5.28981 28.9878 5.15217 28.8045 5.05145C28.617 4.94835 28.5039 4.88882 28.475 4.87711L28.563 4.65999ZM27.848 4.66342C28.0138 4.61894 28.1399 4.59352 28.2515 4.59236C28.368 4.59115 28.4625 4.61626 28.5657 4.66113L28.4723 4.87598C28.3913 4.84076 28.3297 4.82584 28.254 4.82663C28.1734 4.82747 28.0713 4.8461 27.9087 4.8897L27.848 4.66342ZM25.8342 4.60723C26.5483 4.79557 27.2796 4.81704 27.8478 4.66348L27.9089 4.88964C27.292 5.05639 26.5178 5.02982 25.7745 4.83377L25.8342 4.60723ZM24.9566 4.51709C25.0484 4.47694 25.1568 4.47101 25.2917 4.48707C25.427 4.50318 25.6022 4.54322 25.8355 4.60758L25.7732 4.83343C25.5421 4.76967 25.3809 4.73363 25.264 4.71971C25.1467 4.70575 25.0869 4.71583 25.0505 4.73173L24.9566 4.51709ZM21.9741 6.22065C22.7429 5.77616 23.4598 5.36366 23.9975 5.05623C24.5308 4.75135 24.8963 4.54489 24.9545 4.51805L25.0527 4.73077C25.0067 4.75198 24.6555 4.94991 24.1138 5.25963C23.5765 5.56681 22.86 5.97911 22.0913 6.42348L21.9741 6.22065ZM19.1819 7.8145C19.17 7.8145 19.161 7.81638 19.1577 7.8171C19.1535 7.81802 19.1504 7.81898 19.1488 7.81949C19.147 7.82005 19.1458 7.82051 19.1451 7.82074C19.1445 7.82098 19.1441 7.82114 19.1441 7.82115C19.1441 7.82115 19.1447 7.82089 19.1462 7.82023C19.1475 7.8196 19.1494 7.81874 19.1517 7.81762C19.1614 7.81297 19.1762 7.80547 19.1965 7.79485C19.2367 7.77375 19.2949 7.7423 19.3693 7.70137C19.518 7.61961 19.7295 7.50125 19.9881 7.35518C20.5053 7.0631 21.2097 6.66088 21.9742 6.22056L22.0911 6.42358C21.3262 6.86412 20.6212 7.26668 20.1033 7.55917C19.8445 7.70539 19.6321 7.82426 19.4822 7.90666C19.4074 7.94781 19.3476 7.98017 19.3052 8.00237C19.2842 8.01339 19.2665 8.02241 19.253 8.02886C19.2465 8.03201 19.2395 8.03523 19.233 8.0379C19.2299 8.03918 19.2252 8.04102 19.2199 8.04273C19.2185 8.04315 19.2023 8.04878 19.1819 8.04878V7.8145ZM18.3504 7.35703C18.5786 7.48514 18.79 7.60279 18.9491 7.68832C19.0288 7.73116 19.0943 7.76537 19.1418 7.78865C19.1658 7.80038 19.1837 7.80861 19.1958 7.81365C19.202 7.81622 19.2051 7.81727 19.2058 7.8175C19.2101 7.81886 19.199 7.8145 19.1819 7.8145V8.04878C19.1598 8.04878 19.141 8.04273 19.1349 8.0408C19.1252 8.03773 19.1153 8.03389 19.106 8.03004C19.0873 8.02226 19.0644 8.01159 19.0388 7.99905C18.9872 7.97379 18.9186 7.93792 18.8382 7.89468C18.677 7.80804 18.4639 7.68946 18.2357 7.56132L18.3504 7.35703ZM17.5356 6.87774L18.3524 7.35821L18.2336 7.56015L17.4168 7.07968L17.5356 6.87774ZM17.848 6.89543L17.5357 7.07961L17.4167 6.87781L17.729 6.69363L17.848 6.89543ZM27.0486 1.60449C27.0677 1.61088 27.0837 1.61054 27.0897 1.61028C27.0972 1.60994 27.1029 1.60892 27.1058 1.60834C27.1115 1.60719 27.1151 1.60592 27.1151 1.60591C27.1157 1.60573 27.1135 1.60649 27.1072 1.60924C27.0953 1.61448 27.0767 1.62339 27.0507 1.63645C26.9992 1.66232 26.9244 1.70166 26.8283 1.75336C26.6365 1.85659 26.3629 2.0074 26.0278 2.19425C25.3579 2.56787 24.4438 3.08467 23.45 3.65113C21.4622 4.78416 19.1568 6.115 17.8485 6.89514L17.7285 6.69392C19.0389 5.91254 21.3459 4.58077 23.334 3.44759C24.3281 2.88095 25.2429 2.36375 25.9137 1.98963C26.2491 1.80262 26.5239 1.65113 26.7173 1.54704C26.8139 1.49507 26.891 1.45449 26.9455 1.42711C26.9725 1.41354 26.9954 1.40248 27.0129 1.39479C27.0213 1.39109 27.0308 1.38714 27.0398 1.38405C27.0441 1.38259 27.0513 1.38032 27.0597 1.37863C27.0639 1.37778 27.0708 1.3766 27.0793 1.37622C27.0862 1.37591 27.1029 1.37565 27.1227 1.38223L27.0486 1.60449ZM33.6337 5.35858C31.844 4.32965 30.2066 3.39281 29.0096 2.71124C28.4111 2.37045 27.9228 2.09353 27.5807 1.90085C27.4096 1.80449 27.2753 1.72931 27.1821 1.67778C27.1354 1.65198 27.0994 1.63231 27.0745 1.61894C27.0619 1.61222 27.0526 1.60738 27.0465 1.60426C27.0433 1.60266 27.0416 1.60186 27.0411 1.60159C27.0378 1.60009 27.0442 1.60336 27.0534 1.60599L27.1178 1.38072C27.1288 1.38386 27.1383 1.38844 27.1397 1.38906C27.1437 1.39092 27.148 1.39305 27.1522 1.39519C27.1608 1.39952 27.1718 1.40534 27.185 1.41237C27.2114 1.42651 27.2485 1.44679 27.2954 1.47275C27.3894 1.52473 27.5244 1.60026 27.6956 1.69671C28.0382 1.88966 28.5269 2.16678 29.1255 2.50765C30.3228 3.18941 31.9606 4.1264 33.7504 5.15547L33.6337 5.35858ZM27.8472 6.03615C27.2763 6.16026 26.5057 6.14351 25.9212 6.00357L25.9758 5.77572C26.5284 5.90805 27.2633 5.92332 27.7974 5.80721L27.8472 6.03615ZM28.2381 5.95638L27.8458 6.03645L27.7989 5.8069L28.1913 5.72682L28.2381 5.95638ZM30.7909 7.45665L28.1564 5.94317L28.2731 5.74002L30.9076 7.2535L30.7909 7.45665ZM33.4174 8.97005L30.7908 7.45657L30.9078 7.25358L33.5343 8.76706L33.4174 8.97005ZM33.4073 9.35287L33.3593 8.88041L33.5924 8.8567L33.6404 9.32916L33.4073 9.35287ZM33.4244 9.80436C33.4133 9.81821 33.4117 9.82866 33.4135 9.82224C33.4145 9.81862 33.4162 9.81091 33.4178 9.79793C33.4211 9.77217 33.4233 9.73546 33.4238 9.68915C33.4247 9.59713 33.419 9.4772 33.4073 9.35195L33.6405 9.33008C33.6528 9.46107 33.6591 9.58939 33.658 9.69156C33.6575 9.74235 33.6552 9.78921 33.6502 9.82777C33.6478 9.84694 33.6443 9.86657 33.6393 9.88476C33.635 9.90013 33.6264 9.92685 33.6074 9.95072L33.4244 9.80436ZM30.6948 11.3936C31.4394 10.9652 32.1238 10.569 32.6249 10.2759C32.8756 10.1293 33.0801 10.0087 33.2233 9.92284C33.295 9.87985 33.3508 9.84588 33.3892 9.82183C33.4085 9.80973 33.4226 9.80066 33.4318 9.79445C33.4365 9.79127 33.4389 9.78955 33.4396 9.78898C33.44 9.78866 33.439 9.7894 33.4373 9.79093C33.4371 9.79108 33.4297 9.79717 33.4222 9.80725L33.6096 9.94782C33.6013 9.9589 33.5926 9.96634 33.5905 9.96816C33.5868 9.97137 33.5832 9.97412 33.5805 9.97615C33.5751 9.98026 33.5689 9.98456 33.5628 9.98869C33.5503 9.99709 33.5336 10.0078 33.5136 10.0204C33.4732 10.0456 33.4158 10.0805 33.3438 10.1238C33.1995 10.2103 32.9941 10.3314 32.7432 10.4781C32.2414 10.7716 31.5565 11.1682 30.8116 11.5967L30.6948 11.3936ZM27.988 12.9552L30.6947 11.3936L30.8117 11.5966L28.1051 13.1581L27.988 12.9552ZM27.6961 12.7226L28.1045 12.9548L27.9886 13.1585L27.5802 12.9262L27.6961 12.7226ZM20.384 8.52284C20.3828 8.52205 20.4762 8.57617 20.6546 8.67913C20.8289 8.77971 21.0778 8.92321 21.3792 9.09687C21.982 9.4442 22.7948 9.91214 23.6406 10.3986C25.3325 11.3717 27.1557 12.4184 27.6956 12.7223L27.5807 12.9265C27.0396 12.6219 25.2152 11.5745 23.5238 10.6017C22.6779 10.1152 21.8651 9.64723 21.2623 9.29988C20.9608 9.1262 20.7119 8.98267 20.5375 8.88205C20.3673 8.78381 20.2612 8.72258 20.254 8.71778L20.384 8.52284ZM22.3794 7.53668C21.8231 7.85687 21.321 8.14891 20.9592 8.3628C20.7782 8.4698 20.6328 8.55696 20.5333 8.6182C20.4834 8.64894 20.4461 8.67254 20.4219 8.68862C20.4095 8.69689 20.4024 8.70194 20.3992 8.70436C20.3971 8.70602 20.3995 8.70432 20.4035 8.70034C20.4049 8.69897 20.4117 8.69226 20.4184 8.68159C20.4217 8.67634 20.4284 8.66488 20.4325 8.64865C20.4367 8.63211 20.4404 8.60118 20.4238 8.56793L20.2142 8.67269C20.1975 8.63919 20.2011 8.60795 20.2054 8.59103C20.2097 8.57443 20.2165 8.56253 20.2202 8.55678C20.2275 8.54511 20.2354 8.53716 20.2382 8.5343C20.2452 8.52734 20.2524 8.52168 20.2567 8.51843C20.2663 8.51104 20.2787 8.50247 20.2922 8.4935C20.3199 8.47511 20.36 8.44979 20.4105 8.41872C20.5117 8.35634 20.6586 8.26833 20.84 8.16112C21.2029 7.94659 21.7058 7.65406 22.2625 7.33363L22.3794 7.53668ZM24.8097 6.12491C24.5909 6.26267 23.4906 6.89715 22.3794 7.53668L22.2625 7.33363C23.3775 6.6919 24.4713 6.06115 24.6849 5.92665L24.8097 6.12491ZM25.9217 6.00369C25.5926 5.92648 25.4291 5.89662 25.2919 5.91197C25.1595 5.92677 25.0418 5.98492 24.8079 6.12607L24.6868 5.92548C24.9173 5.78636 25.0759 5.70037 25.2658 5.67914C25.4509 5.65845 25.6558 5.70067 25.9753 5.7756L25.9217 6.00369ZM29.8747 15.5266C29.7088 15.4239 26.6606 13.6637 23.0876 11.6208L23.2039 11.4174C26.7739 13.4586 29.8276 15.2218 29.9981 15.3274L29.8747 15.5266ZM30.1689 15.7174L29.8726 15.5252L30.0001 15.3287L30.2964 15.5209L30.1689 15.7174ZM30.0995 19.4784L30.1155 15.6187L30.3498 15.6196L30.3338 19.4794L30.0995 19.4784ZM30.0755 23.3379L30.0995 19.4782L30.3338 19.4796L30.3098 23.3394L30.0755 23.3379ZM28.7323 24.0543L30.1337 23.2375L30.2516 23.4399L28.8503 24.2567L28.7323 24.0543ZM27.2938 24.8631C27.2859 24.8631 27.2799 24.864 27.277 24.8645C27.2738 24.865 27.2715 24.8656 27.2705 24.8659C27.2687 24.8664 27.2684 24.8665 27.2705 24.8658C27.2745 24.8644 27.2817 24.8614 27.2929 24.8565C27.315 24.8467 27.3466 24.8315 27.3872 24.811C27.4681 24.7702 27.5804 24.7106 27.716 24.6363C27.987 24.4879 28.3481 24.2823 28.7315 24.0547L28.8511 24.2562C28.4657 24.485 28.1021 24.6919 27.8286 24.8418C27.6919 24.9166 27.577 24.9777 27.4927 25.0202C27.4508 25.0413 27.4152 25.0585 27.3879 25.0706C27.3744 25.0766 27.3614 25.0821 27.3497 25.0863C27.344 25.0883 27.3371 25.0906 27.3298 25.0925C27.3244 25.094 27.3106 25.0974 27.2938 25.0974V24.8631ZM27.3069 21.2006C27.3069 22.6903 27.3129 23.6356 27.3288 24.2073C27.3368 24.4938 27.3473 24.683 27.3602 24.799C27.3668 24.8582 27.3734 24.8918 27.3784 24.908C27.3812 24.9172 27.3809 24.912 27.3738 24.9024C27.3662 24.8922 27.3356 24.8584 27.2822 24.8637L27.3055 25.0968C27.242 25.1032 27.2018 25.064 27.1851 25.0413C27.1689 25.0193 27.1599 24.9947 27.1543 24.9766C27.1427 24.9386 27.1343 24.887 27.1273 24.825C27.1132 24.6985 27.1027 24.5008 27.0946 24.2138C27.0786 23.6383 27.0726 22.6898 27.0726 21.2006H27.3069ZM27.1873 17.2145C27.2031 17.2355 27.2122 17.2588 27.2179 17.2763C27.2242 17.2954 27.2292 17.3168 27.2335 17.3396C27.2422 17.3851 27.2494 17.4445 27.2558 17.5184C27.2685 17.6666 27.2783 17.8834 27.2858 18.1857C27.3009 18.791 27.3069 19.7473 27.3069 21.2006H27.0726C27.0726 19.7471 27.0666 18.7935 27.0516 18.1916C27.0441 17.8903 27.0344 17.6792 27.0223 17.5384C27.0163 17.4677 27.0098 17.4174 27.0033 17.3832C27.0001 17.3661 26.9973 17.3552 26.9952 17.349C26.9926 17.3411 26.9931 17.346 26.9999 17.355L27.1873 17.2145ZM24.0452 15.3335C24.8701 15.8101 25.6333 16.2548 26.1975 16.5894C26.4794 16.7567 26.7122 16.8968 26.8782 16.9998C26.9611 17.0512 27.0282 17.0938 27.0767 17.1262C27.1009 17.1424 27.1215 17.1567 27.1376 17.1686C27.1488 17.177 27.1711 17.1936 27.1861 17.2128L27.0012 17.3567C27.0091 17.3669 27.0139 17.3686 26.9977 17.3565C26.9862 17.348 26.9694 17.3363 26.9466 17.3211C26.9014 17.2909 26.8369 17.2498 26.7547 17.1989C26.5907 17.0971 26.3595 16.958 26.0779 16.7909C25.5149 16.4569 24.7526 16.0128 23.928 15.5364L24.0452 15.3335ZM13.6046 9.32648C13.6009 9.29726 13.587 9.2787 13.585 9.27603C13.5809 9.2703 13.5775 9.26706 13.5773 9.26686C13.5767 9.26623 13.5788 9.26832 13.5861 9.27392C13.6 9.28465 13.6236 9.30116 13.6593 9.32471C13.7303 9.37141 13.8418 9.44093 14.0035 9.53868C14.3265 9.73392 14.845 10.039 15.6282 10.4939C17.1944 11.4036 19.8167 12.9109 24.0448 15.3333L23.9284 15.5366C19.7003 13.1143 17.0774 11.6066 15.5105 10.6965C14.7272 10.2416 14.2072 9.93557 13.8823 9.73918C13.7201 9.64111 13.6053 9.56968 13.5305 9.52038C13.4933 9.49593 13.4641 9.47568 13.4432 9.45964C13.4331 9.45186 13.4224 9.44308 13.413 9.43391C13.4085 9.42943 13.4018 9.42251 13.3954 9.41367C13.3912 9.40787 13.376 9.38677 13.3721 9.35554L13.6046 9.32648ZM14.9726 8.5454C14.581 8.7732 14.2258 8.9867 13.969 9.14793C13.8404 9.22869 13.7377 9.29561 13.6676 9.34434C13.6322 9.36893 13.6072 9.38752 13.5918 9.40017C13.5838 9.40678 13.5811 9.40954 13.5814 9.4092C13.5815 9.40918 13.5849 9.40556 13.5891 9.39903C13.591 9.396 13.6055 9.37409 13.6055 9.34101H13.3712C13.3712 9.30544 13.3869 9.28031 13.3913 9.2734C13.398 9.26297 13.4051 9.25478 13.41 9.24952C13.4201 9.23868 13.432 9.22829 13.443 9.21924C13.4657 9.20054 13.4969 9.17771 13.5338 9.152C13.6084 9.10014 13.7148 9.03093 13.8445 8.94952C14.1042 8.78644 14.4617 8.57152 14.8548 8.34288L14.9726 8.5454ZM16.4445 7.81896C16.4394 7.81627 16.4265 7.80955 16.384 7.81729C16.3375 7.82575 16.2669 7.84955 16.1547 7.90099C15.9313 8.00343 15.5738 8.2007 14.972 8.54576L14.8555 8.34251C15.4548 7.9989 15.8221 7.79578 16.0571 7.68802C16.1741 7.63435 16.2661 7.6006 16.342 7.58679C16.4219 7.57225 16.4911 7.57855 16.5541 7.6119L16.4445 7.81896ZM23.0874 11.6207C21.3057 10.5957 19.6661 9.65484 18.4611 8.96522C17.8585 8.6204 17.3646 8.33844 17.0159 8.1402C16.8416 8.04107 16.7036 7.96295 16.6066 7.90839C16.558 7.8811 16.5199 7.85982 16.4927 7.84479C16.4791 7.83726 16.4684 7.83145 16.4607 7.8273C16.4516 7.82244 16.4494 7.82145 16.4508 7.82207L16.5478 7.60878C16.5647 7.61651 16.6279 7.65158 16.7214 7.70417C16.8189 7.759 16.9573 7.83734 17.1317 7.93653C17.4807 8.13493 17.9748 8.41702 18.5774 8.76188C19.7827 9.4516 21.4224 10.3926 23.2042 11.4176L23.0874 11.6207ZM13.6711 10.9515C13.6805 10.9655 13.6905 10.9729 13.6864 10.9694C13.6858 10.9689 13.6835 10.9671 13.6788 10.9636C13.6694 10.9568 13.6552 10.9469 13.6358 10.934C13.5974 10.9085 13.5427 10.8736 13.4755 10.8318C13.3413 10.7484 13.1599 10.6387 12.9642 10.5229L13.0836 10.3213C13.2802 10.4376 13.4632 10.5482 13.5993 10.6329C13.6672 10.6752 13.7242 10.7114 13.7655 10.7389C13.786 10.7526 13.8038 10.7647 13.8175 10.7748C13.8242 10.7797 13.8312 10.7851 13.8375 10.7904C13.8402 10.7927 13.8547 10.8045 13.8661 10.8215L13.6711 10.9515ZM10.9874 12.4266C11.7437 11.9905 12.4297 11.5865 12.9233 11.2887C13.1703 11.1397 13.3685 11.0177 13.5031 10.9317C13.5707 10.8885 13.6208 10.8553 13.6529 10.8326C13.6694 10.8209 13.6784 10.8139 13.682 10.8107C13.6848 10.8083 13.6806 10.8115 13.675 10.8187C13.673 10.8212 13.6635 10.8332 13.6574 10.8521C13.6509 10.8722 13.642 10.9256 13.6858 10.9694L13.8514 10.8037C13.896 10.8482 13.8873 10.9027 13.8803 10.9243C13.8737 10.9446 13.8632 10.9584 13.8595 10.9631C13.8505 10.9745 13.8406 10.9833 13.8352 10.9879C13.8227 10.9988 13.8062 11.0111 13.7883 11.0237C13.7516 11.0498 13.6976 11.0855 13.6292 11.1291C13.4921 11.2168 13.2919 11.34 13.0444 11.4893C12.5491 11.7881 11.8617 12.1929 11.1045 12.6296L10.9874 12.4266ZM8.09654 14.2334C8.10515 14.2144 8.11695 14.2005 8.12304 14.1937C8.13051 14.1853 8.13869 14.1774 8.14646 14.1704C8.16207 14.1563 8.1817 14.1406 8.20381 14.1239C8.24837 14.0902 8.30986 14.0474 8.3853 13.9971C8.53658 13.8962 8.74944 13.7614 9.00763 13.6025C9.5243 13.2845 10.2259 12.8675 10.9873 12.4267L11.1047 12.6295C10.3445 13.0696 9.64476 13.4854 9.13043 13.802C8.87312 13.9604 8.66307 14.0934 8.5153 14.192C8.44122 14.2414 8.38416 14.2812 8.34504 14.3108C8.32532 14.3257 8.31183 14.3367 8.30353 14.3442C8.29934 14.348 8.29787 14.3496 8.29805 14.3494C8.29819 14.3493 8.29942 14.3479 8.3012 14.3454C8.30278 14.3432 8.30633 14.338 8.30983 14.3303L8.09654 14.2334ZM8.20569 15.132C8.11406 14.889 8.05724 14.7173 8.03815 14.5825C8.01766 14.4379 8.03995 14.3314 8.10148 14.2237L8.30489 14.34C8.27033 14.4004 8.25659 14.4541 8.27012 14.5497C8.28507 14.6552 8.33235 14.8038 8.42491 15.0493L8.20569 15.132ZM8.23414 15.685C8.26426 15.5721 8.27555 15.4868 8.27138 15.406C8.26721 15.325 8.24721 15.2414 8.20577 15.1322L8.42482 15.0491C8.47147 15.1721 8.49952 15.2806 8.50535 15.3939C8.51119 15.5072 8.49446 15.6181 8.46051 15.7454L8.23414 15.685ZM8.23856 16.2472C8.17755 16.0947 8.18294 15.9066 8.23318 15.6889L8.46147 15.7416C8.41562 15.9402 8.42101 16.0725 8.45609 16.1602L8.23856 16.2472ZM11.4922 18.2673C10.4788 17.6865 9.69092 17.2234 9.14895 16.8912C8.87814 16.7252 8.66758 16.5911 8.52064 16.4911C8.44735 16.4412 8.3883 16.3987 8.34499 16.3642C8.32343 16.347 8.30419 16.3306 8.28852 16.3154C8.27539 16.3026 8.25541 16.2818 8.24255 16.2561L8.4521 16.1513C8.44625 16.1396 8.4416 16.1374 8.45204 16.1476C8.45993 16.1553 8.47251 16.1663 8.49092 16.1809C8.52757 16.2101 8.58113 16.2489 8.65248 16.2974C8.79482 16.3943 9.00167 16.5261 9.27139 16.6914C9.81047 17.0218 10.5961 17.4836 11.6087 18.064L11.4922 18.2673ZM14.6072 20.053L11.4922 18.2673L11.6087 18.064L14.7238 19.8497L14.6072 20.053ZM15.1686 19.9363L14.6962 20.0644L14.6348 19.8383L15.1073 19.7102L15.1686 19.9363ZM17.1109 19.9768C16.3745 19.7887 15.7857 19.782 15.1664 19.9369L15.1095 19.7096C15.7714 19.5441 16.3999 19.5534 17.1689 19.7498L17.1109 19.9768ZM17.8606 20.1406C17.8335 20.1406 17.7916 20.1335 17.7511 20.1259C17.706 20.1175 17.6486 20.1054 17.5829 20.0907C17.4513 20.0614 17.2839 20.021 17.1109 19.9768L17.1689 19.7498C17.3402 19.7936 17.5052 19.8334 17.6339 19.8621C17.6983 19.8764 17.7529 19.8879 17.7944 19.8957C17.8152 19.8996 17.8319 19.9024 17.8445 19.9042C17.8588 19.9063 17.8627 19.9063 17.8606 19.9063V20.1406ZM19.7684 19.1162C19.2836 19.3927 18.8325 19.6453 18.4963 19.8289C18.3284 19.9207 18.1885 19.9956 18.0872 20.0477C18.0368 20.0736 17.9948 20.0945 17.9634 20.109C17.9478 20.1162 17.9334 20.1226 17.921 20.1274C17.9149 20.1298 17.9077 20.1324 17.9002 20.1346C17.8957 20.1359 17.8799 20.1406 17.8606 20.1406V19.9063C17.8509 19.9063 17.8437 19.9076 17.8409 19.9081C17.8376 19.9088 17.8353 19.9094 17.8345 19.9097C17.8331 19.9101 17.8335 19.9101 17.8363 19.9089C17.8419 19.9068 17.8512 19.9028 17.8649 19.8965C17.892 19.8839 17.9306 19.8648 17.9801 19.8393C18.0788 19.7885 18.2167 19.7148 18.384 19.6233C18.7185 19.4406 19.1683 19.1887 19.6524 18.9127L19.7684 19.1162ZM20.8289 18.5073C20.4604 18.7187 20.0936 18.9293 19.7688 19.116L19.652 18.9129C19.9769 18.7261 20.3438 18.5155 20.7123 18.3041L20.8289 18.5073ZM20.8292 18.5071L20.8288 18.5073L20.7123 18.3041L20.7127 18.3038L20.8292 18.5071ZM22.7081 17.4261C22.2785 17.6754 21.5507 18.0931 20.8293 18.5071L20.7127 18.3039C21.4343 17.8897 22.1615 17.4724 22.5905 17.2235L22.7081 17.4261ZM23.901 16.7376L22.7078 17.4263L22.5907 17.2233L23.7839 16.5347L23.901 16.7376ZM24.1116 16.9294L23.7833 16.7372L23.9016 16.535L24.2299 16.7272L24.1116 16.9294ZM24.7418 17.2844C24.504 17.1477 24.2531 17.0034 24.1166 16.9322L24.225 16.7245C24.3669 16.7985 24.6232 16.946 24.8586 17.0813L24.7418 17.2844ZM24.9615 17.4105C24.8929 17.3713 24.8182 17.3283 24.7418 17.2844L24.8586 17.0813C24.935 17.1253 25.0095 17.1681 25.0777 17.2071L24.9615 17.4105ZM25.4735 17.7065L24.961 17.4102L25.0782 17.2074L25.5907 17.5037L25.4735 17.7065ZM25.2778 17.6259L25.47 17.5057L25.5942 17.7044L25.402 17.8245L25.2778 17.6259ZM21.8917 19.591C22.8309 19.0486 23.6572 18.5714 24.2591 18.2225C24.5602 18.0481 24.805 17.9058 24.9797 17.8035C25.0671 17.7524 25.1368 17.7113 25.1872 17.6813C25.2124 17.6663 25.2325 17.6542 25.2475 17.6451C25.255 17.6405 25.261 17.6368 25.2655 17.6339C25.2678 17.6324 25.2696 17.6313 25.271 17.6304C25.2717 17.6299 25.2722 17.6296 25.2726 17.6293C25.2728 17.6292 25.273 17.6291 25.2731 17.629C25.2731 17.6289 25.2731 17.629 25.2732 17.6289C25.2732 17.6289 25.2732 17.6289 25.2732 17.6289L25.4066 17.8215C25.3593 17.8542 24.9744 18.0788 24.3766 18.4252C23.7745 18.7742 22.948 19.2515 22.0089 19.7938L21.8917 19.591ZM20.5007 20.3945L21.8917 19.591L22.0089 19.7938L20.6178 20.5973L20.5007 20.3945ZM15.9042 23.045L20.5007 20.3944L20.6178 20.5974L16.0213 23.248L15.9042 23.045ZM9.44663 19.2732L16.021 23.0449L15.9045 23.2481L9.33005 19.4764L9.44663 19.2732ZM2.8327 15.4642C2.82397 15.4555 2.81539 15.4502 2.81956 15.4531C2.81997 15.4533 2.82139 15.4543 2.8243 15.4561C2.82997 15.4597 2.83866 15.4651 2.85069 15.4724C2.8746 15.4869 2.90961 15.5078 2.9554 15.5348C3.04687 15.5888 3.18004 15.6666 3.35052 15.7657C3.69142 15.9639 4.18075 16.2469 4.7823 16.5937C5.98536 17.2873 7.63687 18.2362 9.44658 19.2732L9.3301 19.4764C7.52028 18.4394 5.86857 17.4904 4.66528 16.7967C4.06365 16.4498 3.57403 16.1667 3.23276 15.9683C3.06216 15.8691 2.92845 15.7909 2.8363 15.7365C2.79028 15.7094 2.7543 15.688 2.72917 15.6727C2.71668 15.6651 2.70634 15.6588 2.69861 15.6538C2.69482 15.6514 2.69095 15.6489 2.68748 15.6466C2.68578 15.6454 2.68349 15.6438 2.68102 15.642C2.67983 15.6411 2.67363 15.6365 2.66703 15.6299L2.8327 15.4642ZM4.00852 14.8804C3.66181 15.0757 3.35557 15.2606 3.14069 15.3993C3.03291 15.4688 2.94977 15.5256 2.89638 15.5657C2.86895 15.5863 2.85294 15.5998 2.84568 15.6069C2.84079 15.6117 2.84564 15.608 2.85151 15.598C2.85398 15.5938 2.86362 15.577 2.86537 15.5521C2.86766 15.5195 2.85527 15.4797 2.82015 15.4534L2.67958 15.6408C2.64246 15.6129 2.62918 15.571 2.63166 15.5357C2.6336 15.508 2.64452 15.4878 2.64934 15.4796C2.65988 15.4616 2.67366 15.4475 2.68174 15.4395C2.7004 15.4213 2.7265 15.4003 2.75575 15.3783C2.81572 15.3333 2.90425 15.273 3.01368 15.2024C3.23322 15.0608 3.54358 14.8734 3.89355 14.6763L4.00852 14.8804ZM5.70234 13.9018C4.94153 14.3407 4.32482 14.6965 4.00992 14.8796L3.89216 14.677C4.2075 14.4937 4.82468 14.1377 5.58526 13.6989L5.70234 13.9018ZM8.75037 12.141C7.70782 12.7448 6.60403 13.3816 5.70234 13.9018L5.58526 13.6989C6.48698 13.1787 7.5906 12.542 8.63295 11.9383L8.75037 12.141ZM12.2471 10.1308C12.259 10.1308 12.268 10.1289 12.2712 10.1282C12.2753 10.1273 12.2784 10.1264 12.2798 10.1259C12.2827 10.125 12.2843 10.1243 12.2836 10.1246C12.2824 10.1251 12.279 10.1266 12.2726 10.1297C12.2601 10.1357 12.2414 10.1453 12.2161 10.1586C12.1658 10.1852 12.0933 10.2248 12.0006 10.2761C11.8156 10.3788 11.5523 10.5274 11.2301 10.711C10.5858 11.0782 9.70729 11.5845 8.75056 12.1409L8.63277 11.9384C9.58991 11.3817 10.4691 10.875 11.1141 10.5075C11.4365 10.3237 11.7007 10.1746 11.887 10.0713C11.9801 10.0197 12.0542 9.97919 12.1066 9.95149C12.1327 9.93772 12.1544 9.9266 12.1707 9.91872C12.1786 9.91487 12.1867 9.9111 12.1941 9.90806C12.1977 9.90658 12.2027 9.90459 12.2084 9.90277C12.21 9.90225 12.2265 9.89653 12.2471 9.89653V10.1308ZM12.9649 10.5233C12.7739 10.4119 12.5913 10.3106 12.4519 10.2375C12.3821 10.2009 12.3242 10.1718 12.2819 10.1522C12.2607 10.1423 12.2448 10.1354 12.2341 10.1313C12.2316 10.1304 12.2296 10.1296 12.2281 10.1291C12.2273 10.1289 12.2268 10.1287 12.2264 10.1285C12.226 10.1284 12.2258 10.1284 12.2258 10.1284C12.2258 10.1284 12.2261 10.1285 12.2267 10.1286C12.2273 10.1287 12.2283 10.129 12.2297 10.1293C12.2318 10.1296 12.2382 10.1308 12.2471 10.1308V9.89653C12.267 9.89653 12.284 9.90131 12.2907 9.90322C12.3 9.90593 12.3095 9.90931 12.3183 9.9127C12.3361 9.91954 12.3574 9.92886 12.3807 9.93973C12.4278 9.96163 12.4895 9.99263 12.5608 10.0301C12.7038 10.1051 12.8895 10.2081 13.0829 10.3209L12.9649 10.5233ZM21.7934 15.5993L21.7919 15.5985L21.9087 15.3954L21.9103 15.3963L21.7934 15.5993ZM21.7962 15.6009L21.7934 15.5993L21.9103 15.3963L21.9131 15.3979L21.7962 15.6009ZM22.6369 16.0843C22.6261 16.0788 22.3082 15.8958 21.7962 15.6009L21.9131 15.3979C22.1711 15.5464 22.378 15.6656 22.5213 15.748C22.6683 15.8326 22.7424 15.8751 22.7417 15.8747L22.6369 16.0843ZM20.1966 17.3193C20.873 16.9311 21.4851 16.575 21.926 16.3141C22.1465 16.1836 22.3237 16.0772 22.4445 16.0026C22.5051 15.9651 22.5504 15.9363 22.5797 15.9168C22.5948 15.9067 22.6036 15.9004 22.6076 15.8973C22.6104 15.8951 22.6075 15.8971 22.603 15.9018C22.6017 15.9031 22.5929 15.9121 22.5853 15.9266C22.5827 15.9318 22.5467 16.0026 22.6065 16.0623L22.7722 15.8967C22.8324 15.9569 22.7964 16.0285 22.7932 16.0348C22.785 16.0504 22.7751 16.0608 22.7722 16.0638C22.7644 16.072 22.7561 16.0786 22.7514 16.0823C22.7404 16.0908 22.726 16.1008 22.7099 16.1116C22.677 16.1336 22.6287 16.1641 22.5676 16.2019C22.4449 16.2777 22.2662 16.385 22.0453 16.5157C21.6033 16.7773 20.9902 17.1339 20.3133 17.5225L20.1966 17.3193ZM17.7299 18.7449L20.1963 17.3195L20.3136 17.5223L17.8472 18.9477L17.7299 18.7449ZM17.1308 18.5953L17.8115 18.7314L17.7656 18.9612L17.0849 18.825L17.1308 18.5953ZM15.2214 18.5468C15.8628 18.4317 16.326 18.4408 17.13 18.5951L17.0858 18.8252C16.3042 18.6752 15.8705 18.6683 15.2627 18.7774L15.2214 18.5468ZM14.771 18.6352L15.2195 18.5472L15.2646 18.7771L14.8162 18.8651L14.771 18.6352ZM12.2972 17.191L14.8517 18.6484L14.7356 18.8519L12.1811 17.3945L12.2972 17.191ZM9.67278 15.6583C9.66954 15.6555 9.67084 15.657 9.68431 15.6658C9.69529 15.673 9.71069 15.6828 9.73061 15.6952C9.77033 15.7199 9.82608 15.7538 9.89632 15.796C10.0367 15.8802 10.2335 15.9966 10.4726 16.1367C10.9506 16.4167 11.5969 16.7909 12.2972 17.1911L12.181 17.3945C11.48 16.9939 10.833 16.6193 10.3541 16.3388C10.1147 16.1986 9.91714 16.0817 9.77573 15.9968C9.70509 15.9544 9.6481 15.9198 9.60681 15.8941C9.58622 15.8813 9.56904 15.8704 9.55582 15.8617C9.54508 15.8547 9.53056 15.845 9.52031 15.8362L9.67278 15.6583ZM9.59334 15.1874C9.601 15.31 9.61825 15.4301 9.63888 15.5239C9.64923 15.5709 9.65998 15.6093 9.66997 15.637C9.68204 15.6705 9.68749 15.6725 9.67938 15.6644L9.51371 15.8301C9.48158 15.798 9.462 15.7509 9.44955 15.7164C9.43502 15.6761 9.42174 15.6273 9.41007 15.5742C9.38666 15.4678 9.36787 15.3357 9.35951 15.202L9.59334 15.1874ZM9.56939 14.7242L9.59341 15.1887L9.35944 15.2008L9.33542 14.7363L9.56939 14.7242ZM12.2657 13.2381L9.51106 14.8317L9.39375 14.6289L12.1484 13.0353L12.2657 13.2381ZM14.9728 11.6783C14.9941 11.6854 15.0118 11.6844 15.0174 11.684C15.025 11.6834 15.0309 11.6822 15.0337 11.6816C15.0394 11.6803 15.0433 11.6789 15.0436 11.6787C15.0449 11.6783 15.0439 11.6786 15.0394 11.6806C15.031 11.6844 15.0175 11.691 14.9981 11.7009C14.9598 11.7204 14.9038 11.7501 14.8315 11.7893C14.6872 11.8675 14.4808 11.9818 14.2273 12.1238C13.7202 12.4079 13.0259 12.802 12.2654 13.2383L12.1488 13.0351C12.9098 12.5986 13.6048 12.204 14.1128 11.9194C14.3667 11.7772 14.5742 11.6623 14.7199 11.5833C14.7927 11.5439 14.8507 11.5131 14.8917 11.4922C14.912 11.4818 14.9294 11.4733 14.9428 11.4672C14.9492 11.4643 14.9568 11.461 14.9644 11.4583C14.9679 11.457 14.9742 11.4548 14.9819 11.4531C14.9857 11.4522 14.9924 11.4509 15.0007 11.4503C15.0069 11.4498 15.0252 11.4488 15.0469 11.4561L14.9728 11.6783ZM15.8822 12.2031C15.5974 12.0399 15.3673 11.9081 15.2072 11.8162C15.0511 11.7266 14.9545 11.6711 14.9449 11.6647L15.0748 11.4697C15.0733 11.4687 15.0914 11.4794 15.1381 11.5063C15.1813 11.5311 15.2438 11.567 15.3238 11.613C15.4839 11.7048 15.7138 11.8366 15.9987 11.9998L15.8822 12.2031ZM15.8845 12.2044L15.8821 12.2031L15.9987 11.9998L16.0011 12.0012L15.8845 12.2044ZM18.8032 13.8789C17.6448 13.2132 16.5947 12.6114 15.8846 12.2045L16.001 12.0012C16.7112 12.4081 17.7614 13.01 18.92 13.6758L18.8032 13.8789ZM21.7919 15.5984C21.088 15.1931 20.0067 14.5705 18.8032 13.8789L18.92 13.6758C20.1235 14.3675 21.2049 14.9901 21.9088 15.3954L21.7919 15.5984ZM40.1756 13.2301C40.1177 13.288 40.1533 13.3559 40.1544 13.358C40.1601 13.3689 40.1654 13.3732 40.1611 13.3689C40.1548 13.3623 40.1398 13.3493 40.1131 13.329C40.0611 13.2896 39.98 13.2342 39.8746 13.166C39.6645 13.0303 39.3659 12.8491 39.0303 12.6533L39.1483 12.451C39.4854 12.6476 39.7874 12.8308 40.0017 12.9693C40.1085 13.0382 40.1955 13.0975 40.2547 13.1424C40.2835 13.1642 40.3099 13.1858 40.3289 13.2053C40.3374 13.214 40.3513 13.2292 40.3616 13.2488C40.3673 13.2595 40.4033 13.3337 40.3413 13.3957L40.1756 13.2301ZM31.3538 18.3047C31.3386 18.3047 31.3272 18.3078 31.3252 18.3084C31.3212 18.3095 31.3183 18.3105 31.3173 18.3108C31.3152 18.3116 31.3145 18.3119 31.3161 18.3112C31.319 18.3099 31.3246 18.3073 31.3334 18.3029C31.3508 18.2941 31.3764 18.2807 31.4102 18.2625C31.4776 18.2263 31.5747 18.1729 31.6975 18.1046C31.943 17.968 32.2897 17.7725 32.7042 17.5375C33.5332 17.0674 34.6323 16.4394 35.7328 15.8078C36.8333 15.1763 37.9349 14.5412 38.7689 14.0572C39.1859 13.8151 39.5358 13.6109 39.7851 13.4637C39.9098 13.3901 40.009 13.331 40.0787 13.2886C40.1136 13.2674 40.1407 13.2507 40.1596 13.2386C40.1692 13.2325 40.176 13.228 40.1805 13.2249C40.1876 13.2202 40.1842 13.222 40.1785 13.2273L40.3384 13.3985C40.329 13.4073 40.3177 13.415 40.3127 13.4184C40.3052 13.4235 40.296 13.4295 40.2855 13.4362C40.2645 13.4496 40.2358 13.4673 40.2004 13.4889C40.1294 13.532 40.0291 13.5917 39.9042 13.6655C39.6541 13.8131 39.3037 14.0176 38.8865 14.2598C38.0521 14.7441 36.9501 15.3793 35.8494 16.011C34.7487 16.6427 33.6492 17.2709 32.8198 17.7413C32.4051 17.9764 32.0578 18.1722 31.8114 18.3093C31.6883 18.3778 31.5901 18.4319 31.5211 18.4689C31.4867 18.4874 31.4589 18.502 31.4386 18.5122C31.4287 18.5172 31.4193 18.5218 31.4114 18.5253C31.4076 18.527 31.4026 18.5291 31.3971 18.5311C31.3945 18.5321 31.3902 18.5335 31.385 18.5349C31.3818 18.5357 31.3696 18.539 31.3538 18.539V18.3047ZM31.3908 17.0205C31.3908 17.46 31.3988 17.8077 31.4127 18.0447C31.4196 18.1637 31.4279 18.2518 31.4367 18.3087C31.4413 18.3381 31.4453 18.3537 31.4473 18.3598C31.4486 18.3635 31.4471 18.3572 31.4403 18.3478C31.4358 18.3414 31.4082 18.3047 31.3538 18.3047V18.539C31.2934 18.539 31.2599 18.4983 31.2496 18.4839C31.2371 18.4663 31.2299 18.448 31.2257 18.4358C31.2169 18.4099 31.2104 18.378 31.2052 18.3448C31.1946 18.2766 31.1858 18.1795 31.1788 18.0583C31.1646 17.8148 31.1566 17.4619 31.1566 17.0205H31.3908ZM31.3908 15.6191V17.0205H31.1566V15.6191H31.3908ZM31.6405 15.526L31.3363 15.7182L31.2111 15.5201L31.5154 15.3279L31.6405 15.526ZM34.615 13.799C33.1396 14.6409 31.7984 15.4234 31.6418 15.5252L31.5142 15.3287C31.6779 15.2223 33.0273 14.4353 34.4988 13.5955L34.615 13.799ZM34.8848 13.6436L34.6154 13.7988L34.4984 13.5958L34.7678 13.4406L34.8848 13.6436ZM34.8859 13.6429L34.8849 13.6435L34.7677 13.4406L34.7687 13.44L34.8859 13.6429ZM37.5418 12.107C37.4192 12.1836 36.245 12.86 34.8858 13.643L34.7689 13.44C36.1323 12.6545 37.2998 11.9819 37.4177 11.9083L37.5418 12.107ZM37.7921 11.9726C37.8066 11.9726 37.8093 11.9688 37.7881 11.9771C37.7723 11.9833 37.7508 11.993 37.7243 12.0063C37.6716 12.0326 37.6061 12.0692 37.5391 12.1086L37.4204 11.9066C37.4895 11.866 37.5601 11.8265 37.6195 11.7967C37.6491 11.782 37.6777 11.7687 37.7029 11.7589C37.7228 11.7511 37.7575 11.7383 37.7921 11.7383V11.9726ZM39.0317 12.6542C38.6918 12.4622 38.3782 12.2884 38.1449 12.1628C38.0281 12.0999 37.9322 12.0495 37.8634 12.015C37.8288 11.9976 37.8023 11.9849 37.7838 11.9767C37.7745 11.9725 37.7688 11.9703 37.7659 11.9692C37.7645 11.9687 37.7652 11.969 37.7675 11.9696C37.7678 11.9697 37.7778 11.9726 37.7921 11.9726V11.7383C37.8088 11.7383 37.8223 11.7418 37.8272 11.7431C37.8341 11.7449 37.8404 11.747 37.8456 11.7489C37.8559 11.7526 37.8673 11.7574 37.8789 11.7626C37.9023 11.773 37.9327 11.7876 37.9685 11.8056C38.0403 11.8416 38.1385 11.8933 38.256 11.9565C38.4912 12.0832 38.8062 12.2577 39.1469 12.4501L39.0317 12.6542ZM40.2237 17.4181C40.1971 17.4447 40.1884 17.4785 40.1899 17.5064C40.1912 17.5299 40.1993 17.5468 40.2031 17.5538C40.2106 17.568 40.2192 17.5763 40.2196 17.5767C40.2227 17.5798 40.223 17.5796 40.2166 17.5748C40.2055 17.5664 40.1858 17.5529 40.1566 17.5341C40.0991 17.497 40.013 17.4443 39.9042 17.3794C39.6869 17.2498 39.3834 17.0741 39.0472 16.882L39.1635 16.6786C39.5 16.8709 39.805 17.0475 40.0242 17.1781C40.1335 17.2434 40.2226 17.2978 40.2837 17.3372C40.3139 17.3567 40.3394 17.3739 40.3575 17.3876C40.3658 17.3938 40.3769 17.4025 40.3865 17.4122C40.3902 17.416 40.401 17.4271 40.4097 17.4434C40.414 17.4515 40.4225 17.4693 40.4238 17.4936C40.4254 17.5223 40.4164 17.5568 40.3893 17.5838L40.2237 17.4181ZM39.9389 17.5785C40.1304 17.4674 40.246 17.4003 40.2541 17.3962L40.3589 17.6058C40.3594 17.6055 40.2561 17.6653 40.0564 17.7812L39.9389 17.5785ZM39.9376 17.5792L39.939 17.5784L40.0563 17.7812L40.0549 17.782L39.9376 17.5792ZM39.9365 17.5799L39.9375 17.5793L40.0551 17.7819L40.0541 17.7825L39.9365 17.5799ZM36.02 19.8418C37.7835 18.8289 39.3052 17.9461 39.9365 17.5799L40.0541 17.7825C39.4227 18.1488 37.9007 19.0317 36.1367 20.0449L36.02 19.8418ZM31.5544 22.4235C31.694 22.3332 33.7087 21.1694 36.02 19.8418L36.1367 20.0449C33.8196 21.3759 31.8144 22.5344 31.6817 22.6202L31.5544 22.4235ZM31.2931 22.5819L31.5573 22.4217L31.6787 22.6221L31.4145 22.7822L31.2931 22.5819ZM31.4709 21.2086V22.682H31.2366V21.2086H31.4709ZM31.4709 19.7432V21.2086H31.2366V19.7432H31.4709ZM32.1163 19.4446L31.4116 19.845L31.2959 19.6413L32.0006 19.2409L32.1163 19.4446ZM35.3285 17.5862C33.9516 18.3867 32.5012 19.2281 32.1159 19.4449L32.001 19.2407C32.3845 19.025 33.8329 18.1848 35.2107 17.3837L35.3285 17.5862ZM37.795 16.1627C37.8148 16.1693 37.8312 16.1688 37.8372 16.1685C37.8448 16.1681 37.8507 16.167 37.8537 16.1664C37.8598 16.1652 37.8638 16.1637 37.8645 16.1635C37.8662 16.1629 37.8658 16.163 37.8618 16.1648C37.8544 16.168 37.8422 16.1738 37.8244 16.1827C37.7893 16.2003 37.7381 16.2272 37.6718 16.2628C37.5395 16.3338 37.3504 16.4377 37.1184 16.5673C36.6546 16.8262 36.0205 17.1862 35.3282 17.5864L35.211 17.3835C35.9041 16.9829 36.5392 16.6223 37.0042 16.3627C37.2367 16.2329 37.427 16.1282 37.561 16.0563C37.6278 16.0205 37.6814 15.9923 37.7194 15.9733C37.7382 15.9639 37.7546 15.956 37.7674 15.9503C37.7735 15.9476 37.781 15.9445 37.7887 15.9419C37.7922 15.9406 37.7987 15.9385 37.8066 15.9369C37.8105 15.9361 37.8172 15.9349 37.8254 15.9345C37.8321 15.9342 37.849 15.9337 37.8691 15.9404L37.795 16.1627ZM38.2292 16.4132C38.0974 16.3376 37.988 16.2748 37.9094 16.2299C37.87 16.2074 37.8385 16.1894 37.8158 16.1765C37.8045 16.1701 37.7955 16.1651 37.7889 16.1614C37.7814 16.1572 37.7791 16.156 37.7797 16.1563L37.8845 15.9468C37.9058 15.9575 38.0859 16.0609 38.3458 16.21L38.2292 16.4132ZM38.2295 16.4134L38.2289 16.4131L38.346 16.2102L38.3466 16.2105L38.2295 16.4134ZM39.0472 16.882C38.739 16.7058 38.4526 16.5415 38.2298 16.4136L38.3464 16.2104C38.5693 16.3383 38.8554 16.5026 39.1635 16.6786L39.0472 16.882ZM15.9628 24.4648C15.945 24.4648 15.9305 24.4608 15.926 24.4595C15.9191 24.4576 15.9126 24.4554 15.9073 24.4534C15.8967 24.4494 15.8846 24.4442 15.8721 24.4385C15.8468 24.427 15.8132 24.4106 15.7726 24.39C15.6911 24.3486 15.5767 24.288 15.4336 24.2106C15.147 24.0557 14.7426 23.8319 14.2499 23.556C13.2645 23.0042 11.9248 22.2432 10.4671 21.4063L10.5838 21.2031C12.041 22.0398 13.3799 22.8003 14.3644 23.3516C14.8567 23.6272 15.26 23.8504 15.545 24.0045C15.6876 24.0816 15.8 24.1411 15.8787 24.1811C15.9183 24.2012 15.9483 24.2158 15.9689 24.2252C15.9794 24.23 15.986 24.2327 15.9894 24.234C15.9912 24.2346 15.9907 24.2344 15.9886 24.2338C15.9875 24.2335 15.985 24.2328 15.9815 24.2322C15.9785 24.2316 15.9717 24.2305 15.9628 24.2305V24.4648ZM19.6409 22.4391C18.6836 22.9919 17.7981 23.4947 17.1418 23.8595C16.8137 24.0418 16.5423 24.1899 16.3476 24.2926C16.2504 24.3439 16.1714 24.3843 16.1136 24.4122C16.0849 24.426 16.06 24.4374 16.0401 24.4456C16.0303 24.4496 16.0201 24.4535 16.0103 24.4566C16.0045 24.4585 15.9851 24.4648 15.9628 24.4648V24.2305C15.9454 24.2305 15.934 24.235 15.9392 24.2334C15.9404 24.233 15.9441 24.2317 15.951 24.2289C15.9647 24.2233 15.9848 24.2141 16.0119 24.2011C16.0659 24.1751 16.1419 24.1362 16.2383 24.0854C16.4307 23.9839 16.7004 23.8367 17.0279 23.6547C17.6829 23.2907 18.5671 22.7886 19.5237 22.2362L19.6409 22.4391ZM21.2905 21.4875C20.7405 21.8046 20.1778 22.1291 19.6409 22.4391L19.5237 22.2362C20.0607 21.9262 20.6235 21.6016 21.1734 21.2845L21.2905 21.4875ZM21.2933 21.4859L21.2904 21.4875L21.1735 21.2845L21.1764 21.2828L21.2933 21.4859ZM21.2941 21.4854L21.2932 21.4859L21.1765 21.2828L21.1774 21.2822L21.2941 21.4854ZM24.6145 19.5639C24.0269 19.9095 22.7027 20.6731 21.2943 21.4853L21.1772 21.2823C22.5863 20.4698 23.9092 19.7069 24.4957 19.3619L24.6145 19.5639ZM26.1108 18.7077L24.6133 19.5646L24.497 19.3612L25.9944 18.5044L26.1108 18.7077ZM25.9675 20.0181L25.9355 18.6087L26.1697 18.6034L26.2017 20.0128L25.9675 20.0181ZM25.9858 21.406C25.9713 21.4205 25.9652 21.4348 25.9639 21.4378C25.9628 21.4404 25.9621 21.4424 25.9617 21.4435C25.9613 21.4447 25.9612 21.4454 25.9611 21.4455C25.9611 21.4456 25.9614 21.4446 25.9619 21.442C25.9623 21.4395 25.9629 21.4361 25.9635 21.4317C25.9661 21.4135 25.9687 21.3855 25.9711 21.3471C25.9758 21.2711 25.979 21.163 25.9805 21.0301C25.9835 20.7649 25.9795 20.4062 25.9675 20.019L26.2017 20.0118C26.2138 20.4014 26.2178 20.7635 26.2148 21.0327C26.2133 21.1671 26.21 21.2798 26.2049 21.3616C26.2024 21.4022 26.1993 21.4374 26.1955 21.4647C26.1936 21.4781 26.1911 21.4924 26.1875 21.5057C26.1858 21.5123 26.1832 21.521 26.1792 21.5303C26.176 21.5377 26.168 21.5552 26.1514 21.5717L25.9858 21.406ZM15.9708 27.1934C15.954 27.1934 15.9414 27.1972 15.9401 27.1976C15.9362 27.1987 15.9335 27.1997 15.9327 27.2C15.931 27.2007 15.9307 27.2009 15.9327 27.2C15.9364 27.1983 15.943 27.195 15.9531 27.1899C15.9729 27.1797 16.0021 27.1642 16.0404 27.1433C16.1169 27.1017 16.2272 27.0405 16.3667 26.9622C16.6457 26.8056 17.0402 26.5818 17.5119 26.3127C18.4552 25.7745 19.7065 25.0559 20.9582 24.3343C22.2098 23.6126 23.4616 22.888 24.406 22.3378C24.8782 22.0627 25.2733 21.8313 25.5531 21.6658C25.693 21.583 25.8037 21.5168 25.8807 21.47C25.9192 21.4465 25.9488 21.4283 25.9691 21.4153C25.9793 21.4088 25.9864 21.4041 25.9909 21.401C25.9932 21.3994 25.994 21.3988 25.9938 21.399C25.9937 21.399 25.9927 21.3998 25.9913 21.401C25.9903 21.4018 25.9866 21.4049 25.9823 21.4097L26.155 21.568C26.1466 21.5772 26.1378 21.5838 26.1358 21.5853C26.1318 21.5883 26.1276 21.5913 26.1238 21.5939C26.1161 21.5993 26.1063 21.6056 26.0952 21.6127C26.0727 21.6271 26.0415 21.6464 26.0025 21.6702C25.9243 21.7177 25.8125 21.7845 25.6724 21.8674C25.3919 22.0334 24.9962 22.2651 24.5239 22.5403C23.5791 23.0907 22.327 23.8155 21.0752 24.5372C19.8234 25.259 18.5718 25.9778 17.628 26.5162C17.1562 26.7853 16.7611 27.0095 16.4814 27.1665C16.3416 27.2449 16.2302 27.3068 16.1524 27.3491C16.1136 27.3702 16.0824 27.3869 16.06 27.3984C16.0489 27.404 16.0389 27.409 16.0306 27.4128C16.0266 27.4146 16.0215 27.4169 16.0162 27.419C16.0136 27.42 16.0093 27.4215 16.0042 27.423C16.0016 27.4237 15.9881 27.4277 15.9708 27.4277V27.1934ZM10.2075 23.9098C11.7889 24.8186 13.2321 25.6433 14.2858 26.2407C14.8128 26.5394 15.2421 26.7812 15.5426 26.9483C15.6929 27.0318 15.8106 27.0965 15.8919 27.1401C15.9327 27.162 15.9636 27.1782 15.9847 27.1887C15.9954 27.1941 16.0024 27.1974 16.0063 27.1992C16.0084 27.2001 16.0082 27.1999 16.0064 27.1993C16.0055 27.199 16.0028 27.198 15.9989 27.197C15.9969 27.1964 15.9857 27.1934 15.9708 27.1934V27.4277C15.955 27.4277 15.9428 27.4245 15.9394 27.4236C15.9342 27.4222 15.9298 27.4207 15.9269 27.4197C15.9211 27.4176 15.9156 27.4152 15.9113 27.4133C15.9024 27.4094 15.8916 27.4041 15.8797 27.3982C15.8557 27.3862 15.8225 27.3688 15.7812 27.3466C15.6982 27.3021 15.5793 27.2368 15.4287 27.1531C15.1274 26.9855 14.6974 26.7433 14.1703 26.4445C13.116 25.8468 11.6724 25.0218 10.0907 24.1129L10.2075 23.9098ZM3.62459 20.1378C4.08927 20.4022 7.05241 22.1 10.2074 23.9097L10.0908 24.1129C6.9356 22.3031 3.97296 20.6056 3.50873 20.3415L3.62459 20.1378ZM2.9063 19.7255C3.06222 19.8156 3.32696 19.9685 3.62459 20.1378L3.50873 20.3415C3.21038 20.1717 2.94507 20.0185 2.78913 19.9284L2.9063 19.7255ZM2.90546 19.7251L2.90559 19.7251L2.78985 19.9288L2.78972 19.9288L2.90546 19.7251ZM2.90558 19.7251L2.9058 19.7253L2.78938 19.9286L2.78916 19.9284L2.90558 19.7251ZM2.7542 19.6384C2.76413 19.6433 2.82268 19.6772 2.90596 19.7253L2.78878 19.9282C2.7453 19.9031 2.71044 19.883 2.68574 19.8688C2.65825 19.853 2.64827 19.8474 2.64944 19.8479L2.7542 19.6384ZM5.21627 18.3789C5.23126 18.3789 5.24244 18.3758 5.24469 18.3752C5.24876 18.3741 5.25162 18.3731 5.25259 18.3728C5.25461 18.372 5.25512 18.3717 5.25323 18.3726C5.24977 18.3742 5.24345 18.3772 5.23364 18.3823C5.21437 18.3922 5.18644 18.4073 5.15051 18.4272C5.07892 18.4668 4.97873 18.5238 4.85928 18.5925C4.62055 18.7298 4.30663 18.9133 3.99453 19.0973C3.68243 19.2814 3.3725 19.4659 3.14174 19.6052C3.02628 19.6749 2.93108 19.7331 2.86546 19.7742C2.83247 19.7948 2.80787 19.8106 2.79214 19.8212C2.78392 19.8267 2.77993 19.8296 2.77876 19.8305C2.77749 19.8314 2.7809 19.829 2.78553 19.8244C2.78683 19.8231 2.79516 19.815 2.80277 19.8021C2.80631 19.7961 2.81513 19.7802 2.81797 19.7575C2.82137 19.7305 2.81581 19.6915 2.78465 19.6603L2.61898 19.826C2.5877 19.7947 2.58209 19.7556 2.58551 19.7283C2.58839 19.7054 2.5973 19.6893 2.60102 19.683C2.60899 19.6695 2.61797 19.6606 2.62022 19.6584C2.62676 19.6518 2.63325 19.6468 2.63621 19.6445C2.6435 19.639 2.65255 19.6327 2.66164 19.6266C2.68053 19.6139 2.70767 19.5966 2.74112 19.5756C2.80838 19.5335 2.90487 19.4746 3.02063 19.4047C3.25233 19.2647 3.56301 19.0798 3.87551 18.8955C4.18802 18.7112 4.50272 18.5273 4.74245 18.3894C4.86224 18.3205 4.96375 18.2628 5.03705 18.2222C5.07356 18.202 5.10388 18.1856 5.12624 18.1741C5.13725 18.1684 5.14759 18.1632 5.15634 18.1593C5.16056 18.1573 5.16606 18.155 5.17192 18.1528C5.17481 18.1517 5.17931 18.1502 5.18471 18.1487C5.18831 18.1478 5.20053 18.1446 5.21627 18.1446V18.3789ZM10.4671 21.4063C9.0097 20.5695 7.68443 19.8087 6.72253 19.2572C6.24157 18.9815 5.8515 18.758 5.58118 18.6035C5.44601 18.5263 5.34087 18.4663 5.26931 18.4257C5.2335 18.4054 5.20626 18.39 5.18793 18.3797C5.17871 18.3745 5.17206 18.3708 5.1678 18.3685C5.16676 18.3679 5.16594 18.3675 5.16532 18.3672C5.16502 18.367 5.16478 18.3669 5.16461 18.3668C5.16444 18.3667 5.16437 18.3667 5.16438 18.3667C5.16439 18.3667 5.16457 18.3668 5.16488 18.3669C5.16515 18.3671 5.16583 18.3674 5.16677 18.3678C5.1674 18.3681 5.16969 18.3692 5.17277 18.3705C5.17446 18.3711 5.17896 18.3728 5.18175 18.3737C5.18687 18.3751 5.20411 18.3782 5.21627 18.3789V18.1446C5.22847 18.1452 5.24575 18.1483 5.25094 18.1498C5.2538 18.1507 5.25839 18.1524 5.26018 18.1531C5.26347 18.1544 5.26603 18.1556 5.26702 18.1561C5.26934 18.1572 5.27134 18.1582 5.27238 18.1588C5.27476 18.16 5.27746 18.1615 5.28007 18.1629C5.28549 18.1658 5.29304 18.17 5.30245 18.1753C5.32138 18.1859 5.34908 18.2016 5.38498 18.222C5.45684 18.2628 5.56222 18.3228 5.69743 18.4001C5.9679 18.5547 6.35809 18.7782 6.83907 19.054C7.80104 19.6055 9.12636 20.3663 10.5838 21.2031L10.4671 21.4063ZM15.9708 28.6289C15.9506 28.6289 15.9325 28.6244 15.922 28.6216C15.9095 28.6182 15.8963 28.6138 15.8831 28.6089C15.8565 28.599 15.8237 28.5851 15.7858 28.5678C15.7096 28.5331 15.6063 28.4821 15.4774 28.4158C15.2193 28.283 14.854 28.0865 14.3897 27.8305C13.4609 27.3186 12.133 26.5674 10.4671 25.6104L10.5838 25.4072C12.2492 26.364 13.5758 27.1144 14.5028 27.6254C14.9665 27.8809 15.3294 28.0762 15.5845 28.2075C15.7123 28.2732 15.8118 28.3222 15.8829 28.3546C15.9186 28.3708 15.9455 28.3822 15.9645 28.3892C15.974 28.3927 15.98 28.3946 15.9832 28.3955C15.9884 28.3969 15.9824 28.3946 15.9708 28.3946V28.6289ZM17.8791 27.6683C17.3856 27.9531 16.9534 28.1904 16.6276 28.3568C16.465 28.4399 16.3275 28.506 16.2217 28.5516C16.1689 28.5744 16.1224 28.5927 16.0836 28.6056C16.0489 28.6171 16.0075 28.6289 15.9708 28.6289V28.3946C15.9661 28.3946 15.9757 28.3945 16.0097 28.3833C16.0396 28.3733 16.0793 28.3579 16.129 28.3365C16.2281 28.2937 16.3604 28.2302 16.5211 28.1481C16.842 27.9842 17.2705 27.749 17.762 27.4653L17.8791 27.6683ZM26.0537 22.9679C26.0542 22.9677 26.052 22.9685 26.0457 22.9715C26.0399 22.9742 26.0322 22.978 26.0222 22.9832C26.0021 22.9934 25.9748 23.0078 25.9391 23.0272C25.8678 23.0658 25.7654 23.1228 25.6257 23.2016C25.3464 23.3591 24.9198 23.6029 24.2992 23.9597C23.0582 24.6733 21.0424 25.8384 17.8792 27.6682L17.7619 27.4654C20.925 25.6356 22.9411 24.4704 24.1824 23.7566C24.8031 23.3998 25.2304 23.1556 25.5106 22.9975C25.6506 22.9185 25.7544 22.8608 25.8274 22.8212C25.8964 22.7838 25.946 22.7581 25.9714 22.7485L26.0537 22.9679ZM26.0316 24.2436C26.0316 23.5754 26.0294 23.2247 26.0121 23.0457C26.0078 23.0017 26.003 22.9723 25.9982 22.9531C25.9931 22.9322 25.9901 22.9327 25.9959 22.94C26.0062 22.9531 26.0254 22.9648 26.0473 22.9663C26.0608 22.9672 26.0662 22.9632 26.0537 22.9679L25.9714 22.7485C25.991 22.7412 26.0246 22.7299 26.0631 22.7325C26.1099 22.7357 26.1508 22.7581 26.1798 22.7949C26.2044 22.826 26.2174 22.8634 26.2256 22.8967C26.2343 22.9318 26.2405 22.974 26.2453 23.0231C26.264 23.2165 26.2658 23.5824 26.2658 24.2436H26.0316ZM26.0316 25.677V24.2436H26.2658V25.677H26.0316ZM20.9972 28.5144L26.0901 25.5755L26.2072 25.7784L21.1143 28.7173L20.9972 28.5144ZM15.9042 31.4532L20.9972 28.5144L21.1143 28.7173L16.0213 31.6561L15.9042 31.4532ZM9.37455 27.6414L16.021 31.4531L15.9045 31.6563L9.25799 27.8446L9.37455 27.6414ZM2.87432 23.9479C2.8862 23.942 2.90629 23.9284 2.9191 23.9018C2.93221 23.8746 2.93026 23.8493 2.92661 23.8344C2.92115 23.8123 2.91033 23.8054 2.92251 23.8184C2.9416 23.8389 2.98607 23.8759 3.07079 23.9356C3.23682 24.0524 3.52975 24.2371 4.00333 24.5215C4.94911 25.0894 6.60366 26.0477 9.37467 27.6414L9.25787 27.8445C6.48747 26.2511 4.8308 25.2916 3.88273 24.7224C3.40939 24.4381 3.10974 24.2495 2.93593 24.1271C2.85074 24.0672 2.78848 24.0181 2.75133 23.9784C2.73538 23.9613 2.70907 23.9308 2.69914 23.8906C2.69325 23.8667 2.69183 23.8337 2.70803 23.8001C2.72393 23.7671 2.74966 23.7483 2.76955 23.7384L2.87432 23.9479ZM3.6448 23.4996C3.24952 23.7292 2.93979 23.9091 2.88221 23.9436L2.76167 23.7427C2.82115 23.707 3.13338 23.5257 3.52715 23.297L3.6448 23.4996ZM3.64639 23.4987L3.64479 23.4996L3.52716 23.297L3.52876 23.2961L3.64639 23.4987ZM4.10597 23.2318L3.64641 23.4987L3.52874 23.2961L3.98829 23.0292L4.10597 23.2318ZM5.20826 22.623C5.22803 22.623 5.2412 22.6171 5.23322 22.6199C5.2309 22.6207 5.22586 22.6226 5.21735 22.6262C5.20062 22.6334 5.17644 22.6447 5.14493 22.6602C5.08224 22.691 4.99526 22.736 4.8902 22.7923C4.68034 22.9047 4.40125 23.0602 4.10599 23.2318L3.98828 23.0292C4.28559 22.8564 4.56705 22.6996 4.7796 22.5858C4.88575 22.5289 4.97544 22.4824 5.04163 22.4499C5.07455 22.4337 5.10286 22.4204 5.12502 22.4109C5.13595 22.4062 5.14694 22.4018 5.15705 22.3983C5.1615 22.3968 5.18349 22.3887 5.20826 22.3887V22.623ZM10.4673 25.6105C9.02594 24.7857 7.70885 24.0351 6.74616 23.4907C6.26477 23.2185 5.87224 22.998 5.59718 22.8456C5.45956 22.7693 5.35181 22.7104 5.2772 22.6706C5.23975 22.6507 5.21147 22.636 5.19222 22.6264C5.18243 22.6216 5.17623 22.6187 5.1729 22.6172C5.17109 22.6165 5.17164 22.6168 5.17369 22.6175C5.17469 22.6178 5.17749 22.6188 5.18145 22.6198C5.18384 22.6204 5.19428 22.623 5.20826 22.623V22.3887C5.23154 22.3887 5.2506 22.3962 5.25076 22.3962C5.25657 22.3982 5.26202 22.4005 5.26622 22.4023C5.27492 22.4061 5.2852 22.411 5.29623 22.4165C5.31863 22.4276 5.34935 22.4436 5.38739 22.4639C5.46373 22.5045 5.57281 22.5642 5.71072 22.6406C5.98669 22.7935 6.37993 23.0144 6.86148 23.2868C7.82467 23.8314 9.14215 24.5823 10.5836 25.4071L10.4673 25.6105ZM25.711 9.60527C25.711 9.53679 25.7125 9.46036 25.7493 9.38121C25.7857 9.30292 25.85 9.23509 25.9451 9.16066C26.1325 9.01412 26.4905 8.80466 27.1627 8.41487L27.2802 8.61755C26.5991 9.01253 26.2605 9.21147 26.0895 9.3452C26.0055 9.41091 25.9751 9.45119 25.9618 9.47999C25.9488 9.50795 25.9453 9.53763 25.9453 9.60527H25.711ZM26.3246 10.291C25.957 10.291 25.711 9.98261 25.711 9.60527H25.9453C25.9453 9.88457 26.1157 10.0567 26.3246 10.0567V10.291ZM29.0263 8.82197C28.9899 8.86721 28.9216 8.92121 28.8444 8.9763C28.7632 9.03425 28.6597 9.10205 28.5418 9.17534C28.306 9.32208 28.0087 9.49361 27.7101 9.65699C27.4116 9.82034 27.1101 9.97639 26.8659 10.0919C26.744 10.1496 26.6349 10.1979 26.5467 10.232C26.5028 10.249 26.4625 10.2631 26.4276 10.2732C26.3952 10.2824 26.3582 10.291 26.3246 10.291V10.0567C26.324 10.0567 26.3348 10.056 26.363 10.0479C26.3886 10.0406 26.4218 10.0292 26.4621 10.0135C26.5428 9.9823 26.6462 9.93669 26.7657 9.88013C27.0045 9.76718 27.3017 9.61342 27.5977 9.45146C27.8937 9.28952 28.187 9.12022 28.4181 8.97642C28.5337 8.90445 28.6327 8.83956 28.7083 8.78562C28.7878 8.72881 28.8304 8.69172 28.844 8.6749L29.0263 8.82197ZM28.8954 7.92761C29.1642 8.13881 29.24 8.54733 29.0276 8.82036L28.8427 8.67652C28.9667 8.51713 28.9303 8.25299 28.7507 8.11184L28.8954 7.92761ZM28.4787 7.73442C28.5429 7.73442 28.6193 7.76291 28.6839 7.79416C28.7535 7.82787 28.8291 7.87454 28.8962 7.92825L28.7499 8.1112C28.6969 8.06882 28.6363 8.03141 28.5818 8.00506C28.5547 7.99192 28.5305 7.98225 28.5109 7.97608C28.5011 7.97301 28.4933 7.97105 28.4873 7.96991C28.4811 7.96872 28.4784 7.96871 28.4787 7.96871V7.73442ZM27.1629 8.41474C27.4758 8.23424 27.7734 8.06736 28.0022 7.94538C28.1164 7.88449 28.2147 7.83415 28.2897 7.79878C28.3271 7.78118 28.3602 7.76652 28.3875 7.75602C28.4011 7.75079 28.4148 7.74598 28.4278 7.74232C28.4386 7.73929 28.4576 7.73442 28.4787 7.73442V7.96871C28.4908 7.96871 28.497 7.96622 28.4914 7.96782C28.4879 7.96879 28.4816 7.97087 28.4717 7.97466C28.4521 7.98221 28.4248 7.99414 28.3897 8.01069C28.3198 8.04365 28.2254 8.09191 28.1124 8.15213C27.8868 8.27239 27.5918 8.43783 27.28 8.61768L27.1629 8.41474ZM15.8762 15.2004C15.5131 15.4079 15.1724 15.6132 14.9169 15.7752C14.789 15.8563 14.6833 15.926 14.6073 15.9795C14.5691 16.0063 14.5396 16.0282 14.5188 16.0448C14.4931 16.0655 14.4925 16.0691 14.4981 16.0606L14.3032 15.9306C14.3209 15.9041 14.3508 15.8792 14.3722 15.8621C14.3985 15.841 14.4326 15.8159 14.4726 15.7878C14.5529 15.7313 14.662 15.6594 14.7914 15.5774C15.0504 15.4131 15.3943 15.206 15.7599 14.997L15.8762 15.2004ZM17.2835 14.4551C17.2951 14.4551 17.3006 14.4528 17.2934 14.4548C17.2886 14.4561 17.2806 14.4587 17.2689 14.4632C17.2455 14.472 17.2132 14.4858 17.1722 14.5047C17.0905 14.5423 16.9801 14.5974 16.8481 14.6661C16.5846 14.8033 16.2396 14.9928 15.8762 15.2004L15.7599 14.997C16.1252 14.7883 16.4729 14.5973 16.7399 14.4583C16.8732 14.3889 16.9875 14.3318 17.0742 14.2919C17.1174 14.272 17.1553 14.2557 17.186 14.244C17.2013 14.2382 17.2163 14.233 17.2303 14.2291C17.2419 14.2259 17.2618 14.2208 17.2835 14.2208V14.4551ZM17.7029 14.8905C17.7029 14.8704 17.6928 14.8321 17.6617 14.7783C17.6322 14.727 17.5895 14.6718 17.5399 14.6209C17.4903 14.57 17.4368 14.5263 17.3874 14.4962C17.3352 14.4643 17.2998 14.4551 17.2835 14.4551V14.2208C17.3633 14.2208 17.443 14.2557 17.5094 14.2962C17.5786 14.3384 17.6472 14.3953 17.7078 14.4575C17.7683 14.5197 17.8237 14.5901 17.8647 14.6612C17.9042 14.7298 17.9372 14.8106 17.9372 14.8905H17.7029ZM17.5549 15.1746C17.5961 15.1265 17.6349 15.0668 17.6629 15.01C17.6928 14.9492 17.7029 14.907 17.7029 14.8905H17.9372C17.9372 14.9621 17.9072 15.044 17.8731 15.1134C17.837 15.1867 17.7876 15.2631 17.7328 15.3271L17.5549 15.1746ZM14.8171 16.7193C14.8125 16.7193 14.8206 16.7194 14.85 16.7101C14.8758 16.7019 14.9097 16.6891 14.9516 16.6717C15.0352 16.6368 15.1441 16.586 15.2709 16.5231C15.5242 16.3976 15.8434 16.2267 16.1641 16.0466C16.4848 15.8666 16.8057 15.6781 17.0623 15.5175C17.1907 15.4372 17.3022 15.3644 17.3892 15.3035C17.4788 15.2407 17.5348 15.1958 17.5586 15.1705L17.7291 15.3312C17.6868 15.376 17.6124 15.4332 17.5236 15.4954C17.432 15.5595 17.3168 15.6347 17.1866 15.7162C16.926 15.8792 16.6017 16.0696 16.2788 16.2509C15.9559 16.4322 15.633 16.6051 15.375 16.733C15.2462 16.7969 15.1321 16.8503 15.0417 16.8879C14.9966 16.9067 14.9558 16.9223 14.921 16.9333C14.8899 16.9432 14.8517 16.9536 14.8171 16.9536V16.7193ZM14.4939 16.0666C14.2961 16.3261 14.49 16.7193 14.8171 16.7193V16.9536C14.2954 16.9536 13.9927 16.3378 14.3075 15.9246L14.4939 16.0666Z" fill="#1E3EA3"/>
</svg>
