<svg width="33" height="33" viewBox="0 0 33 33" fill="none" xmlns="http://www.w3.org/2000/svg">
<path d="M20.8876 0.59297C19.9917 0.721876 19.2376 1.05703 18.3095 1.74023C18.0324 1.95293 17.5876 2.21074 17.3169 2.32031C16.1375 2.81016 15.3447 4.00254 15.3447 5.28516C15.3447 5.86523 15.48 6.32285 15.8603 7.08984C16.0343 7.44434 16.1826 7.74727 16.1826 7.76016C16.1826 7.77305 16.0923 7.81172 15.9763 7.83105C15.6927 7.89551 15.1384 8.46914 15.0353 8.8043C14.8548 9.41016 14.9837 9.89355 15.4414 10.3447C15.7443 10.6477 16.0988 10.8281 16.4017 10.8281C16.4791 10.8281 16.5048 10.8861 16.5048 11.0473C16.5048 11.3631 16.666 12.1494 16.8271 12.6006C17.13 13.4707 17.9357 14.5084 18.7414 15.0627L19.0894 15.3012L19.0701 15.9457L19.0507 16.5967L18.1484 16.7707C17.6521 16.8674 17.1945 16.9447 17.1365 16.9512C17.0333 16.9512 17.0205 16.8803 17.0205 16.3646C17.0205 15.617 16.9367 15.3398 16.5886 14.9531C16.0923 14.3988 16.6337 14.4375 8.78335 14.4375C3.53042 14.4375 1.79019 14.4568 1.59038 14.5148C1.23589 14.618 0.700928 15.1529 0.597803 15.5074C0.488232 15.8877 0.488232 23.2998 0.597803 23.6801C0.700928 24.0346 1.23589 24.5695 1.59038 24.6727C1.78374 24.7307 2.62163 24.75 4.54233 24.75H7.22358V26.5547V28.3594H4.03315H0.836279L0.681592 28.5205L0.520459 28.6752V30.4219V32.1686L0.681592 32.3232L0.836279 32.4844H16.5048H32.1734L32.3345 32.3232L32.4957 32.1621L32.4763 26.284L32.457 20.3994L32.2894 19.974C32.0445 19.3488 31.8318 19.0137 31.3935 18.5754C31.0068 18.1951 30.4976 17.8793 30.0078 17.7182C29.866 17.673 28.5189 17.4023 27.0107 17.1188L24.2714 16.5967L24.2521 15.9457L24.2328 15.3012L24.5873 15.0562C25.0578 14.734 25.7668 13.9799 26.0697 13.4836C26.4113 12.9164 26.6755 12.143 26.7658 11.434C26.8238 10.9893 26.8689 10.8281 26.9334 10.8281C27.4167 10.8281 28.1386 10.2545 28.2869 9.7582C28.5125 8.97832 28.1451 8.19199 27.4039 7.86973L27.088 7.73438L27.2943 7.23809C27.6101 6.49688 27.6875 6.10371 27.681 5.34961C27.6746 4.78887 27.6423 4.58262 27.5005 4.15723C27.2556 3.45469 26.9398 2.94551 26.4048 2.42344C26.0181 2.04961 25.8248 1.9207 25.0513 1.54688C23.0791 0.59297 22.2412 0.399609 20.8876 0.59297ZM22.9953 1.77246C23.266 1.8627 23.9234 2.15273 24.4584 2.41055C25.322 2.82949 25.4767 2.92617 25.799 3.28066C26.4822 4.01543 26.798 5.00801 26.6304 5.91035C26.5853 6.14883 26.5144 6.43242 26.4693 6.54199L26.3855 6.73535L26.0246 6.01348C25.496 4.96934 25.3865 4.94356 24.4906 5.61387C24.1554 5.86523 23.6849 6.16817 23.4335 6.28418C22.9373 6.52266 22.1703 6.70312 21.6611 6.70312C21.1519 6.70312 20.3849 6.52266 19.8886 6.28418C19.6437 6.16817 19.1667 5.86523 18.8316 5.61387C17.9292 4.93711 17.8132 4.96934 17.2783 6.05215C17.0849 6.44531 16.9109 6.76758 16.8851 6.76758C16.8658 6.76758 16.7498 6.55488 16.6273 6.29707C16.4275 5.87813 16.4082 5.775 16.4082 5.25293C16.4082 4.71152 16.421 4.64062 16.6273 4.2668C16.8722 3.81563 17.2203 3.49336 17.7037 3.27422C17.955 3.1582 18.1355 3.12598 18.5673 3.12598C19.0443 3.12598 19.1732 3.15176 19.5341 3.32578C19.9595 3.52559 20.2753 3.7834 20.5718 4.18301L20.733 4.40215L21.1326 4.13144C21.3517 3.9832 21.5322 3.83496 21.5322 3.80918C21.5322 3.7125 21.0488 3.13242 20.7523 2.87461C20.5976 2.73926 20.256 2.52656 19.9982 2.39766L19.5277 2.17207L19.7082 2.06894C20.5783 1.54688 21.9511 1.42441 22.9953 1.77246ZM18.8187 6.85781C20.5589 8.00508 22.7632 8.00508 24.5035 6.85781C24.7935 6.66445 25.0513 6.50977 25.0771 6.50977C25.0964 6.50977 25.2705 6.81914 25.4574 7.19942L25.799 7.89551L25.7732 9.76465C25.7539 11.6016 25.7474 11.6402 25.5798 12.1043C25.3349 12.7746 25.0449 13.2387 24.5615 13.7285C24.0716 14.2184 23.4851 14.5793 22.8535 14.7791C22.4861 14.8951 22.2541 14.9209 21.6289 14.9209C20.9585 14.9145 20.791 14.8887 20.3849 14.7469C19.315 14.3602 18.4707 13.6383 18.0001 12.6973C17.5876 11.8787 17.5361 11.5242 17.5361 9.5584V7.86328L17.8712 7.18652C18.0582 6.8127 18.2257 6.50977 18.2451 6.50977C18.2709 6.50977 18.5287 6.66445 18.8187 6.85781ZM16.5048 9.28125C16.5048 9.7002 16.4855 9.79688 16.4082 9.79688C16.2341 9.79688 15.9892 9.49395 15.9892 9.28125C15.9892 9.06856 16.2341 8.76562 16.4082 8.76562C16.4855 8.76562 16.5048 8.8623 16.5048 9.28125ZM27.1718 8.92676C27.275 9.02344 27.333 9.15879 27.333 9.28125C27.333 9.49395 27.088 9.79688 26.914 9.79688C26.8367 9.79688 26.8173 9.7002 26.8173 9.28125C26.8173 8.70117 26.8882 8.63672 27.1718 8.92676ZM15.8281 15.6299L15.9892 15.7846V19.7549V23.7188H13.1533H10.3173V21.5596V19.3939L10.1562 19.2393C10.0015 19.0781 9.98862 19.0781 8.77046 19.0781C7.5523 19.0781 7.5394 19.0781 7.38472 19.2393L7.22358 19.3939V21.5596V23.7188H4.54878H1.86753L1.71284 23.5576L1.55171 23.4029V19.5938V15.7846L1.71284 15.6299L1.86753 15.4688H8.77046H15.6734L15.8281 15.6299ZM21.6611 15.9393C22.2412 15.9393 22.6472 15.907 22.8728 15.8426L23.208 15.7459V16.2293C23.208 16.4936 23.1757 16.8287 23.1306 16.977C23.0275 17.3314 22.4925 17.8664 22.138 17.9695C21.5322 18.15 21.0488 18.0211 20.5976 17.5635C20.2109 17.1832 20.1142 16.9125 20.1142 16.2293V15.7459L20.4558 15.8426C20.675 15.907 21.081 15.9393 21.6611 15.9393ZM19.5277 17.918C19.7855 18.3176 20.1658 18.6334 20.6685 18.8654C20.9972 19.0201 21.1261 19.0459 21.6611 19.0459C22.196 19.0459 22.325 19.0201 22.6537 18.8654C23.1564 18.6334 23.5367 18.3176 23.7945 17.918C23.9105 17.7375 24.0201 17.5957 24.0394 17.6021C24.0587 17.6021 24.5744 17.6988 25.1738 17.8148L26.2695 18.0211L26.2888 20.8699L26.3017 23.7188H21.6611H17.0205L17.0333 20.8699L17.0527 18.0211L18.1162 17.8148C18.7027 17.7053 19.2119 17.6086 19.2505 17.6021C19.2892 17.5957 19.4117 17.7375 19.5277 17.918ZM27.7841 18.3047C27.9453 18.3434 28.1386 18.382 28.2224 18.4014L28.3642 18.4336V21.0762V23.7188H27.8486H27.333V20.9795C27.333 18.8332 27.3523 18.2402 27.4167 18.2402C27.4554 18.2402 27.623 18.2725 27.7841 18.3047ZM30.0207 18.8525C30.4847 19.0588 30.9681 19.5615 31.2195 20.0965L31.4257 20.5283L31.4451 25.9875L31.4644 31.4531H30.4267H29.3955V25.0336V18.6205L29.5437 18.6592C29.621 18.685 29.8402 18.7688 30.0207 18.8525ZM9.28608 24.2344V28.3594H8.77046H8.25483V24.2344V20.1094H8.77046H9.28608V24.2344ZM10.833 26.5547V28.3594H10.5751H10.3173V26.5547V24.75H10.5751H10.833V26.5547ZM13.9267 26.5547V28.3594H12.8955H11.8642V26.5547V24.75H12.8955H13.9267V26.5547ZM28.3642 26.5547V28.3594H21.6611H14.958V26.5547V24.75H21.6611H28.3642V26.5547ZM28.3642 30.4219V31.4531H14.958H1.55171V30.4219V29.3906H14.958H28.3642V30.4219Z" fill="#1E3EA3" stroke="#1E3EA3" stroke-width="0.264"/>
</svg>
