<svg width="29" height="35" viewBox="0 0 29 35" fill="none" xmlns="http://www.w3.org/2000/svg">
<path fill-rule="evenodd" clip-rule="evenodd" d="M11.5117 0.683763C9.84238 0.90056 8.4332 1.84724 7.62383 3.30701C7.21191 4.05134 7.08906 4.60056 7.0457 5.84353L7.0168 6.9781L6.06289 7.00701C5.31133 7.02869 5.05117 7.06482 4.79102 7.18044C4.3502 7.38279 3.90215 7.88865 3.71426 8.40173C3.59863 8.70525 3.13613 11.5597 2.10996 18.2154C1.32227 23.3752 0.671875 27.7111 0.671875 27.8556C0.671875 28.5133 1.06211 29.1131 1.7125 29.4527L2.08105 29.6478L6.22188 29.6695L10.3627 29.6912L10.5723 29.4744C10.8324 29.2142 10.8758 28.8963 10.6951 28.5422C10.669 28.4899 10.6465 28.445 10.6161 28.4063C10.4275 28.1664 9.93381 28.1664 6.38086 28.1664H2.54355L2.36289 27.9857C2.24004 27.8629 2.19668 27.7545 2.22559 27.6461L2.23651 27.5752L2.23655 27.575C2.32397 27.0083 2.91099 23.203 3.59863 18.6996L3.9071 16.678C5.04991 9.18697 5.08407 8.96303 5.21441 8.84933L5.22677 8.83892L5.22678 8.83891C5.24103 8.82712 5.25672 8.81413 5.2752 8.79197C5.32756 8.73123 5.36475 8.68809 5.41034 8.65745C5.52203 8.5824 5.68417 8.5824 6.24355 8.5824H7.03125V10.4324V12.2824L7.27695 12.5281C7.55156 12.8027 7.8334 12.8461 8.18027 12.6726C8.51992 12.492 8.54883 12.333 8.54883 10.389V8.5824H12.0176H15.4863V10.4324V12.2824L15.732 12.5281C16.0066 12.8027 16.2885 12.8461 16.6354 12.6726C16.975 12.492 17.0039 12.333 17.0039 10.389V8.5824H17.8205C18.7383 8.5824 18.825 8.62576 18.9551 9.09548C18.9912 9.23279 19.2514 10.8371 19.526 12.6654C19.8078 14.4937 20.068 16.1125 20.1113 16.257C20.3137 16.9652 21.2459 17.0302 21.5277 16.351C21.6145 16.1414 21.5711 15.7656 21.0508 12.4197C20.4293 8.41619 20.3859 8.24275 19.8656 7.6574C19.4176 7.16599 19.0707 7.04314 17.965 7.00701L17.0039 6.9781V5.98083C17.0039 4.51384 16.7727 3.74783 16.0139 2.67107C15.4141 1.82556 14.3229 1.08845 13.2822 0.821068C12.8053 0.698217 11.9092 0.633178 11.5117 0.683763ZM12.9643 2.33865C14.2289 2.71443 15.1395 3.69001 15.4068 4.95466C15.4502 5.16423 15.4863 5.71345 15.4863 6.1615V6.99255H12.0176H8.54883V6.28435C8.54883 5.29431 8.65723 4.72341 8.95352 4.11638C9.36543 3.26365 10.0809 2.65662 10.9914 2.36033C11.5189 2.19412 12.4367 2.18689 12.9643 2.33865ZM14.4512 20.9669C13.0041 22.5302 12.1794 24.6378 12.3202 26.8507C12.5587 30.6519 15.2325 33.6437 19.012 34.3591C19.7564 34.5037 21.245 34.4675 22.0183 34.2941C25.0823 33.6003 27.3515 31.4179 28.1753 28.3683C28.3415 27.7396 28.3632 27.5372 28.3632 26.4027C28.3632 25.2464 28.3415 25.073 28.1609 24.4154C27.9224 23.541 27.4599 22.5437 26.9685 21.8283C26.5276 21.1923 25.5087 20.1878 24.88 19.7615C24.2151 19.3134 23.189 18.8437 22.4085 18.6269C21.5341 18.3884 19.8214 18.3234 18.9181 18.4896C17.8105 18.6983 16.7898 19.1292 15.8986 19.728C15.7471 19.3683 15.3913 19.1158 14.9766 19.1158C14.4243 19.1158 13.9766 19.5635 13.9766 20.1158C13.9766 20.4754 14.1664 20.7907 14.4512 20.9669ZM21.4691 19.9999C22.2062 20.13 22.9577 20.4046 23.6226 20.7804C24.3814 21.2068 25.581 22.3992 26.0001 23.1507C27.9513 26.6412 26.4409 30.9988 22.7698 32.4658C21.3173 33.0439 19.4818 33.0583 18.0798 32.5091C16.1648 31.7576 14.8062 30.3556 14.1775 28.4622C13.3825 26.0703 14.0474 23.4253 15.8829 21.6982C17.3788 20.289 19.4962 19.6458 21.4691 19.9999ZM17.974 23.1157C17.7899 23.1157 17.6406 23.2649 17.6406 23.449V29.449C17.6406 29.6331 17.7899 29.7823 17.974 29.7823H18.974C19.1581 29.7823 19.3073 29.6331 19.3073 29.449V23.449C19.3073 23.2649 19.1581 23.1157 18.974 23.1157H17.974ZM21.3047 23.4492C21.3047 23.2651 21.4539 23.1158 21.638 23.1158H22.638C22.8221 23.1158 22.9714 23.2651 22.9714 23.4492V29.4492C22.9714 29.6333 22.8221 29.7825 22.638 29.7825H21.638C21.4539 29.7825 21.3047 29.6333 21.3047 29.4492V23.4492ZM7.64062 19.1158C7.08834 19.1158 6.64062 19.5635 6.64062 20.1158C6.64062 20.6681 7.08834 21.1158 7.64062 21.1158C8.19291 21.1158 8.64062 20.6681 8.64062 20.1158C8.64062 19.5635 8.19291 19.1158 7.64062 19.1158ZM10.3047 20.1158C10.3047 19.5635 10.7524 19.1158 11.3047 19.1158C11.857 19.1158 12.3047 19.5635 12.3047 20.1158C12.3047 20.6681 11.857 21.1158 11.3047 21.1158C10.7524 21.1158 10.3047 20.6681 10.3047 20.1158Z" fill="#1E3EA3"/>
</svg>
