<svg width="35" height="33" viewBox="0 0 35 33" fill="none" xmlns="http://www.w3.org/2000/svg">
<path d="M9.61772 0.724806C8.93218 0.892384 8.30757 1.41035 7.98003 2.06543L7.7896 2.44629L7.76675 5.81309L7.7439 9.1875H5.81675C4.75796 9.1875 3.69917 9.21797 3.47827 9.26367C2.12241 9.51504 0.918896 10.6652 0.553271 12.0439C0.378076 12.7143 0.378076 23.942 0.553271 24.6123C0.918896 25.991 2.12241 27.1412 3.47827 27.3926C3.69917 27.4383 4.75034 27.4688 5.80913 27.4688H7.73628L7.76675 29.015C7.7896 30.4242 7.80483 30.5842 7.9648 30.8965C8.2314 31.4373 8.53608 31.7648 9.06167 32.0467L9.54155 32.3057H15.5744C21.5462 32.3057 21.6072 32.3057 21.8128 32.1457C22.2166 31.8486 22.3384 31.6049 22.3384 31.125C22.3384 30.6451 22.2166 30.4014 21.8128 30.1043C21.6072 29.9443 21.5234 29.9443 15.8943 29.9215L10.189 29.9062V26.25V22.6014L12.8474 22.5785C15.3992 22.5557 15.521 22.548 15.7191 22.3957C16.1228 22.0986 16.2447 21.8549 16.2447 21.375C16.2447 20.8951 16.1228 20.6514 15.7191 20.3543C15.5134 20.1943 15.4296 20.1943 12.0171 20.1943C8.60464 20.1943 8.52085 20.1943 8.31519 20.3543C8.20093 20.4381 8.03335 20.6057 7.94956 20.7199C7.79722 20.918 7.7896 21.0475 7.76675 22.9822L7.7439 25.0313H5.84722C4.69702 25.0313 3.86675 25.0008 3.73726 24.9475C3.4478 24.8408 3.10503 24.5133 2.98315 24.2162C2.89175 24.0105 2.87651 22.9518 2.87651 18.3357C2.87651 14.5424 2.89937 12.6305 2.9603 12.4857C3.06694 12.1963 3.39448 11.8535 3.69155 11.7316C3.89722 11.6402 6.1519 11.625 17.4939 11.625C26.8859 11.625 31.1134 11.6479 31.2658 11.7088C31.5019 11.7926 31.8599 12.1125 31.997 12.3486C32.058 12.4553 32.1037 13.3846 32.1265 15.3346C32.1646 18.0463 32.1722 18.1758 32.3246 18.3738C32.6216 18.7775 32.8654 18.8994 33.3453 18.8994C33.8251 18.8994 34.0689 18.7775 34.366 18.3738C34.5183 18.1758 34.5259 18.0539 34.5488 15.3803C34.564 13.5445 34.5412 12.4477 34.4878 12.1811C34.1908 10.7795 32.9187 9.52266 31.5248 9.26367C31.3039 9.21797 30.2451 9.1875 29.1863 9.1875H27.2515V7.24512C27.2515 5.74453 27.2287 5.2418 27.1449 5.05137C27.0078 4.73906 23.0925 0.839064 22.8107 0.732424C22.5593 0.641016 9.99858 0.6334 9.61772 0.724806ZM23.3439 4.55625L24.814 6.02637V7.60313V9.1875H17.5015H10.189V6.14063V3.09375H16.0314H21.8814L23.3439 4.55625Z" fill="#1E3EA3" stroke="white" stroke-width="0.629032"/>
<path d="M7.26202 14.169C6.75167 14.3899 6.46222 14.9764 6.56886 15.5477C6.63741 15.9057 7.01827 16.3247 7.36104 16.4237C7.54386 16.477 8.57979 16.4999 10.3622 16.4846C12.9673 16.4618 13.0892 16.4542 13.2872 16.3018C13.6909 16.0047 13.8128 15.761 13.8128 15.2811C13.8128 14.8012 13.6909 14.5575 13.2872 14.2604C13.0892 14.1081 12.9749 14.1004 10.286 14.0852C8.07706 14.07 7.44483 14.0852 7.26202 14.169Z" fill="#1E3EA3" stroke="white" stroke-width="0.629032"/>
<path d="M23.7058 15.3576C22.1443 15.6089 20.7808 16.3173 19.6306 17.4827C18.648 18.473 18.0081 19.6079 17.673 20.9638C17.4673 21.8017 17.4902 23.5156 17.7111 24.3458C18.0919 25.7322 18.6404 26.6995 19.5925 27.6669C20.3542 28.4363 20.697 28.6876 21.5806 29.1294C23.7743 30.2339 26.4861 30.1349 28.5046 28.8857L29.0378 28.5581L30.866 30.371C32.3894 31.8792 32.7474 32.1915 33.0216 32.2753C33.9052 32.5343 34.7507 31.6888 34.4917 30.8052C34.4079 30.531 34.0956 30.173 32.5874 28.6495L30.7745 26.8214L31.0716 26.3339C31.7952 25.1685 32.0771 24.1097 32.0771 22.5939C32.0771 21.4285 31.9476 20.7201 31.5744 19.8136C30.8507 18.0921 29.312 16.5535 27.5906 15.8298C26.5165 15.388 24.8408 15.1824 23.7058 15.3576ZM25.8386 17.8331C28.0247 18.2902 29.6853 20.3392 29.6853 22.5939C29.6853 24.3915 28.596 26.1587 27.004 26.9281C25.5263 27.6441 24.0943 27.6441 22.6165 26.9281C21.3521 26.3187 20.3466 25.0238 20.0495 23.6146C19.3183 20.1716 22.3804 17.1095 25.8386 17.8331Z" fill="#1E3EA3" stroke="white" stroke-width="0.629032"/>
</svg>
