<svg width="19" height="19" viewBox="0 0 19 19" fill="none" xmlns="http://www.w3.org/2000/svg">
<path d="M2.375 4.6001H3.95833H16.625" stroke="#F30000" stroke-linecap="round" stroke-linejoin="round"/>
<path d="M6.33333 4.60011V3.06678C6.33333 2.66012 6.50014 2.27011 6.79708 1.98255C7.09401 1.69499 7.49674 1.53345 7.91666 1.53345H11.0833C11.5033 1.53345 11.906 1.69499 12.2029 1.98255C12.4998 2.27011 12.6667 2.66012 12.6667 3.06678V4.60011M15.0417 4.60011V15.3334C15.0417 15.7401 14.8748 16.1301 14.5779 16.4177C14.281 16.7052 13.8783 16.8668 13.4583 16.8668H5.54166C5.12174 16.8668 4.71901 16.7052 4.42208 16.4177C4.12514 16.1301 3.95833 15.7401 3.95833 15.3334V4.60011H15.0417Z" stroke="#F30000" stroke-linecap="round" stroke-linejoin="round"/>
<path d="M7.91667 8.43335V13.0333" stroke="#F30000" stroke-linecap="round" stroke-linejoin="round"/>
<path d="M11.0833 8.43335V13.0333" stroke="#F30000" stroke-linecap="round" stroke-linejoin="round"/>
</svg>
