<svg width="20" height="20" viewBox="0 0 20 20" fill="none" xmlns="http://www.w3.org/2000/svg">
<path d="M2.5 5H4.16667H17.5" stroke="#DC3545" stroke-width="1.5" stroke-linecap="round" stroke-linejoin="round"/>
<path d="M15.8307 4.99935V16.666C15.8307 17.108 15.6551 17.532 15.3426 17.8445C15.03 18.1571 14.6061 18.3327 14.1641 18.3327H5.83073C5.3887 18.3327 4.96478 18.1571 4.65222 17.8445C4.33966 17.532 4.16406 17.108 4.16406 16.666V4.99935M6.66406 4.99935V3.33268C6.66406 2.89065 6.83966 2.46673 7.15222 2.15417C7.46478 1.84161 7.8887 1.66602 8.33073 1.66602H11.6641C12.1061 1.66602 12.53 1.84161 12.8426 2.15417C13.1551 2.46673 13.3307 2.89065 13.3307 3.33268V4.99935" stroke="#DC3545" stroke-width="1.5" stroke-linecap="round" stroke-linejoin="round"/>
<path d="M8.33594 9.16602V14.166" stroke="#DC3545" stroke-width="1.5" stroke-linecap="round" stroke-linejoin="round"/>
<path d="M11.6641 9.16602V14.166" stroke="#DC3545" stroke-width="1.5" stroke-linecap="round" stroke-linejoin="round"/>
</svg>
