<svg width="87" height="80" viewBox="0 0 87 80" fill="none" xmlns="http://www.w3.org/2000/svg">
<path d="M22.4729 62.9308C16.7161 62.9308 11.5952 59.2448 9.73577 53.7572L9.61012 53.3438C9.17151 51.8907 8.98776 50.6686 8.98776 49.4458V24.9277L0.263975 54.0484C-0.857954 58.3316 1.69885 62.7722 5.98863 63.9554L61.5939 78.8469C62.2881 79.0266 62.982 79.1129 63.6655 79.1129C67.2468 79.1129 70.5192 76.7359 71.4365 73.233L74.6761 62.9308H22.4729Z" fill="#DCE5F1"/>
<path d="M32.3622 25.1715C36.3287 25.1715 39.5539 21.9459 39.5539 17.9794C39.5539 14.0129 36.3287 10.7871 32.3622 10.7871C28.3957 10.7871 25.1699 14.0129 25.1699 17.9794C25.1699 21.9459 28.3957 25.1715 32.3622 25.1715Z" fill="#DCE5F1"/>
<path d="M77.312 0H23.3717C18.4169 0 14.382 4.03492 14.382 8.99046V48.5461C14.382 53.5016 18.4169 57.5366 23.3717 57.5366H77.312C82.2675 57.5366 86.3024 53.5016 86.3024 48.5461V8.99046C86.3024 4.03492 82.2675 0 77.312 0ZM23.3717 7.19213H77.312C78.3049 7.19213 79.1101 7.9974 79.1101 8.99046V34.5185L67.7507 21.2633C66.5457 19.8502 64.8014 19.0949 62.928 19.0522C61.0654 19.0627 59.3179 19.8897 58.124 21.3212L44.7681 37.3518L40.417 33.0114C37.9577 30.552 33.955 30.552 31.499 33.0114L21.5741 42.9329V8.99046C21.5741 7.9974 22.3795 7.19213 23.3717 7.19213Z" fill="#DCE5F1"/>
</svg>
