<svg width="37" height="31" viewBox="0 0 37 31" fill="none" xmlns="http://www.w3.org/2000/svg">
<path d="M7.43848 0.945702C6.67969 1.14804 6.04375 1.67558 5.6752 2.40547C5.45117 2.85351 5.45117 2.85351 5.1332 5.8164L4.87305 8.2373L3.53613 8.28066C2.06191 8.32402 1.81621 8.38183 1.1875 8.81543C0.74668 9.11894 0.479297 9.44414 0.226367 9.99336L0.03125 10.4053V19.2289V28.0453L0.305859 28.5945C0.623828 29.2377 0.970703 29.5773 1.65723 29.9098L2.12695 30.1338H15.7852C26.6105 30.1338 29.5084 30.1121 29.7469 30.0398C30.4695 29.823 31.2211 29.1148 31.5174 28.3633C31.6619 28.0092 31.6764 27.7996 31.7053 26.3687L31.7342 24.7717L32.6086 24.7789C33.3746 24.7861 33.5408 24.7645 33.9021 24.6199C34.6682 24.3092 35.3547 23.5215 35.5426 22.7266C35.6727 22.1918 37.0096 5.90312 36.959 5.45508C36.8723 4.60957 36.2508 3.71347 35.492 3.33047C35.2969 3.2293 34.9283 3.11367 34.6754 3.07031C34.2201 2.99082 8.39238 0.822849 8.02383 0.837303C7.92266 0.837303 7.65527 0.887888 7.43848 0.945702ZM21.1689 3.35937C28.3811 3.95918 34.4152 4.47949 34.5742 4.52285C34.95 4.63125 35.4486 5.12265 35.5137 5.45508C35.5354 5.59961 35.2463 9.46582 34.8633 14.0475C34.1262 22.8783 34.1479 22.6832 33.7648 23.0301C33.4541 23.3119 33.1 23.3914 32.3918 23.3408L31.727 23.2902L31.7053 16.8875L31.6836 10.4775L31.5102 10.0439C31.2717 9.44414 30.549 8.72148 29.9492 8.48301L29.5156 8.30957L17.9387 8.28789L6.35449 8.27344V8.10723C6.35449 7.79648 6.85312 3.31601 6.90371 3.17871C7.04824 2.77402 7.63359 2.28984 7.98047 2.27539C8.02383 2.27539 13.9568 2.75957 21.1689 3.35937ZM29.2988 9.79824C29.6674 9.89941 30.0937 10.3258 30.1949 10.6943C30.2383 10.8533 30.2744 11.3303 30.2744 11.7566V12.5371H15.8574H1.44043V11.7205C1.44043 10.7449 1.50547 10.4703 1.83066 10.1596C2.30762 9.69707 1.36816 9.72598 15.8213 9.71875C25.2303 9.71875 29.0893 9.74043 29.2988 9.79824ZM30.26 15.5145L30.2744 17.0176H15.8574H1.44043V15.5V13.9824L15.843 13.9969L30.2383 14.0186L30.26 15.5145ZM30.2744 22.9578C30.2744 25.8773 30.2455 27.5539 30.1949 27.7346C30.1588 27.8863 30.0215 28.1176 29.9059 28.2549C29.4578 28.768 30.5562 28.7318 15.7057 28.7102L2.33652 28.6885L2.07637 28.515C1.93906 28.4211 1.74395 28.226 1.65 28.0887L1.47656 27.8285L1.45488 23.1457L1.44043 18.4629H15.8574H30.2744V22.9578Z" fill="#1E3EA3"/>
<path d="M19.7732 20.8332L19.5781 21.0355V23.5865V26.1375L19.7877 26.3471L19.9973 26.5566H23.7334C26.1543 26.5566 27.5129 26.5277 27.6068 26.4844C27.9393 26.3037 27.9609 26.1375 27.9609 23.5938C27.9609 21.05 27.9393 20.8838 27.6068 20.7031C27.5129 20.6598 26.1471 20.6309 23.7189 20.6309H19.9684L19.7732 20.8332ZM26.5156 23.5938V25.1113H23.7695H21.0234V23.5938V22.0762H23.7695H26.5156V23.5938Z" fill="#1E3EA3"/>
</svg>
