<svg width="31" height="31" viewBox="0 0 31 31" fill="none" xmlns="http://www.w3.org/2000/svg">
<path d="M1.6895 1.09636C1.52544 1.18522 1.29985 1.3903 1.18364 1.54753L0.978564 1.84147L0.958056 5.12956C0.944384 7.35124 0.958056 8.50651 1.01274 8.67741C1.252 9.49772 2.2979 9.90788 3.06352 9.48405C3.22759 9.38835 3.46001 9.17643 3.57622 9.01921L3.7813 8.71842L3.81548 6.28483L3.84966 3.8444L6.29009 3.81022L8.72368 3.77604L9.02446 3.57096C9.96782 2.90788 9.8311 1.47917 8.79204 1.04167C8.57329 0.952801 8.0606 0.939129 5.2647 0.939129H1.99028L1.6895 1.09636Z" fill="#1E3EA3" stroke="white" stroke-width="0.844828"/>
<path d="M22.2065 1.04856C21.1264 1.52024 21.0649 3.08567 22.104 3.65989C22.2817 3.76243 22.6508 3.78293 24.7358 3.81028L27.1626 3.84446L27.1967 6.27122C27.2309 8.88938 27.2378 8.90989 27.6206 9.25168C28.2973 9.86692 29.3022 9.76438 29.8286 9.01926L30.0337 8.71848V5.28684V1.8552L29.8628 1.60227C29.7671 1.45872 29.5688 1.26047 29.4253 1.15794L29.1587 0.973365L25.8022 0.959693C22.9175 0.946021 22.4116 0.959693 22.2065 1.04856Z" fill="#1E3EA3" stroke="white" stroke-width="0.844828"/>
<path d="M9.00586 6.94142C8.73926 7.07814 8.58203 7.2217 8.43164 7.46779L8.22656 7.79592V8.93068C8.22656 10.0449 8.22656 10.0723 8.41797 10.3867C8.90332 11.2139 10.0176 11.3574 10.6875 10.6875C11.0566 10.3115 11.1318 10.0244 11.1318 8.93752C11.1318 7.8506 11.0566 7.56349 10.6875 7.19435C10.2158 6.72267 9.60059 6.62697 9.00586 6.94142Z" fill="#1E3EA3" stroke="white" stroke-width="0.844828"/>
<path d="M14.959 6.85945C14.6514 6.99617 14.3643 7.26277 14.2002 7.58406C14.0908 7.80281 14.0703 7.98738 14.0703 8.93757C14.0703 9.88777 14.0908 10.0723 14.2002 10.2911C14.7744 11.4053 16.292 11.3917 16.8115 10.2706C16.9209 10.0382 16.9414 9.81941 16.9414 8.91707C16.9414 7.98738 16.9209 7.80281 16.8115 7.58406C16.4492 6.88679 15.6357 6.5655 14.959 6.85945Z" fill="#1E3EA3" stroke="white" stroke-width="0.844828"/>
<path d="M20.8457 6.82513C20.5312 6.92083 20.0391 7.42669 19.9502 7.74798C19.9092 7.89837 19.875 8.43157 19.875 8.93743C19.875 10.0585 19.9365 10.2978 20.3125 10.6738C20.9893 11.3574 22.1035 11.2206 22.5889 10.3866C22.7803 10.0722 22.7803 10.0449 22.7803 8.93743C22.7803 7.83001 22.7803 7.80267 22.5889 7.48821C22.2539 6.91399 21.4951 6.62688 20.8457 6.82513Z" fill="#1E3EA3" stroke="white" stroke-width="0.844828"/>
<path d="M6.07031 14.2217C5.90625 14.3105 5.68066 14.5156 5.56445 14.6729C5.37988 14.9395 5.35938 15.0146 5.35938 15.4932C5.35938 15.958 5.37988 16.0537 5.54395 16.293C5.64648 16.4365 5.84473 16.6348 5.98828 16.7305L6.24121 16.9014H15.5107H24.7871L25.0537 16.7168C25.1973 16.6143 25.3955 16.416 25.4912 16.2725C25.6348 16.0605 25.6621 15.9443 25.6621 15.5C25.6621 15.0557 25.6348 14.9395 25.4912 14.7275C25.3955 14.584 25.1973 14.3857 25.0537 14.2832L24.7871 14.0986L15.5791 14.0781L6.37793 14.0645L6.07031 14.2217Z" fill="#1E3EA3" stroke="white" stroke-width="0.844828"/>
<path d="M9.00586 20.0664C8.73926 20.2031 8.58203 20.3467 8.43164 20.5928L8.22656 20.9209V22.0557C8.22656 23.1699 8.22656 23.1973 8.41797 23.5117C8.90332 24.3389 10.0176 24.4824 10.6875 23.8125C11.0566 23.4365 11.1318 23.1494 11.1318 22.0625C11.1318 20.9756 11.0566 20.6885 10.6875 20.3194C10.2158 19.8477 9.60059 19.752 9.00586 20.0664Z" fill="#1E3EA3" stroke="white" stroke-width="0.844828"/>
<path d="M14.959 19.9844C14.6514 20.1212 14.3643 20.3878 14.2002 20.7091C14.0908 20.9278 14.0703 21.1124 14.0703 22.0626C14.0703 23.0128 14.0908 23.1973 14.2002 23.4161C14.7744 24.5303 16.292 24.5167 16.8115 23.3956C16.9209 23.1632 16.9414 22.9444 16.9414 22.0421C16.9414 21.1124 16.9209 20.9278 16.8115 20.7091C16.4492 20.0118 15.6357 19.6905 14.959 19.9844Z" fill="#1E3EA3" stroke="white" stroke-width="0.844828"/>
<path d="M20.8457 19.9501C20.5312 20.0458 20.0391 20.5517 19.9502 20.873C19.9092 21.0234 19.875 21.5566 19.875 22.0624C19.875 23.1835 19.9365 23.4228 20.3125 23.7988C20.9893 24.4824 22.1035 24.3456 22.5889 23.5116C22.7803 23.1972 22.7803 23.1699 22.7803 22.0624C22.7803 20.955 22.7803 20.9277 22.5889 20.6132C22.2539 20.039 21.4951 19.7519 20.8457 19.9501Z" fill="#1E3EA3" stroke="white" stroke-width="0.844828"/>
<path d="M2.03813 21.3721C1.50493 21.543 1.13579 21.8848 1.01274 22.3223C0.958056 22.4932 0.944384 23.6484 0.958056 25.8633L0.978564 29.1514L1.16313 29.418C1.26567 29.5615 1.46392 29.7598 1.60747 29.8555L1.8604 30.0264H5.29204H8.72368L9.02446 29.8213C9.76958 29.2949 9.87212 28.29 9.25688 27.6133C8.91509 27.2305 8.89458 27.2236 6.27642 27.1895L3.84966 27.1553L3.81548 24.7285C3.7813 22.1104 3.77446 22.0898 3.39165 21.748C3.03618 21.4199 2.41411 21.249 2.03813 21.3721Z" fill="#1E3EA3" stroke="white" stroke-width="0.844828"/>
<path d="M28.2822 21.372C27.8515 21.5156 27.5303 21.7617 27.3457 22.0966C27.2431 22.2744 27.2226 22.6435 27.1953 24.7285L27.1611 27.1552L24.7344 27.1894C22.1162 27.2236 22.0957 27.2304 21.7539 27.6132C21.0293 28.3994 21.3506 29.705 22.3281 29.9921C22.499 30.0468 23.6543 30.0605 25.8691 30.0468L29.1504 30.0263L29.4033 29.8554C29.5469 29.7597 29.7451 29.5615 29.8476 29.4179L30.0322 29.1513L30.0527 25.8632C30.0664 23.6484 30.0527 22.4931 29.998 22.3222C29.8066 21.6591 28.918 21.1669 28.2822 21.372Z" fill="#1E3EA3" stroke="white" stroke-width="0.844828"/>
</svg>
