<svg width="43" height="43" viewBox="0 0 43 43" fill="none" xmlns="http://www.w3.org/2000/svg">
<path d="M21.5 43C33.3754 43 43 33.3754 43 21.5C43 9.62461 33.3754 0 21.5 0C9.62461 0 0 9.62461 0 21.5C0 33.3754 9.62461 43 21.5 43ZM21.5 10.75C22.617 10.75 23.5156 11.6486 23.5156 12.7656V22.1719C23.5156 23.2889 22.617 24.1875 21.5 24.1875C20.383 24.1875 19.4844 23.2889 19.4844 22.1719V12.7656C19.4844 11.6486 20.383 10.75 21.5 10.75ZM24.1875 29.5625C24.1875 31.049 22.9865 32.25 21.5 32.25C20.0135 32.25 18.8125 31.049 18.8125 29.5625C18.8125 28.076 20.0135 26.875 21.5 26.875C22.9865 26.875 24.1875 28.076 24.1875 29.5625Z" fill="#1E40AF"/>
</svg>
